  0
SECTION
  2
HEADER
  9
$ACADVER
  1
AC1015
  9
$ACADMAINTVER
 70
     6
  9
$DWGCODEPAGE
  3
ANSI_936
  9
$INSBASE
 10
0.0
 20
0.0
 30
0.0
  9
$EXTMIN
 10
-20.9571890628
 20
-20.9571890628
 30
0.0
  9
$EXTMAX
 10
20.9571890628
 20
20.9571890628
 30
0.0
  9
$LIMMIN
 10
0.0
 20
0.0
  9
$LIMMAX
 10
420.0
 20
297.0
  9
$ORTHOMODE
 70
     0
  9
$REGENMODE
 70
     1
  9
$FILLMODE
 70
     1
  9
$QTEXTMODE
 70
     0
  9
$MIRRTEXT
 70
     1
  9
$LTSCALE
 40
1.0
  9
$ATTMODE
 70
     1
  9
$TEXTSIZE
 40
6.35
  9
$TRACEWID
 40
1.0
  9
$TEXTSTYLE
  7
Standard
  9
$CLAYER
  8
0
  9
$CELTYPE
  6
ByLayer
  9
$CECOLOR
 62
   256
  9
$CELTSCALE
 40
1.0
  9
$DISPSILH
 70
     0
  9
$DIMSCALE
 40
1.0
  9
$DIMASZ
 40
6.0
  9
$DIMEXO
 40
0.0
  9
$DIMDLI
 40
3.75
  9
$DIMRND
 40
0.0
  9
$DIMDLE
 40
0.0
  9
$DIMEXE
 40
1.0
  9
$DIMTP
 40
0.0
  9
$DIMTM
 40
0.0
  9
$DIMTXT
 40
6.35
  9
$DIMCEN
 40
2.5
  9
$DIMTSZ
 40
0.0
  9
$DIMTOL
 70
     0
  9
$DIMLIM
 70
     0
  9
$DIMTIH
 70
     1
  9
$DIMTOH
 70
     1
  9
$DIMSE1
 70
     0
  9
$DIMSE2
 70
     0
  9
$DIMTAD
 70
     0
  9
$DIMZIN
 70
     0
  9
$DIMBLK
  1

  9
$DIMASO
 70
     1
  9
$DIMSHO
 70
     1
  9
$DIMPOST
  1

  9
$DIMAPOST
  1

  9
$DIMALT
 70
     0
  9
$DIMALTD
 70
     3
  9
$DIMALTF
 40
0.0393700787
  9
$DIMLFAC
 40
1.0
  9
$DIMTOFL
 70
     1
  9
$DIMTVP
 40
0.0
  9
$DIMTIX
 70
     0
  9
$DIMSOXD
 70
     0
  9
$DIMSAH
 70
     0
  9
$DIMBLK1
  1

  9
$DIMBLK2
  1

  9
$DIMSTYLE
  2
ISO-25
  9
$DIMCLRD
 70
     0
  9
$DIMCLRE
 70
     0
  9
$DIMCLRT
 70
     0
  9
$DIMTFAC
 40
1.0
  9
$DIMGAP
 40
1.524
  9
$DIMJUST
 70
     0
  9
$DIMSD1
 70
     0
  9
$DIMSD2
 70
     0
  9
$DIMTOLJ
 70
     0
  9
$DIMTZIN
 70
     0
  9
$DIMALTZ
 70
     0
  9
$DIMALTTZ
 70
     0
  9
$DIMUPT
 70
     0
  9
$DIMDEC
 70
     3
  9
$DIMTDEC
 70
     2
  9
$DIMALTU
 70
     2
  9
$DIMALTTD
 70
     3
  9
$DIMTXSTY
  7
Standard
  9
$DIMAUNIT
 70
     0
  9
$DIMADEC
 70
     3
  9
$DIMALTRND
 40
0.0
  9
$DIMAZIN
 70
     0
  9
$DIMDSEP
 70
    44
  9
$DIMATFIT
 70
     3
  9
$DIMFRAC
 70
     0
  9
$DIMLDRBLK
  1

  9
$DIMLUNIT
 70
     2
  9
$DIMLWD
 70
    -2
  9
$DIMLWE
 70
    -2
  9
$DIMTMOVE
 70
     0
  9
$LUNITS
 70
     2
  9
$LUPREC
 70
     3
  9
$SKETCHINC
 40
1.0
  9
$FILLETRAD
 40
0.0
  9
$AUNITS
 70
     0
  9
$AUPREC
 70
     3
  9
$MENU
  1
.
  9
$ELEVATION
 40
0.0
  9
$PELEVATION
 40
0.0
  9
$THICKNESS
 40
0.0
  9
$LIMCHECK
 70
     0
  9
$CHAMFERA
 40
0.0
  9
$CHAMFERB
 40
0.0
  9
$CHAMFERC
 40
0.0
  9
$CHAMFERD
 40
0.0
  9
$SKPOLY
 70
     0
  9
$TDCREATE
 40
2460362.991620729
  9
$TDUCREATE
 40
2460363.199954063
  9
$TDUPDATE
 40
2460362.991649989
  9
$TDUUPDATE
 40
2460363.199983322
  9
$TDINDWG
 40
0.0000000116
  9
$TDUSRTIMER
 40
0.0000000116
  9
$USRTIMER
 70
     1
  9
$ANGBASE
 50
0.0
  9
$ANGDIR
 70
     0
  9
$PDMODE
 70
     0
  9
$PDSIZE
 40
-1.0
  9
$PLINEWID
 40
0.0
  9
$SPLFRAME
 70
     0
  9
$SPLINETYPE
 70
     6
  9
$SPLINESEGS
 70
     8
  9
$HANDSEED
  5
2E8
  9
$SURFTAB1
 70
     6
  9
$SURFTAB2
 70
     6
  9
$SURFTYPE
 70
     6
  9
$SURFU
 70
     6
  9
$SURFV
 70
     6
  9
$UCSBASE
  2

  9
$UCSNAME
  2

  9
$UCSORG
 10
0.0
 20
0.0
 30
0.0
  9
$UCSXDIR
 10
1.0
 20
0.0
 30
0.0
  9
$UCSYDIR
 10
0.0
 20
1.0
 30
0.0
  9
$UCSORTHOREF
  2

  9
$UCSORTHOVIEW
 70
     0
  9
$UCSORGTOP
 10
0.0
 20
0.0
 30
0.0
  9
$UCSORGBOTTOM
 10
0.0
 20
0.0
 30
0.0
  9
$UCSORGLEFT
 10
0.0
 20
0.0
 30
0.0
  9
$UCSORGRIGHT
 10
0.0
 20
0.0
 30
0.0
  9
$UCSORGFRONT
 10
0.0
 20
0.0
 30
0.0
  9
$UCSORGBACK
 10
0.0
 20
0.0
 30
0.0
  9
$PUCSBASE
  2

  9
$PUCSNAME
  2

  9
$PUCSORG
 10
0.0
 20
0.0
 30
0.0
  9
$PUCSXDIR
 10
1.0
 20
0.0
 30
0.0
  9
$PUCSYDIR
 10
0.0
 20
1.0
 30
0.0
  9
$PUCSORTHOREF
  2

  9
$PUCSORTHOVIEW
 70
     0
  9
$PUCSORGTOP
 10
0.0
 20
0.0
 30
0.0
  9
$PUCSORGBOTTOM
 10
0.0
 20
0.0
 30
0.0
  9
$PUCSORGLEFT
 10
0.0
 20
0.0
 30
0.0
  9
$PUCSORGRIGHT
 10
0.0
 20
0.0
 30
0.0
  9
$PUCSORGFRONT
 10
0.0
 20
0.0
 30
0.0
  9
$PUCSORGBACK
 10
0.0
 20
0.0
 30
0.0
  9
$USERI1
 70
     0
  9
$USERI2
 70
     0
  9
$USERI3
 70
     0
  9
$USERI4
 70
     0
  9
$USERI5
 70
     0
  9
$USERR1
 40
0.0
  9
$USERR2
 40
0.0
  9
$USERR3
 40
0.0
  9
$USERR4
 40
0.0
  9
$USERR5
 40
0.0
  9
$WORLDVIEW
 70
     1
  9
$SHADEDGE
 70
     3
  9
$SHADEDIF
 70
    70
  9
$TILEMODE
 70
     1
  9
$MAXACTVP
 70
    64
  9
$PINSBASE
 10
0.0
 20
0.0
 30
0.0
  9
$PLIMCHECK
 70
     0
  9
$PEXTMIN
 10
-20.9571890628
 20
-20.9571890628
 30
0.0
  9
$PEXTMAX
 10
20.9571890628
 20
20.9571890628
 30
0.0
  9
$PLIMMIN
 10
-25.2560996398
 20
-22.5692805292
  9
$PLIMMAX
 10
38.5827224285
 20
22.5692805292
  9
$UNITMODE
 70
     0
  9
$VISRETAIN
 70
     1
  9
$PLINEGEN
 70
     0
  9
$PSLTSCALE
 70
     1
  9
$TREEDEPTH
 70
  3020
  9
$CMLSTYLE
  2
Standard
  9
$CMLJUST
 70
     0
  9
$CMLSCALE
 40
20.0
  9
$PROXYGRAPHICS
 70
     1
  9
$MEASUREMENT
 70
     1
  9
$CELWEIGHT
370
    -1
  9
$ENDCAPS
280
     0
  9
$JOINSTYLE
280
     0
  9
$LWDISPLAY
290
     1
  9
$INSUNITS
 70
     4
  9
$HYPERLINKBASE
  1

  9
$STYLESHEET
  1

  9
$XEDIT
290
     1
  9
$CEPSNTYPE
380
     0
  9
$PSTYLEMODE
290
     1
  9
$FINGERPRINTGUID
  2
{9631503b-c700-4aad-af09-c9d3bd6722c1}
  9
$VERSIONGUID
  2
{FAEB1C32-E019-11D5-929B-00C0DF256EC4}
  9
$EXTNAMES
290
     1
  9
$PSVPSCALE
 40
0.0
  9
$OLESTARTUP
290
     0
  0
ENDSEC
  0
SECTION
  2
CLASSES
  0
CLASS
  1
ACDBDICTIONARYWDFLT
  2
AcDbDictionaryWithDefault
  3
ObjectDBX Classes
 90
        0
280
     0
281
     0
  0
CLASS
  1
VISUALSTYLE
  2
AcDbVisualStyle
  3
ObjectDBX Classes
 90
     4095
280
     0
281
     0
  0
CLASS
  1
MATERIAL
  2
AcDbMaterial
  3
ObjectDBX Classes
 90
     1153
280
     0
281
     0
  0
CLASS
  1
SCALE
  2
AcDbScale
  3
ObjectDBX Classes
 90
     1153
280
     0
281
     0
  0
CLASS
  1
TABLESTYLE
  2
AcDbTableStyle
  3
ObjectDBX Classes
 90
     4095
280
     0
281
     0
  0
CLASS
  1
MLEADERSTYLE
  2
AcDbMLeaderStyle
  3
ACDB_MLEADERSTYLE_CLASS
 90
     4095
280
     0
281
     0
  0
CLASS
  1
SUN
  2
AcDbSun
  3
SCENEOE
 90
     1153
280
     0
281
     0
  0
CLASS
  1
ACDBPLACEHOLDER
  2
AcDbPlaceHolder
  3
ObjectDBX Classes
 90
        0
280
     0
281
     0
  0
CLASS
  1
LAYOUT
  2
AcDbLayout
  3
ObjectDBX Classes
 90
        0
280
     0
281
     0
  0
ENDSEC
  0
SECTION
  2
TABLES
  0
TABLE
  2
VPORT
  5
8
330
0
100
AcDbSymbolTable
 70
     1
  0
VPORT
  5
29
330
8
100
AcDbSymbolTableRecord
100
AcDbViewportTableRecord
  2
*Active
 70
     0
 10
0.0
 20
0.0
 11
1.0
 21
1.0
 12
0.0
 22
0.0
 13
0.0
 23
0.0
 14
10.0
 24
10.0
 15
10.0
 25
10.0
 16
0.0
 26
0.0
 36
1.0
 17
0.0
 27
0.0
 37
0.0
 40
42.7526656882
 41
1.0
 42
50.0
 43
0.0
 44
0.0
 50
0.0
 51
0.0
 71
     0
 72
   100
 73
     1
 74
     3
 75
     0
 76
     0
 77
     0
 78
     0
281
     0
 65
     1
110
0.0
120
0.0
130
0.0
111
1.0
121
0.0
131
0.0
112
0.0
122
1.0
132
0.0
 79
     0
146
0.0
  0
ENDTAB
  0
TABLE
  2
LTYPE
  5
5
330
0
100
AcDbSymbolTable
 70
     6
  0
LTYPE
  5
14
330
5
100
AcDbSymbolTableRecord
100
AcDbLinetypeTableRecord
  2
ByBlock
 70
     0
  3

 72
    65
 73
     0
 40
0.0
  0
LTYPE
  5
15
330
5
100
AcDbSymbolTableRecord
100
AcDbLinetypeTableRecord
  2
ByLayer
 70
     0
  3

 72
    65
 73
     0
 40
0.0
  0
LTYPE
  5
16
330
5
100
AcDbSymbolTableRecord
100
AcDbLinetypeTableRecord
  2
Continuous
 70
     0
  3
Solid line
 72
    65
 73
     0
 40
0.0
  0
LTYPE
  5
5E
330
5
100
AcDbSymbolTableRecord
100
AcDbLinetypeTableRecord
  2
HIDDEN
 70
     0
  3
Hidden __ __ __ __ __ __ __ __ __ __ __ __ __ __
 72
    65
 73
     2
 40
1.905
 49
1.27
 74
     0
 49
-0.635
 74
     0
  0
LTYPE
  5
5F
330
5
100
AcDbSymbolTableRecord
100
AcDbLinetypeTableRecord
  2
PHANTOM
 70
     0
  3
Phantom ______  __  __  ______  __  __  ______
 72
    65
 73
     6
 40
12.7
 49
6.35
 74
     0
 49
-1.27
 74
     0
 49
1.27
 74
     0
 49
-1.27
 74
     0
 49
1.27
 74
     0
 49
-1.27
 74
     0
  0
LTYPE
  5
60
330
5
100
AcDbSymbolTableRecord
100
AcDbLinetypeTableRecord
  2
CENTER
 70
     0
  3
Center ____ _ ____ _ ____ _ ____ _ ____ _ ____
 72
    65
 73
     4
 40
10.16
 49
6.35
 74
     0
 49
-1.27
 74
     0
 49
1.27
 74
     0
 49
-1.27
 74
     0
  0
LTYPE
  5
61
330
5
100
AcDbSymbolTableRecord
100
AcDbLinetypeTableRecord
  2
CENTERX2
 70
     0
  3
Center (2x) ________  __  ________  __  _____
 72
    65
 73
     4
 40
20.32
 49
12.7
 74
     0
 49
-2.54
 74
     0
 49
2.54
 74
     0
 49
-2.54
 74
     0
  0
LTYPE
  5
62
330
5
100
AcDbSymbolTableRecord
100
AcDbLinetypeTableRecord
  2
DOT2
 70
     0
  3
Dot (.5x) ........................................
 72
    65
 73
     2
 40
0.635
 49
0.0
 74
     0
 49
-0.635
 74
     0
  0
ENDTAB
  0
TABLE
  2
LAYER
  5
2
330
0
100
AcDbSymbolTable
 70
     1
  0
LAYER
  5
10
330
2
100
AcDbSymbolTableRecord
100
AcDbLayerTableRecord
  2
0
 70
     0
 62
     7
  6
Continuous
370
    -3
390
F
  0
ENDTAB
  0
TABLE
  2
STYLE
  5
3
330
0
100
AcDbSymbolTable
 70
     1
  0
STYLE
  5
11
330
3
100
AcDbSymbolTableRecord
100
AcDbTextStyleTableRecord
  2
Standard
 70
     0
 40
0.0
 41
1.0
 50
0.0
 71
     0
 42
6.35
  3
txt
  4

  0
ENDTAB
  0
TABLE
  2
VIEW
  5
6
330
0
100
AcDbSymbolTable
 70
     0
  0
ENDTAB
  0
TABLE
  2
UCS
  5
7
330
0
100
AcDbSymbolTable
 70
     0
  0
ENDTAB
  0
TABLE
  2
APPID
  5
9
330
0
100
AcDbSymbolTable
 70
     1
  0
APPID
  5
12
330
9
100
AcDbSymbolTableRecord
100
AcDbRegAppTableRecord
  2
ACAD
 70
     0
  0
ENDTAB
  0
TABLE
  2
DIMSTYLE
  5
A
330
0
100
AcDbSymbolTable
 70
     1
100
AcDbDimStyleTable
  0
DIMSTYLE
105
27
330
A
100
AcDbSymbolTableRecord
100
AcDbDimStyleTableRecord
  2
ISO-25
 70
     0
 41
2.5
 42
0.625
 43
3.75
 44
1.25
 73
     0
 74
     0
 77
     1
 78
     8
140
2.5
141
2.5
143
0.0393700787
147
0.625
171
     3
172
     1
178
     0
271
     2
272
     2
274
     3
278
    44
283
     0
284
     8
340
11
  0
ENDTAB
  0
TABLE
  2
BLOCK_RECORD
  5
1
330
0
100
AcDbSymbolTable
 70
     1
  0
BLOCK_RECORD
  5
1F
330
1
100
AcDbSymbolTableRecord
100
AcDbBlockTableRecord
  2
*Model_Space
340
22
  0
BLOCK_RECORD
  5
1B
330
1
100
AcDbSymbolTableRecord
100
AcDbBlockTableRecord
  2
*Paper_Space
340
1E
  0
BLOCK_RECORD
  5
23
330
1
100
AcDbSymbolTableRecord
100
AcDbBlockTableRecord
  2
*Paper_Space0
340
26
  0
ENDTAB
  0
ENDSEC
  0
SECTION
  2
BLOCKS
  0
BLOCK
  5
20
330
1F
100
AcDbEntity
  8
0
100
AcDbBlockBegin
  2
*Model_Space
 70
     0
 10
0.0
 20
0.0
 30
0.0
  3
*Model_Space
  1

  0
ENDBLK
  5
21
330
1F
100
AcDbEntity
  8
0
100
AcDbBlockEnd
  0
BLOCK
  5
1C
330
1B
100
AcDbEntity
 67
     1
  8
0
100
AcDbBlockBegin
  2
*Paper_Space
 70
     0
 10
0.0
 20
0.0
 30
0.0
  3
*Paper_Space
  1

  0
ENDBLK
  5
1D
330
1B
100
AcDbEntity
 67
     1
  8
0
100
AcDbBlockEnd
  0
BLOCK
  5
24
330
23
100
AcDbEntity
  8
0
100
AcDbBlockBegin
  2
*Paper_Space0
 70
     0
 10
0.0
 20
0.0
 30
0.0
  3
*Paper_Space0
  1

  0
ENDBLK
  5
25
330
23
100
AcDbEntity
  8
0
100
AcDbBlockEnd
  0
ENDSEC
  0
SECTION
  2
ENTITIES
  0
CIRCLE
  5
103
330
1F
100
AcDbEntity
  8
0
  6
Continuous
 62
     7
370
    25
100
AcDbCircle
 10
0.0
 20
0.0
 30
0.0
 40
10.00000000000001
  0
ARC
  5
104
330
1F
100
AcDbEntity
  8
0
  6
Continuous
 62
     7
370
    25
100
AcDbCircle
 10
0.0
 20
0.0
 30
0.0
 40
21.00000000000154
100
AcDbArc
 50
174.6591411107
 51
176.3408588893
  0
ARC
  5
105
330
1F
100
AcDbEntity
  8
0
  6
Continuous
 62
     7
370
    25
100
AcDbCircle
 10
-17.9747737931
 20
-5.4878407242
 30
0.0
 40
8.000000000000439
100
AcDbArc
 50
94.3606911867
 51
111.5157534812
  0
ARC
  5
106
330
1F
100
AcDbEntity
  8
0
  6
Continuous
 62
     7
370
    25
100
AcDbCircle
 10
0.0
 20
0.0
 30
0.0
 40
18.74900000001524
100
AcDbArc
 50
169.6287514604
 51
172.3712485396
  0
ARC
  5
107
330
1F
100
AcDbEntity
  8
0
  6
Continuous
 62
     7
370
    25
100
AcDbCircle
 10
-15.3991896987
 20
10.7737572532
 30
0.0
 40
8.00000000000026
100
AcDbArc
 50
230.4842465188
 51
247.6393088133
  0
ARC
  5
108
330
1F
100
AcDbEntity
  8
0
  6
Continuous
 62
     7
370
    25
100
AcDbCircle
 10
0.0
 20
0.0
 30
0.0
 40
21.00000000001347
100
AcDbArc
 50
165.6591411107
 51
167.3408588893
  0
ARC
  5
109
330
1F
100
AcDbEntity
  8
0
  6
Continuous
 62
     7
370
    25
100
AcDbCircle
 10
-18.6119619282
 20
-2.6084021758
 30
0.0
 40
8.000000000000417
100
AcDbArc
 50
85.3606911867
 51
102.5157534812
  0
ARC
  5
10A
330
1F
100
AcDbEntity
  8
0
  6
Continuous
 62
     7
370
    25
100
AcDbCircle
 10
0.0
 20
0.0
 30
0.0
 40
18.74900000003006
100
AcDbArc
 50
160.6287514604
 51
163.3712485396
  0
ARC
  5
10B
330
1F
100
AcDbEntity
  8
0
  6
Continuous
 62
     7
370
    25
100
AcDbCircle
 10
-13.5242131676
 20
13.050078426
 30
0.0
 40
8.000000000000078
100
AcDbArc
 50
221.4842465188
 51
238.6393088133
  0
ARC
  5
10C
330
1F
100
AcDbEntity
  8
0
  6
Continuous
 62
     7
370
    25
100
AcDbCircle
 10
0.0
 20
0.0
 30
0.0
 40
20.99999999998937
100
AcDbArc
 50
156.6591411107
 51
158.3408588893
  0
ARC
  5
10D
330
1F
100
AcDbEntity
  8
0
  6
Continuous
 62
     7
370
    25
100
AcDbCircle
 10
-18.790861791
 20
0.335263891
 30
0.0
 40
8.000000000000451
100
AcDbArc
 50
76.3606911867
 51
93.5157534812
  0
ARC
  5
10E
330
1F
100
AcDbEntity
  8
0
  6
Continuous
 62
     7
370
    25
100
AcDbCircle
 10
0.0
 20
0.0
 30
0.0
 40
18.74900000000889
100
AcDbArc
 50
151.6287514604
 51
154.3712485396
  0
ARC
  5
10F
330
1F
100
AcDbEntity
  8
0
  6
Continuous
 62
     7
370
    25
100
AcDbCircle
 10
-11.3162256241
 20
15.0050633571
 30
0.0
 40
8.00000000000056
100
AcDbArc
 50
212.4842465188
 51
229.6393088133
  0
ARC
  5
110
330
1F
100
AcDbEntity
  8
0
  6
Continuous
 62
     7
370
    25
100
AcDbCircle
 10
0.0
 20
0.0
 30
0.0
 40
20.99999999999774
100
AcDbArc
 50
147.6591411107
 51
149.3408588893
  0
ARC
  5
111
330
1F
100
AcDbEntity
  8
0
  6
Continuous
 62
     7
370
    25
100
AcDbCircle
 10
-18.5070682733
 20
3.2706746481
 30
0.0
 40
8.000000000000155
100
AcDbArc
 50
67.3606911867
 51
84.5157534812
  0
ARC
  5
112
330
1F
100
AcDbEntity
  8
0
  6
Continuous
 62
     7
370
    25
100
AcDbCircle
 10
0.0
 20
0.0
 30
0.0
 40
18.74900000001837
100
AcDbArc
 50
142.6287514604
 51
145.3712485396
  0
ARC
  5
113
330
1F
100
AcDbEntity
  8
0
  6
Continuous
 62
     7
370
    25
100
AcDbCircle
 10
-8.8295950493
 20
16.5905738295
 30
0.0
 40
8.000000000000336
100
AcDbArc
 50
203.4842465188
 51
220.6393088133
  0
ARC
  5
114
330
1F
100
AcDbEntity
  8
0
  6
Continuous
 62
     7
370
    25
100
AcDbCircle
 10
0.0
 20
0.0
 30
0.0
 40
21.00000000001156
100
AcDbArc
 50
138.6591411107
 51
140.3408588893
  0
ARC
  5
115
330
1F
100
AcDbEntity
  8
0
  6
Continuous
 62
     7
370
    25
100
AcDbCircle
 10
-17.7675693132
 20
6.1255505406
 30
0.0
 40
8.000000000000336
100
AcDbArc
 50
58.3606911867
 51
75.5157534812
  0
ARC
  5
116
330
1F
100
AcDbEntity
  8
0
  6
Continuous
 62
     7
370
    25
100
AcDbCircle
 10
0.0
 20
0.0
 30
0.0
 40
18.74900000001366
100
AcDbArc
 50
133.6287514604
 51
136.3712485396
  0
ARC
  5
117
330
1F
100
AcDbEntity
  8
0
  6
Continuous
 62
     7
370
    25
100
AcDbCircle
 10
-6.1255505406
 20
17.7675693132
 30
0.0
 40
8.000000000000329
100
AcDbArc
 50
194.4842465188
 51
211.6393088133
  0
ARC
  5
118
330
1F
100
AcDbEntity
  8
0
  6
Continuous
 62
     7
370
    25
100
AcDbCircle
 10
0.0
 20
0.0
 30
0.0
 40
21.00000000000738
100
AcDbArc
 50
129.6591411107
 51
131.3408588893
  0
ARC
  5
119
330
1F
100
AcDbEntity
  8
0
  6
Continuous
 62
     7
370
    25
100
AcDbCircle
 10
-16.5905738295
 20
8.8295950493
 30
0.0
 40
8.000000000000362
100
AcDbArc
 50
49.3606911867
 51
66.5157534812
  0
ARC
  5
11A
330
1F
100
AcDbEntity
  8
0
  6
Continuous
 62
     7
370
    25
100
AcDbCircle
 10
0.0
 20
0.0
 30
0.0
 40
18.74900000002022
100
AcDbArc
 50
124.6287514604
 51
127.3712485396
  0
ARC
  5
11B
330
1F
100
AcDbEntity
  8
0
  6
Continuous
 62
     7
370
    25
100
AcDbCircle
 10
-3.2706746481
 20
18.5070682733
 30
0.0
 40
8.000000000000172
100
AcDbArc
 50
185.4842465188
 51
202.6393088133
  0
ARC
  5
11C
330
1F
100
AcDbEntity
  8
0
  6
Continuous
 62
     7
370
    25
100
AcDbCircle
 10
0.0
 20
0.0
 30
0.0
 40
21.00000000001364
100
AcDbArc
 50
120.6591411107
 51
122.3408588893
  0
ARC
  5
11D
330
1F
100
AcDbEntity
  8
0
  6
Continuous
 62
     7
370
    25
100
AcDbCircle
 10
-15.0050633571
 20
11.3162256241
 30
0.0
 40
8.000000000000412
100
AcDbArc
 50
40.3606911867
 51
57.5157534812
  0
ARC
  5
11E
330
1F
100
AcDbEntity
  8
0
  6
Continuous
 62
     7
370
    25
100
AcDbCircle
 10
0.0
 20
0.0
 30
0.0
 40
18.74900000001442
100
AcDbArc
 50
115.6287514604
 51
118.3712485396
  0
ARC
  5
11F
330
1F
100
AcDbEntity
  8
0
  6
Continuous
 62
     7
370
    25
100
AcDbCircle
 10
-0.335263891
 20
18.790861791
 30
0.0
 40
8.000000000000274
100
AcDbArc
 50
176.4842465188
 51
193.6393088133
  0
ARC
  5
120
330
1F
100
AcDbEntity
  8
0
  6
Continuous
 62
     7
370
    25
100
AcDbCircle
 10
0.0
 20
0.0
 30
0.0
 40
20.99999999999953
100
AcDbArc
 50
111.6591411107
 51
113.3408588893
  0
ARC
  5
121
330
1F
100
AcDbEntity
  8
0
  6
Continuous
 62
     7
370
    25
100
AcDbCircle
 10
-13.050078426
 20
13.5242131676
 30
0.0
 40
8.00000000000039
100
AcDbArc
 50
31.3606911867
 51
48.5157534812
  0
ARC
  5
122
330
1F
100
AcDbEntity
  8
0
  6
Continuous
 62
     7
370
    25
100
AcDbCircle
 10
0.0
 20
0.0
 30
0.0
 40
18.74900000002447
100
AcDbArc
 50
106.6287514604
 51
109.3712485396
  0
ARC
  5
123
330
1F
100
AcDbEntity
  8
0
  6
Continuous
 62
     7
370
    25
100
AcDbCircle
 10
2.6084021757
 20
18.6119619282
 30
0.0
 40
8.000000000000213
100
AcDbArc
 50
167.4842465188
 51
184.6393088133
  0
ARC
  5
124
330
1F
100
AcDbEntity
  8
0
  6
Continuous
 62
     7
370
    25
100
AcDbCircle
 10
0.0
 20
0.0
 30
0.0
 40
20.99999999997874
100
AcDbArc
 50
102.6591411107
 51
104.3408588893
  0
ARC
  5
125
330
1F
100
AcDbEntity
  8
0
  6
Continuous
 62
     7
370
    25
100
AcDbCircle
 10
-10.7737572532
 20
15.3991896987
 30
0.0
 40
8.000000000000684
100
AcDbArc
 50
22.3606911867
 51
39.5157534812
  0
ARC
  5
126
330
1F
100
AcDbEntity
  8
0
  6
Continuous
 62
     7
370
    25
100
AcDbCircle
 10
0.0
 20
0.0
 30
0.0
 40
18.74900000001682
100
AcDbArc
 50
97.6287514604
 51
100.3712485396
  0
ARC
  5
127
330
1F
100
AcDbEntity
  8
0
  6
Continuous
 62
     7
370
    25
100
AcDbCircle
 10
5.4878407242
 20
17.9747737931
 30
0.0
 40
8.000000000000252
100
AcDbArc
 50
158.4842465188
 51
175.6393088133
  0
ARC
  5
128
330
1F
100
AcDbEntity
  8
0
  6
Continuous
 62
     7
370
    25
100
AcDbCircle
 10
0.0
 20
0.0
 30
0.0
 40
20.99999999997609
100
AcDbArc
 50
93.6591411107
 51
95.3408588893
  0
ARC
  5
129
330
1F
100
AcDbEntity
  8
0
  6
Continuous
 62
     7
370
    25
100
AcDbCircle
 10
-8.2321504208
 20
16.8949870724
 30
0.0
 40
8.000000000000442
100
AcDbArc
 50
13.3606911867
 51
30.5157534812
  0
ARC
  5
12A
330
1F
100
AcDbEntity
  8
0
  6
Continuous
 62
     7
370
    25
100
AcDbCircle
 10
0.0
 20
0.0
 30
0.0
 40
18.74900000002184
100
AcDbArc
 50
88.6287514604
 51
91.3712485396
  0
ARC
  5
12B
330
1F
100
AcDbEntity
  8
0
  6
Continuous
 62
     7
370
    25
100
AcDbCircle
 10
8.2321504208
 20
16.8949870724
 30
0.0
 40
8.000000000000286
100
AcDbArc
 50
149.4842465188
 51
166.6393088133
  0
ARC
  5
12C
330
1F
100
AcDbEntity
  8
0
  6
Continuous
 62
     7
370
    25
100
AcDbCircle
 10
0.0
 20
0.0
 30
0.0
 40
21.00000000000164
100
AcDbArc
 50
84.6591411107
 51
86.3408588893
  0
ARC
  5
12D
330
1F
100
AcDbEntity
  8
0
  6
Continuous
 62
     7
370
    25
100
AcDbCircle
 10
-5.4878407242
 20
17.9747737931
 30
0.0
 40
8.000000000000336
100
AcDbArc
 50
4.3606911867
 51
21.5157534812
  0
ARC
  5
12E
330
1F
100
AcDbEntity
  8
0
  6
Continuous
 62
     7
370
    25
100
AcDbCircle
 10
0.0
 20
0.0
 30
0.0
 40
18.74900000001528
100
AcDbArc
 50
79.6287514604
 51
82.3712485396
  0
ARC
  5
12F
330
1F
100
AcDbEntity
  8
0
  6
Continuous
 62
     7
370
    25
100
AcDbCircle
 10
10.7737572532
 20
15.3991896987
 30
0.0
 40
7.999999999999991
100
AcDbArc
 50
140.4842465188
 51
157.6393088133
  0
ARC
  5
130
330
1F
100
AcDbEntity
  8
0
  6
Continuous
 62
     7
370
    25
100
AcDbCircle
 10
0.0
 20
0.0
 30
0.0
 40
20.99999999997727
100
AcDbArc
 50
75.6591411107
 51
77.3408588893
  0
ARC
  5
131
330
1F
100
AcDbEntity
  8
0
  6
Continuous
 62
     7
370
    25
100
AcDbCircle
 10
-2.6084021758
 20
18.6119619282
 30
0.0
 40
8.000000000000302
100
AcDbArc
 50
355.3606911867
 51
12.5157534812
  0
ARC
  5
132
330
1F
100
AcDbEntity
  8
0
  6
Continuous
 62
     7
370
    25
100
AcDbCircle
 10
0.0
 20
0.0
 30
0.0
 40
18.74900000001116
100
AcDbArc
 50
70.6287514604
 51
73.3712485396
  0
ARC
  5
133
330
1F
100
AcDbEntity
  8
0
  6
Continuous
 62
     7
370
    25
100
AcDbCircle
 10
13.050078426
 20
13.5242131676
 30
0.0
 40
8.000000000000238
100
AcDbArc
 50
131.4842465188
 51
148.6393088133
  0
ARC
  5
134
330
1F
100
AcDbEntity
  8
0
  6
Continuous
 62
     7
370
    25
100
AcDbCircle
 10
0.0
 20
0.0
 30
0.0
 40
20.99999999999147
100
AcDbArc
 50
66.6591411107
 51
68.3408588893
  0
ARC
  5
135
330
1F
100
AcDbEntity
  8
0
  6
Continuous
 62
     7
370
    25
100
AcDbCircle
 10
0.335263891
 20
18.790861791
 30
0.0
 40
8.000000000000028
100
AcDbArc
 50
346.3606911867
 51
3.5157534812
  0
ARC
  5
136
330
1F
100
AcDbEntity
  8
0
  6
Continuous
 62
     7
370
    25
100
AcDbCircle
 10
0.0
 20
0.0
 30
0.0
 40
18.74900000001994
100
AcDbArc
 50
61.6287514604
 51
64.3712485396
  0
ARC
  5
137
330
1F
100
AcDbEntity
  8
0
  6
Continuous
 62
     7
370
    25
100
AcDbCircle
 10
15.0050633571
 20
11.3162256241
 30
0.0
 40
8.000000000000488
100
AcDbArc
 50
122.4842465188
 51
139.6393088133
  0
ARC
  5
138
330
1F
100
AcDbEntity
  8
0
  6
Continuous
 62
     7
370
    25
100
AcDbCircle
 10
0.0
 20
0.0
 30
0.0
 40
21.00000000000026
100
AcDbArc
 50
57.6591411107
 51
59.3408588893
  0
ARC
  5
139
330
1F
100
AcDbEntity
  8
0
  6
Continuous
 62
     7
370
    25
100
AcDbCircle
 10
3.2706746481
 20
18.5070682733
 30
0.0
 40
8.000000000000526
100
AcDbArc
 50
337.3606911867
 51
354.5157534812
  0
ARC
  5
13A
330
1F
100
AcDbEntity
  8
0
  6
Continuous
 62
     7
370
    25
100
AcDbCircle
 10
0.0
 20
0.0
 30
0.0
 40
18.74900000001158
100
AcDbArc
 50
52.6287514604
 51
55.3712485396
  0
ARC
  5
13B
330
1F
100
AcDbEntity
  8
0
  6
Continuous
 62
     7
370
    25
100
AcDbCircle
 10
16.5905738295
 20
8.8295950493
 30
0.0
 40
8.0000000000003
100
AcDbArc
 50
113.4842465188
 51
130.6393088133
  0
ARC
  5
13C
330
1F
100
AcDbEntity
  8
0
  6
Continuous
 62
     7
370
    25
100
AcDbCircle
 10
0.0
 20
0.0
 30
0.0
 40
21.00000000002921
100
AcDbArc
 50
48.6591411107
 51
50.3408588893
  0
ARC
  5
13D
330
1F
100
AcDbEntity
  8
0
  6
Continuous
 62
     7
370
    25
100
AcDbCircle
 10
6.1255505406
 20
17.7675693132
 30
0.0
 40
8.000000000000231
100
AcDbArc
 50
328.3606911867
 51
345.5157534812
  0
ARC
  5
13E
330
1F
100
AcDbEntity
  8
0
  6
Continuous
 62
     7
370
    25
100
AcDbCircle
 10
0.0
 20
0.0
 30
0.0
 40
18.74900000001953
100
AcDbArc
 50
43.6287514604
 51
46.3712485396
  0
ARC
  5
13F
330
1F
100
AcDbEntity
  8
0
  6
Continuous
 62
     7
370
    25
100
AcDbCircle
 10
17.7675693132
 20
6.1255505406
 30
0.0
 40
8.000000000000178
100
AcDbArc
 50
104.4842465188
 51
121.6393088133
  0
ARC
  5
140
330
1F
100
AcDbEntity
  8
0
  6
Continuous
 62
     7
370
    25
100
AcDbCircle
 10
0.0
 20
0.0
 30
0.0
 40
21.00000000001336
100
AcDbArc
 50
39.6591411107
 51
41.3408588893
  0
ARC
  5
141
330
1F
100
AcDbEntity
  8
0
  6
Continuous
 62
     7
370
    25
100
AcDbCircle
 10
8.8295950493
 20
16.5905738295
 30
0.0
 40
8.000000000000233
100
AcDbArc
 50
319.3606911867
 51
336.5157534812
  0
ARC
  5
142
330
1F
100
AcDbEntity
  8
0
  6
Continuous
 62
     7
370
    25
100
AcDbCircle
 10
0.0
 20
0.0
 30
0.0
 40
18.74900000000909
100
AcDbArc
 50
34.6287514604
 51
37.3712485396
  0
ARC
  5
143
330
1F
100
AcDbEntity
  8
0
  6
Continuous
 62
     7
370
    25
100
AcDbCircle
 10
18.5070682733
 20
3.2706746481
 30
0.0
 40
8.00000000000018
100
AcDbArc
 50
95.4842465188
 51
112.6393088133
  0
ARC
  5
144
330
1F
100
AcDbEntity
  8
0
  6
Continuous
 62
     7
370
    25
100
AcDbCircle
 10
0.0
 20
0.0
 30
0.0
 40
21.00000000001828
100
AcDbArc
 50
30.6591411107
 51
32.3408588893
  0
ARC
  5
145
330
1F
100
AcDbEntity
  8
0
  6
Continuous
 62
     7
370
    25
100
AcDbCircle
 10
11.3162256241
 20
15.0050633571
 30
0.0
 40
8.000000000000194
100
AcDbArc
 50
310.3606911867
 51
327.5157534812
  0
ARC
  5
146
330
1F
100
AcDbEntity
  8
0
  6
Continuous
 62
     7
370
    25
100
AcDbCircle
 10
0.0
 20
0.0
 30
0.0
 40
18.74900000001527
100
AcDbArc
 50
25.6287514604
 51
28.3712485396
  0
ARC
  5
147
330
1F
100
AcDbEntity
  8
0
  6
Continuous
 62
     7
370
    25
100
AcDbCircle
 10
18.790861791
 20
0.335263891
 30
0.0
 40
8.000000000000112
100
AcDbArc
 50
86.4842465188
 51
103.6393088133
  0
ARC
  5
148
330
1F
100
AcDbEntity
  8
0
  6
Continuous
 62
     7
370
    25
100
AcDbCircle
 10
0.0
 20
0.0
 30
0.0
 40
20.99999999998897
100
AcDbArc
 50
21.6591411107
 51
23.3408588893
  0
ARC
  5
149
330
1F
100
AcDbEntity
  8
0
  6
Continuous
 62
     7
370
    25
100
AcDbCircle
 10
13.5242131676
 20
13.050078426
 30
0.0
 40
8.000000000000377
100
AcDbArc
 50
301.3606911867
 51
318.5157534812
  0
ARC
  5
14A
330
1F
100
AcDbEntity
  8
0
  6
Continuous
 62
     7
370
    25
100
AcDbCircle
 10
0.0
 20
0.0
 30
0.0
 40
18.74900000000941
100
AcDbArc
 50
16.6287514604
 51
19.3712485396
  0
ARC
  5
14B
330
1F
100
AcDbEntity
  8
0
  6
Continuous
 62
     7
370
    25
100
AcDbCircle
 10
18.6119619282
 20
-2.6084021757
 30
0.0
 40
8.000000000000139
100
AcDbArc
 50
77.4842465188
 51
94.6393088133
  0
ARC
  5
14C
330
1F
100
AcDbEntity
  8
0
  6
Continuous
 62
     7
370
    25
100
AcDbCircle
 10
0.0
 20
0.0
 30
0.0
 40
20.99999999996346
100
AcDbArc
 50
12.6591411107
 51
14.3408588893
  0
ARC
  5
14D
330
1F
100
AcDbEntity
  8
0
  6
Continuous
 62
     7
370
    25
100
AcDbCircle
 10
15.3991896987
 20
10.7737572532
 30
0.0
 40
8.00000000000028
100
AcDbArc
 50
292.3606911867
 51
309.5157534812
  0
ARC
  5
14E
330
1F
100
AcDbEntity
  8
0
  6
Continuous
 62
     7
370
    25
100
AcDbCircle
 10
0.0
 20
0.0
 30
0.0
 40
18.74900000001549
100
AcDbArc
 50
7.6287514604
 51
10.3712485396
  0
ARC
  5
14F
330
1F
100
AcDbEntity
  8
0
  6
Continuous
 62
     7
370
    25
100
AcDbCircle
 10
17.9747737931
 20
-5.4878407242
 30
0.0
 40
8.000000000000108
100
AcDbArc
 50
68.4842465188
 51
85.6393088133
  0
ARC
  5
150
330
1F
100
AcDbEntity
  8
0
  6
Continuous
 62
     7
370
    25
100
AcDbCircle
 10
0.0
 20
0.0
 30
0.0
 40
20.99999999999666
100
AcDbArc
 50
3.6591411107
 51
5.3408588893
  0
ARC
  5
151
330
1F
100
AcDbEntity
  8
0
  6
Continuous
 62
     7
370
    25
100
AcDbCircle
 10
16.8949870724
 20
8.2321504208
 30
0.0
 40
8.000000000000373
100
AcDbArc
 50
283.3606911867
 51
300.5157534812
  0
ARC
  5
152
330
1F
100
AcDbEntity
  8
0
  6
Continuous
 62
     7
370
    25
100
AcDbCircle
 10
0.0
 20
0.0
 30
0.0
 40
18.74900000001219
100
AcDbArc
 50
358.6287514604
 51
1.3712485396
  0
ARC
  5
153
330
1F
100
AcDbEntity
  8
0
  6
Continuous
 62
     7
370
    25
100
AcDbCircle
 10
16.8949870724
 20
-8.2321504208
 30
0.0
 40
8.000000000000364
100
AcDbArc
 50
59.4842465188
 51
76.6393088133
  0
ARC
  5
154
330
1F
100
AcDbEntity
  8
0
  6
Continuous
 62
     7
370
    25
100
AcDbCircle
 10
0.0
 20
0.0
 30
0.0
 40
20.99999999997594
100
AcDbArc
 50
354.6591411107
 51
356.3408588893
  0
ARC
  5
155
330
1F
100
AcDbEntity
  8
0
  6
Continuous
 62
     7
370
    25
100
AcDbCircle
 10
17.9747737931
 20
5.4878407242
 30
0.0
 40
8.000000000000266
100
AcDbArc
 50
274.3606911867
 51
291.5157534812
  0
ARC
  5
156
330
1F
100
AcDbEntity
  8
0
  6
Continuous
 62
     7
370
    25
100
AcDbCircle
 10
0.0
 20
0.0
 30
0.0
 40
18.74900000001681
100
AcDbArc
 50
349.6287514604
 51
352.3712485396
  0
ARC
  5
157
330
1F
100
AcDbEntity
  8
0
  6
Continuous
 62
     7
370
    25
100
AcDbCircle
 10
15.3991896987
 20
-10.7737572532
 30
0.0
 40
8.000000000000302
100
AcDbArc
 50
50.4842465188
 51
67.6393088133
  0
ARC
  5
158
330
1F
100
AcDbEntity
  8
0
  6
Continuous
 62
     7
370
    25
100
AcDbCircle
 10
0.0
 20
0.0
 30
0.0
 40
20.99999999995871
100
AcDbArc
 50
345.6591411107
 51
347.3408588893
  0
ARC
  5
159
330
1F
100
AcDbEntity
  8
0
  6
Continuous
 62
     7
370
    25
100
AcDbCircle
 10
18.6119619282
 20
2.6084021758
 30
0.0
 40
8.000000000000444
100
AcDbArc
 50
265.3606911867
 51
282.5157534812
  0
ARC
  5
15A
330
1F
100
AcDbEntity
  8
0
  6
Continuous
 62
     7
370
    25
100
AcDbCircle
 10
0.0
 20
0.0
 30
0.0
 40
18.74900000000752
100
AcDbArc
 50
340.6287514604
 51
343.3712485396
  0
ARC
  5
15B
330
1F
100
AcDbEntity
  8
0
  6
Continuous
 62
     7
370
    25
100
AcDbCircle
 10
13.5242131676
 20
-13.050078426
 30
0.0
 40
8.00000000000033
100
AcDbArc
 50
41.4842465188
 51
58.6393088133
  0
ARC
  5
15C
330
1F
100
AcDbEntity
  8
0
  6
Continuous
 62
     7
370
    25
100
AcDbCircle
 10
0.0
 20
0.0
 30
0.0
 40
20.99999999997524
100
AcDbArc
 50
336.6591411107
 51
338.3408588893
  0
ARC
  5
15D
330
1F
100
AcDbEntity
  8
0
  6
Continuous
 62
     7
370
    25
100
AcDbCircle
 10
18.790861791
 20
-0.335263891
 30
0.0
 40
8.00000000000038
100
AcDbArc
 50
256.3606911867
 51
273.5157534812
  0
ARC
  5
15E
330
1F
100
AcDbEntity
  8
0
  6
Continuous
 62
     7
370
    25
100
AcDbCircle
 10
0.0
 20
0.0
 30
0.0
 40
18.74900000001563
100
AcDbArc
 50
331.6287514604
 51
334.3712485396
  0
ARC
  5
15F
330
1F
100
AcDbEntity
  8
0
  6
Continuous
 62
     7
370
    25
100
AcDbCircle
 10
11.3162256241
 20
-15.0050633571
 30
0.0
 40
8.000000000000487
100
AcDbArc
 50
32.4842465188
 51
49.6393088133
  0
ARC
  5
160
330
1F
100
AcDbEntity
  8
0
  6
Continuous
 62
     7
370
    25
100
AcDbCircle
 10
0.0
 20
0.0
 30
0.0
 40
20.99999999998386
100
AcDbArc
 50
327.6591411107
 51
329.3408588893
  0
ARC
  5
161
330
1F
100
AcDbEntity
  8
0
  6
Continuous
 62
     7
370
    25
100
AcDbCircle
 10
18.5070682733
 20
-3.2706746481
 30
0.0
 40
8.000000000000567
100
AcDbArc
 50
247.3606911867
 51
264.5157534812
  0
ARC
  5
162
330
1F
100
AcDbEntity
  8
0
  6
Continuous
 62
     7
370
    25
100
AcDbCircle
 10
0.0
 20
0.0
 30
0.0
 40
18.7490000000149
100
AcDbArc
 50
322.6287514604
 51
325.3712485396
  0
ARC
  5
163
330
1F
100
AcDbEntity
  8
0
  6
Continuous
 62
     7
370
    25
100
AcDbCircle
 10
8.8295950493
 20
-16.5905738295
 30
0.0
 40
8.000000000000078
100
AcDbArc
 50
23.4842465188
 51
40.6393088133
  0
ARC
  5
164
330
1F
100
AcDbEntity
  8
0
  6
Continuous
 62
     7
370
    25
100
AcDbCircle
 10
0.0
 20
0.0
 30
0.0
 40
20.99999999997888
100
AcDbArc
 50
318.6591411107
 51
320.3408588893
  0
ARC
  5
165
330
1F
100
AcDbEntity
  8
0
  6
Continuous
 62
     7
370
    25
100
AcDbCircle
 10
17.7675693132
 20
-6.1255505406
 30
0.0
 40
8.000000000000288
100
AcDbArc
 50
238.3606911867
 51
255.5157534812
  0
ARC
  5
166
330
1F
100
AcDbEntity
  8
0
  6
Continuous
 62
     7
370
    25
100
AcDbCircle
 10
0.0
 20
0.0
 30
0.0
 40
18.74900000000948
100
AcDbArc
 50
313.6287514604
 51
316.3712485396
  0
ARC
  5
167
330
1F
100
AcDbEntity
  8
0
  6
Continuous
 62
     7
370
    25
100
AcDbCircle
 10
6.1255505406
 20
-17.7675693132
 30
0.0
 40
8.000000000000366
100
AcDbArc
 50
14.4842465188
 51
31.6393088133
  0
ARC
  5
168
330
1F
100
AcDbEntity
  8
0
  6
Continuous
 62
     7
370
    25
100
AcDbCircle
 10
0.0
 20
0.0
 30
0.0
 40
21.00000000001032
100
AcDbArc
 50
309.6591411107
 51
311.3408588893
  0
ARC
  5
169
330
1F
100
AcDbEntity
  8
0
  6
Continuous
 62
     7
370
    25
100
AcDbCircle
 10
16.5905738295
 20
-8.8295950493
 30
0.0
 40
8.000000000000458
100
AcDbArc
 50
229.3606911867
 51
246.5157534812
  0
ARC
  5
16A
330
1F
100
AcDbEntity
  8
0
  6
Continuous
 62
     7
370
    25
100
AcDbCircle
 10
0.0
 20
0.0
 30
0.0
 40
18.74900000001123
100
AcDbArc
 50
304.6287514604
 51
307.3712485396
  0
ARC
  5
16B
330
1F
100
AcDbEntity
  8
0
  6
Continuous
 62
     7
370
    25
100
AcDbCircle
 10
3.2706746481
 20
-18.5070682733
 30
0.0
 40
8.000000000000206
100
AcDbArc
 50
5.4842465188
 51
22.6393088133
  0
ARC
  5
16C
330
1F
100
AcDbEntity
  8
0
  6
Continuous
 62
     7
370
    25
100
AcDbCircle
 10
0.0
 20
0.0
 30
0.0
 40
21.00000000000664
100
AcDbArc
 50
300.6591411107
 51
302.3408588893
  0
ARC
  5
16D
330
1F
100
AcDbEntity
  8
0
  6
Continuous
 62
     7
370
    25
100
AcDbCircle
 10
15.0050633571
 20
-11.3162256241
 30
0.0
 40
8.000000000000256
100
AcDbArc
 50
220.3606911867
 51
237.5157534812
  0
ARC
  5
16E
330
1F
100
AcDbEntity
  8
0
  6
Continuous
 62
     7
370
    25
100
AcDbCircle
 10
0.0
 20
0.0
 30
0.0
 40
18.74900000001362
100
AcDbArc
 50
295.6287514604
 51
298.3712485396
  0
ARC
  5
16F
330
1F
100
AcDbEntity
  8
0
  6
Continuous
 62
     7
370
    25
100
AcDbCircle
 10
0.335263891
 20
-18.790861791
 30
0.0
 40
8.000000000000195
100
AcDbArc
 50
356.4842465188
 51
13.6393088133
  0
ARC
  5
170
330
1F
100
AcDbEntity
  8
0
  6
Continuous
 62
     7
370
    25
100
AcDbCircle
 10
0.0
 20
0.0
 30
0.0
 40
20.99999999998101
100
AcDbArc
 50
291.6591411107
 51
293.3408588893
  0
ARC
  5
171
330
1F
100
AcDbEntity
  8
0
  6
Continuous
 62
     7
370
    25
100
AcDbCircle
 10
13.050078426
 20
-13.5242131676
 30
0.0
 40
8.000000000000318
100
AcDbArc
 50
211.3606911867
 51
228.5157534812
  0
ARC
  5
172
330
1F
100
AcDbEntity
  8
0
  6
Continuous
 62
     7
370
    25
100
AcDbCircle
 10
0.0
 20
0.0
 30
0.0
 40
18.74900000001483
100
AcDbArc
 50
286.6287514604
 51
289.3712485396
  0
ARC
  5
173
330
1F
100
AcDbEntity
  8
0
  6
Continuous
 62
     7
370
    25
100
AcDbCircle
 10
-2.6084021757
 20
-18.6119619282
 30
0.0
 40
8.00000000000042
100
AcDbArc
 50
347.4842465188
 51
4.6393088133
  0
ARC
  5
174
330
1F
100
AcDbEntity
  8
0
  6
Continuous
 62
     7
370
    25
100
AcDbCircle
 10
0.0
 20
0.0
 30
0.0
 40
20.99999999997239
100
AcDbArc
 50
282.6591411107
 51
284.3408588893
  0
ARC
  5
175
330
1F
100
AcDbEntity
  8
0
  6
Continuous
 62
     7
370
    25
100
AcDbCircle
 10
10.7737572532
 20
-15.3991896987
 30
0.0
 40
8.000000000000233
100
AcDbArc
 50
202.3606911867
 51
219.5157534812
  0
ARC
  5
176
330
1F
100
AcDbEntity
  8
0
  6
Continuous
 62
     7
370
    25
100
AcDbCircle
 10
0.0
 20
0.0
 30
0.0
 40
18.74900000000581
100
AcDbArc
 50
277.6287514604
 51
280.3712485396
  0
ARC
  5
177
330
1F
100
AcDbEntity
  8
0
  6
Continuous
 62
     7
370
    25
100
AcDbCircle
 10
-5.4878407242
 20
-17.9747737931
 30
0.0
 40
8.000000000000318
100
AcDbArc
 50
338.4842465188
 51
355.6393088133
  0
ARC
  5
178
330
1F
100
AcDbEntity
  8
0
  6
Continuous
 62
     7
370
    25
100
AcDbCircle
 10
0.0
 20
0.0
 30
0.0
 40
21.00000000000174
100
AcDbArc
 50
273.6591411107
 51
275.3408588893
  0
ARC
  5
179
330
1F
100
AcDbEntity
  8
0
  6
Continuous
 62
     7
370
    25
100
AcDbCircle
 10
8.2321504208
 20
-16.8949870724
 30
0.0
 40
8.0000000000003
100
AcDbArc
 50
193.3606911867
 51
210.5157534812
  0
ARC
  5
17A
330
1F
100
AcDbEntity
  8
0
  6
Continuous
 62
     7
370
    25
100
AcDbCircle
 10
0.0
 20
0.0
 30
0.0
 40
18.74900000001632
100
AcDbArc
 50
268.6287514604
 51
271.3712485396
  0
ARC
  5
17B
330
1F
100
AcDbEntity
  8
0
  6
Continuous
 62
     7
370
    25
100
AcDbCircle
 10
-8.2321504208
 20
-16.8949870724
 30
0.0
 40
8.000000000000242
100
AcDbArc
 50
329.4842465188
 51
346.6393088133
  0
ARC
  5
17C
330
1F
100
AcDbEntity
  8
0
  6
Continuous
 62
     7
370
    25
100
AcDbCircle
 10
0.0
 20
0.0
 30
0.0
 40
20.99999999998713
100
AcDbArc
 50
264.6591411107
 51
266.3408588893
  0
ARC
  5
17D
330
1F
100
AcDbEntity
  8
0
  6
Continuous
 62
     7
370
    25
100
AcDbCircle
 10
5.4878407242
 20
-17.9747737931
 30
0.0
 40
8.000000000000334
100
AcDbArc
 50
184.3606911867
 51
201.5157534812
  0
ARC
  5
17E
330
1F
100
AcDbEntity
  8
0
  6
Continuous
 62
     7
370
    25
100
AcDbCircle
 10
0.0
 20
0.0
 30
0.0
 40
18.74900000002611
100
AcDbArc
 50
259.6287514604
 51
262.3712485396
  0
ARC
  5
17F
330
1F
100
AcDbEntity
  8
0
  6
Continuous
 62
     7
370
    25
100
AcDbCircle
 10
-10.7737572532
 20
-15.3991896987
 30
0.0
 40
8.000000000000323
100
AcDbArc
 50
320.4842465188
 51
337.6393088133
  0
ARC
  5
180
330
1F
100
AcDbEntity
  8
0
  6
Continuous
 62
     7
370
    25
100
AcDbCircle
 10
0.0
 20
0.0
 30
0.0
 40
20.99999999997807
100
AcDbArc
 50
255.6591411107
 51
257.3408588893
  0
ARC
  5
181
330
1F
100
AcDbEntity
  8
0
  6
Continuous
 62
     7
370
    25
100
AcDbCircle
 10
2.6084021757
 20
-18.6119619282
 30
0.0
 40
8.00000000000028
100
AcDbArc
 50
175.3606911867
 51
192.5157534812
  0
ARC
  5
182
330
1F
100
AcDbEntity
  8
0
  6
Continuous
 62
     7
370
    25
100
AcDbCircle
 10
0.0
 20
0.0
 30
0.0
 40
18.74900000001955
100
AcDbArc
 50
250.6287514604
 51
253.3712485396
  0
ARC
  5
183
330
1F
100
AcDbEntity
  8
0
  6
Continuous
 62
     7
370
    25
100
AcDbCircle
 10
-13.050078426
 20
-13.5242131676
 30
0.0
 40
8.000000000000204
100
AcDbArc
 50
311.4842465188
 51
328.6393088133
  0
ARC
  5
184
330
1F
100
AcDbEntity
  8
0
  6
Continuous
 62
     7
370
    25
100
AcDbCircle
 10
0.0
 20
0.0
 30
0.0
 40
21.00000000000153
100
AcDbArc
 50
246.6591411107
 51
248.3408588893
  0
ARC
  5
185
330
1F
100
AcDbEntity
  8
0
  6
Continuous
 62
     7
370
    25
100
AcDbCircle
 10
-0.335263891
 20
-18.790861791
 30
0.0
 40
8.000000000000497
100
AcDbArc
 50
166.3606911867
 51
183.5157534812
  0
ARC
  5
186
330
1F
100
AcDbEntity
  8
0
  6
Continuous
 62
     7
370
    25
100
AcDbCircle
 10
0.0
 20
0.0
 30
0.0
 40
18.74900000000395
100
AcDbArc
 50
241.6287514604
 51
244.3712485396
  0
ARC
  5
187
330
1F
100
AcDbEntity
  8
0
  6
Continuous
 62
     7
370
    25
100
AcDbCircle
 10
-15.0050633571
 20
-11.3162256241
 30
0.0
 40
8.000000000000055
100
AcDbArc
 50
302.4842465188
 51
319.6393088133
  0
ARC
  5
188
330
1F
100
AcDbEntity
  8
0
  6
Continuous
 62
     7
370
    25
100
AcDbCircle
 10
0.0
 20
0.0
 30
0.0
 40
21.00000000002904
100
AcDbArc
 50
237.6591411107
 51
239.3408588893
  0
ARC
  5
189
330
1F
100
AcDbEntity
  8
0
  6
Continuous
 62
     7
370
    25
100
AcDbCircle
 10
-3.2706746481
 20
-18.5070682733
 30
0.0
 40
8.00000000000047
100
AcDbArc
 50
157.3606911867
 51
174.5157534812
  0
ARC
  5
18A
330
1F
100
AcDbEntity
  8
0
  6
Continuous
 62
     7
370
    25
100
AcDbCircle
 10
0.0
 20
0.0
 30
0.0
 40
18.74900000001334
100
AcDbArc
 50
232.6287514604
 51
235.3712485396
  0
ARC
  5
18B
330
1F
100
AcDbEntity
  8
0
  6
Continuous
 62
     7
370
    25
100
AcDbCircle
 10
-16.5905738295
 20
-8.8295950493
 30
0.0
 40
8.000000000000393
100
AcDbArc
 50
293.4842465188
 51
310.6393088133
  0
ARC
  5
18C
330
1F
100
AcDbEntity
  8
0
  6
Continuous
 62
     7
370
    25
100
AcDbCircle
 10
0.0
 20
0.0
 30
0.0
 40
20.99999999999802
100
AcDbArc
 50
228.6591411107
 51
230.3408588893
  0
ARC
  5
18D
330
1F
100
AcDbEntity
  8
0
  6
Continuous
 62
     7
370
    25
100
AcDbCircle
 10
-6.1255505406
 20
-17.7675693132
 30
0.0
 40
8.00000000000043
100
AcDbArc
 50
148.3606911867
 51
165.5157534812
  0
ARC
  5
18E
330
1F
100
AcDbEntity
  8
0
  6
Continuous
 62
     7
370
    25
100
AcDbCircle
 10
0.0
 20
0.0
 30
0.0
 40
18.74900000001819
100
AcDbArc
 50
223.6287514604
 51
226.3712485396
  0
ARC
  5
18F
330
1F
100
AcDbEntity
  8
0
  6
Continuous
 62
     7
370
    25
100
AcDbCircle
 10
-17.7675693132
 20
-6.1255505406
 30
0.0
 40
8.000000000000197
100
AcDbArc
 50
284.4842465188
 51
301.6393088133
  0
ARC
  5
190
330
1F
100
AcDbEntity
  8
0
  6
Continuous
 62
     7
370
    25
100
AcDbCircle
 10
0.0
 20
0.0
 30
0.0
 40
21.00000000000846
100
AcDbArc
 50
219.6591411107
 51
221.3408588893
  0
ARC
  5
191
330
1F
100
AcDbEntity
  8
0
  6
Continuous
 62
     7
370
    25
100
AcDbCircle
 10
-8.8295950493
 20
-16.5905738295
 30
0.0
 40
8.000000000000421
100
AcDbArc
 50
139.3606911867
 51
156.5157534812
  0
ARC
  5
192
330
1F
100
AcDbEntity
  8
0
  6
Continuous
 62
     7
370
    25
100
AcDbCircle
 10
0.0
 20
0.0
 30
0.0
 40
18.7490000000153
100
AcDbArc
 50
214.6287514604
 51
217.3712485396
  0
ARC
  5
193
330
1F
100
AcDbEntity
  8
0
  6
Continuous
 62
     7
370
    25
100
AcDbCircle
 10
-18.5070682733
 20
-3.2706746481
 30
0.0
 40
8.000000000000156
100
AcDbArc
 50
275.4842465188
 51
292.6393088133
  0
ARC
  5
194
330
1F
100
AcDbEntity
  8
0
  6
Continuous
 62
     7
370
    25
100
AcDbCircle
 10
0.0
 20
0.0
 30
0.0
 40
20.9999999999967
100
AcDbArc
 50
210.6591411107
 51
212.3408588893
  0
ARC
  5
195
330
1F
100
AcDbEntity
  8
0
  6
Continuous
 62
     7
370
    25
100
AcDbCircle
 10
-11.3162256241
 20
-15.0050633571
 30
0.0
 40
8.000000000000213
100
AcDbArc
 50
130.3606911867
 51
147.5157534812
  0
ARC
  5
196
330
1F
100
AcDbEntity
  8
0
  6
Continuous
 62
     7
370
    25
100
AcDbCircle
 10
0.0
 20
0.0
 30
0.0
 40
18.74900000002615
100
AcDbArc
 50
205.6287514604
 51
208.3712485396
  0
ARC
  5
197
330
1F
100
AcDbEntity
  8
0
  6
Continuous
 62
     7
370
    25
100
AcDbCircle
 10
-18.790861791
 20
-0.335263891
 30
0.0
 40
8.000000000000316
100
AcDbArc
 50
266.4842465188
 51
283.6393088133
  0
ARC
  5
198
330
1F
100
AcDbEntity
  8
0
  6
Continuous
 62
     7
370
    25
100
AcDbCircle
 10
0.0
 20
0.0
 30
0.0
 40
20.99999999998865
100
AcDbArc
 50
201.6591411107
 51
203.3408588893
  0
ARC
  5
199
330
1F
100
AcDbEntity
  8
0
  6
Continuous
 62
     7
370
    25
100
AcDbCircle
 10
-13.5242131676
 20
-13.050078426
 30
0.0
 40
8.000000000000606
100
AcDbArc
 50
121.3606911867
 51
138.5157534812
  0
ARC
  5
19A
330
1F
100
AcDbEntity
  8
0
  6
Continuous
 62
     7
370
    25
100
AcDbCircle
 10
0.0
 20
0.0
 30
0.0
 40
18.74900000000488
100
AcDbArc
 50
196.6287514604
 51
199.3712485396
  0
ARC
  5
19B
330
1F
100
AcDbEntity
  8
0
  6
Continuous
 62
     7
370
    25
100
AcDbCircle
 10
-18.6119619282
 20
2.6084021757
 30
0.0
 40
8.000000000000103
100
AcDbArc
 50
257.4842465188
 51
274.6393088133
  0
ARC
  5
19C
330
1F
100
AcDbEntity
  8
0
  6
Continuous
 62
     7
370
    25
100
AcDbCircle
 10
0.0
 20
0.0
 30
0.0
 40
20.99999999996801
100
AcDbArc
 50
192.6591411107
 51
194.3408588893
  0
ARC
  5
19D
330
1F
100
AcDbEntity
  8
0
  6
Continuous
 62
     7
370
    25
100
AcDbCircle
 10
-15.3991896987
 20
-10.7737572532
 30
0.0
 40
8.000000000000302
100
AcDbArc
 50
112.3606911867
 51
129.5157534812
  0
ARC
  5
19E
330
1F
100
AcDbEntity
  8
0
  6
Continuous
 62
     7
370
    25
100
AcDbCircle
 10
0.0
 20
0.0
 30
0.0
 40
18.7490000000155
100
AcDbArc
 50
187.6287514604
 51
190.3712485396
  0
ARC
  5
19F
330
1F
100
AcDbEntity
  8
0
  6
Continuous
 62
     7
370
    25
100
AcDbCircle
 10
-17.9747737931
 20
5.4878407242
 30
0.0
 40
8.000000000000444
100
AcDbArc
 50
248.4842465188
 51
265.6393088133
  0
ARC
  5
1A0
330
1F
100
AcDbEntity
  8
0
  6
Continuous
 62
     7
370
    25
100
AcDbCircle
 10
0.0
 20
0.0
 30
0.0
 40
21.00000000000208
100
AcDbArc
 50
183.6591411107
 51
185.3408588893
  0
ARC
  5
1A1
330
1F
100
AcDbEntity
  8
0
  6
Continuous
 62
     7
370
    25
100
AcDbCircle
 10
-16.8949870724
 20
-8.2321504208
 30
0.0
 40
8.000000000000368
100
AcDbArc
 50
103.3606911867
 51
120.5157534812
  0
ARC
  5
1A2
330
1F
100
AcDbEntity
  8
0
  6
Continuous
 62
     7
370
    25
100
AcDbCircle
 10
0.0
 20
0.0
 30
0.0
 40
18.74900000001219
100
AcDbArc
 50
178.6287514604
 51
181.3712485396
  0
ARC
  5
1A3
330
1F
100
AcDbEntity
  8
0
  6
Continuous
 62
     7
370
    25
100
AcDbCircle
 10
-16.8949870724
 20
8.2321504208
 30
0.0
 40
8.000000000000277
100
AcDbArc
 50
239.4842465188
 51
256.6393088133
  0
CIRCLE
  5
244
330
1B
100
AcDbEntity
 67
     1
  8
0
  6
Continuous
 62
     7
370
    25
100
AcDbCircle
 10
0.0
 20
0.0
 30
0.0
 40
10.00000000000001
  0
ARC
  5
245
330
1B
100
AcDbEntity
 67
     1
  8
0
  6
Continuous
 62
     7
370
    25
100
AcDbCircle
 10
0.0
 20
0.0
 30
0.0
 40
21.00000000000154
100
AcDbArc
 50
174.6591411107
 51
176.3408588893
  0
ARC
  5
246
330
1B
100
AcDbEntity
 67
     1
  8
0
  6
Continuous
 62
     7
370
    25
100
AcDbCircle
 10
-17.9747737931
 20
-5.4878407242
 30
0.0
 40
8.000000000000439
100
AcDbArc
 50
94.3606911867
 51
111.5157534812
  0
ARC
  5
247
330
1B
100
AcDbEntity
 67
     1
  8
0
  6
Continuous
 62
     7
370
    25
100
AcDbCircle
 10
0.0
 20
0.0
 30
0.0
 40
18.74900000001524
100
AcDbArc
 50
169.6287514604
 51
172.3712485396
  0
ARC
  5
248
330
1B
100
AcDbEntity
 67
     1
  8
0
  6
Continuous
 62
     7
370
    25
100
AcDbCircle
 10
-15.3991896987
 20
10.7737572532
 30
0.0
 40
8.00000000000026
100
AcDbArc
 50
230.4842465188
 51
247.6393088133
  0
ARC
  5
249
330
1B
100
AcDbEntity
 67
     1
  8
0
  6
Continuous
 62
     7
370
    25
100
AcDbCircle
 10
0.0
 20
0.0
 30
0.0
 40
21.00000000001347
100
AcDbArc
 50
165.6591411107
 51
167.3408588893
  0
ARC
  5
24A
330
1B
100
AcDbEntity
 67
     1
  8
0
  6
Continuous
 62
     7
370
    25
100
AcDbCircle
 10
-18.6119619282
 20
-2.6084021758
 30
0.0
 40
8.000000000000417
100
AcDbArc
 50
85.3606911867
 51
102.5157534812
  0
ARC
  5
24B
330
1B
100
AcDbEntity
 67
     1
  8
0
  6
Continuous
 62
     7
370
    25
100
AcDbCircle
 10
0.0
 20
0.0
 30
0.0
 40
18.74900000003006
100
AcDbArc
 50
160.6287514604
 51
163.3712485396
  0
ARC
  5
24C
330
1B
100
AcDbEntity
 67
     1
  8
0
  6
Continuous
 62
     7
370
    25
100
AcDbCircle
 10
-13.5242131676
 20
13.050078426
 30
0.0
 40
8.000000000000078
100
AcDbArc
 50
221.4842465188
 51
238.6393088133
  0
ARC
  5
24D
330
1B
100
AcDbEntity
 67
     1
  8
0
  6
Continuous
 62
     7
370
    25
100
AcDbCircle
 10
0.0
 20
0.0
 30
0.0
 40
20.99999999998937
100
AcDbArc
 50
156.6591411107
 51
158.3408588893
  0
ARC
  5
24E
330
1B
100
AcDbEntity
 67
     1
  8
0
  6
Continuous
 62
     7
370
    25
100
AcDbCircle
 10
-18.790861791
 20
0.335263891
 30
0.0
 40
8.000000000000451
100
AcDbArc
 50
76.3606911867
 51
93.5157534812
  0
ARC
  5
24F
330
1B
100
AcDbEntity
 67
     1
  8
0
  6
Continuous
 62
     7
370
    25
100
AcDbCircle
 10
0.0
 20
0.0
 30
0.0
 40
18.74900000000889
100
AcDbArc
 50
151.6287514604
 51
154.3712485396
  0
ARC
  5
250
330
1B
100
AcDbEntity
 67
     1
  8
0
  6
Continuous
 62
     7
370
    25
100
AcDbCircle
 10
-11.3162256241
 20
15.0050633571
 30
0.0
 40
8.00000000000056
100
AcDbArc
 50
212.4842465188
 51
229.6393088133
  0
ARC
  5
251
330
1B
100
AcDbEntity
 67
     1
  8
0
  6
Continuous
 62
     7
370
    25
100
AcDbCircle
 10
0.0
 20
0.0
 30
0.0
 40
20.99999999999774
100
AcDbArc
 50
147.6591411107
 51
149.3408588893
  0
ARC
  5
252
330
1B
100
AcDbEntity
 67
     1
  8
0
  6
Continuous
 62
     7
370
    25
100
AcDbCircle
 10
-18.5070682733
 20
3.2706746481
 30
0.0
 40
8.000000000000155
100
AcDbArc
 50
67.3606911867
 51
84.5157534812
  0
ARC
  5
253
330
1B
100
AcDbEntity
 67
     1
  8
0
  6
Continuous
 62
     7
370
    25
100
AcDbCircle
 10
0.0
 20
0.0
 30
0.0
 40
18.74900000001837
100
AcDbArc
 50
142.6287514604
 51
145.3712485396
  0
ARC
  5
254
330
1B
100
AcDbEntity
 67
     1
  8
0
  6
Continuous
 62
     7
370
    25
100
AcDbCircle
 10
-8.8295950493
 20
16.5905738295
 30
0.0
 40
8.000000000000336
100
AcDbArc
 50
203.4842465188
 51
220.6393088133
  0
ARC
  5
255
330
1B
100
AcDbEntity
 67
     1
  8
0
  6
Continuous
 62
     7
370
    25
100
AcDbCircle
 10
0.0
 20
0.0
 30
0.0
 40
21.00000000001156
100
AcDbArc
 50
138.6591411107
 51
140.3408588893
  0
ARC
  5
256
330
1B
100
AcDbEntity
 67
     1
  8
0
  6
Continuous
 62
     7
370
    25
100
AcDbCircle
 10
-17.7675693132
 20
6.1255505406
 30
0.0
 40
8.000000000000336
100
AcDbArc
 50
58.3606911867
 51
75.5157534812
  0
ARC
  5
257
330
1B
100
AcDbEntity
 67
     1
  8
0
  6
Continuous
 62
     7
370
    25
100
AcDbCircle
 10
0.0
 20
0.0
 30
0.0
 40
18.74900000001366
100
AcDbArc
 50
133.6287514604
 51
136.3712485396
  0
ARC
  5
258
330
1B
100
AcDbEntity
 67
     1
  8
0
  6
Continuous
 62
     7
370
    25
100
AcDbCircle
 10
-6.1255505406
 20
17.7675693132
 30
0.0
 40
8.000000000000329
100
AcDbArc
 50
194.4842465188
 51
211.6393088133
  0
ARC
  5
259
330
1B
100
AcDbEntity
 67
     1
  8
0
  6
Continuous
 62
     7
370
    25
100
AcDbCircle
 10
0.0
 20
0.0
 30
0.0
 40
21.00000000000738
100
AcDbArc
 50
129.6591411107
 51
131.3408588893
  0
ARC
  5
25A
330
1B
100
AcDbEntity
 67
     1
  8
0
  6
Continuous
 62
     7
370
    25
100
AcDbCircle
 10
-16.5905738295
 20
8.8295950493
 30
0.0
 40
8.000000000000362
100
AcDbArc
 50
49.3606911867
 51
66.5157534812
  0
ARC
  5
25B
330
1B
100
AcDbEntity
 67
     1
  8
0
  6
Continuous
 62
     7
370
    25
100
AcDbCircle
 10
0.0
 20
0.0
 30
0.0
 40
18.74900000002022
100
AcDbArc
 50
124.6287514604
 51
127.3712485396
  0
ARC
  5
25C
330
1B
100
AcDbEntity
 67
     1
  8
0
  6
Continuous
 62
     7
370
    25
100
AcDbCircle
 10
-3.2706746481
 20
18.5070682733
 30
0.0
 40
8.000000000000172
100
AcDbArc
 50
185.4842465188
 51
202.6393088133
  0
ARC
  5
25D
330
1B
100
AcDbEntity
 67
     1
  8
0
  6
Continuous
 62
     7
370
    25
100
AcDbCircle
 10
0.0
 20
0.0
 30
0.0
 40
21.00000000001364
100
AcDbArc
 50
120.6591411107
 51
122.3408588893
  0
ARC
  5
25E
330
1B
100
AcDbEntity
 67
     1
  8
0
  6
Continuous
 62
     7
370
    25
100
AcDbCircle
 10
-15.0050633571
 20
11.3162256241
 30
0.0
 40
8.000000000000412
100
AcDbArc
 50
40.3606911867
 51
57.5157534812
  0
ARC
  5
25F
330
1B
100
AcDbEntity
 67
     1
  8
0
  6
Continuous
 62
     7
370
    25
100
AcDbCircle
 10
0.0
 20
0.0
 30
0.0
 40
18.74900000001442
100
AcDbArc
 50
115.6287514604
 51
118.3712485396
  0
ARC
  5
260
330
1B
100
AcDbEntity
 67
     1
  8
0
  6
Continuous
 62
     7
370
    25
100
AcDbCircle
 10
-0.335263891
 20
18.790861791
 30
0.0
 40
8.000000000000274
100
AcDbArc
 50
176.4842465188
 51
193.6393088133
  0
ARC
  5
261
330
1B
100
AcDbEntity
 67
     1
  8
0
  6
Continuous
 62
     7
370
    25
100
AcDbCircle
 10
0.0
 20
0.0
 30
0.0
 40
20.99999999999953
100
AcDbArc
 50
111.6591411107
 51
113.3408588893
  0
ARC
  5
262
330
1B
100
AcDbEntity
 67
     1
  8
0
  6
Continuous
 62
     7
370
    25
100
AcDbCircle
 10
-13.050078426
 20
13.5242131676
 30
0.0
 40
8.00000000000039
100
AcDbArc
 50
31.3606911867
 51
48.5157534812
  0
ARC
  5
263
330
1B
100
AcDbEntity
 67
     1
  8
0
  6
Continuous
 62
     7
370
    25
100
AcDbCircle
 10
0.0
 20
0.0
 30
0.0
 40
18.74900000002447
100
AcDbArc
 50
106.6287514604
 51
109.3712485396
  0
ARC
  5
264
330
1B
100
AcDbEntity
 67
     1
  8
0
  6
Continuous
 62
     7
370
    25
100
AcDbCircle
 10
2.6084021757
 20
18.6119619282
 30
0.0
 40
8.000000000000213
100
AcDbArc
 50
167.4842465188
 51
184.6393088133
  0
ARC
  5
265
330
1B
100
AcDbEntity
 67
     1
  8
0
  6
Continuous
 62
     7
370
    25
100
AcDbCircle
 10
0.0
 20
0.0
 30
0.0
 40
20.99999999997874
100
AcDbArc
 50
102.6591411107
 51
104.3408588893
  0
ARC
  5
266
330
1B
100
AcDbEntity
 67
     1
  8
0
  6
Continuous
 62
     7
370
    25
100
AcDbCircle
 10
-10.7737572532
 20
15.3991896987
 30
0.0
 40
8.000000000000684
100
AcDbArc
 50
22.3606911867
 51
39.5157534812
  0
ARC
  5
267
330
1B
100
AcDbEntity
 67
     1
  8
0
  6
Continuous
 62
     7
370
    25
100
AcDbCircle
 10
0.0
 20
0.0
 30
0.0
 40
18.74900000001682
100
AcDbArc
 50
97.6287514604
 51
100.3712485396
  0
ARC
  5
268
330
1B
100
AcDbEntity
 67
     1
  8
0
  6
Continuous
 62
     7
370
    25
100
AcDbCircle
 10
5.4878407242
 20
17.9747737931
 30
0.0
 40
8.000000000000252
100
AcDbArc
 50
158.4842465188
 51
175.6393088133
  0
ARC
  5
269
330
1B
100
AcDbEntity
 67
     1
  8
0
  6
Continuous
 62
     7
370
    25
100
AcDbCircle
 10
0.0
 20
0.0
 30
0.0
 40
20.99999999997609
100
AcDbArc
 50
93.6591411107
 51
95.3408588893
  0
ARC
  5
26A
330
1B
100
AcDbEntity
 67
     1
  8
0
  6
Continuous
 62
     7
370
    25
100
AcDbCircle
 10
-8.2321504208
 20
16.8949870724
 30
0.0
 40
8.000000000000442
100
AcDbArc
 50
13.3606911867
 51
30.5157534812
  0
ARC
  5
26B
330
1B
100
AcDbEntity
 67
     1
  8
0
  6
Continuous
 62
     7
370
    25
100
AcDbCircle
 10
0.0
 20
0.0
 30
0.0
 40
18.74900000002184
100
AcDbArc
 50
88.6287514604
 51
91.3712485396
  0
ARC
  5
26C
330
1B
100
AcDbEntity
 67
     1
  8
0
  6
Continuous
 62
     7
370
    25
100
AcDbCircle
 10
8.2321504208
 20
16.8949870724
 30
0.0
 40
8.000000000000286
100
AcDbArc
 50
149.4842465188
 51
166.6393088133
  0
ARC
  5
26D
330
1B
100
AcDbEntity
 67
     1
  8
0
  6
Continuous
 62
     7
370
    25
100
AcDbCircle
 10
0.0
 20
0.0
 30
0.0
 40
21.00000000000164
100
AcDbArc
 50
84.6591411107
 51
86.3408588893
  0
ARC
  5
26E
330
1B
100
AcDbEntity
 67
     1
  8
0
  6
Continuous
 62
     7
370
    25
100
AcDbCircle
 10
-5.4878407242
 20
17.9747737931
 30
0.0
 40
8.000000000000336
100
AcDbArc
 50
4.3606911867
 51
21.5157534812
  0
ARC
  5
26F
330
1B
100
AcDbEntity
 67
     1
  8
0
  6
Continuous
 62
     7
370
    25
100
AcDbCircle
 10
0.0
 20
0.0
 30
0.0
 40
18.74900000001528
100
AcDbArc
 50
79.6287514604
 51
82.3712485396
  0
ARC
  5
270
330
1B
100
AcDbEntity
 67
     1
  8
0
  6
Continuous
 62
     7
370
    25
100
AcDbCircle
 10
10.7737572532
 20
15.3991896987
 30
0.0
 40
7.999999999999991
100
AcDbArc
 50
140.4842465188
 51
157.6393088133
  0
ARC
  5
271
330
1B
100
AcDbEntity
 67
     1
  8
0
  6
Continuous
 62
     7
370
    25
100
AcDbCircle
 10
0.0
 20
0.0
 30
0.0
 40
20.99999999997727
100
AcDbArc
 50
75.6591411107
 51
77.3408588893
  0
ARC
  5
272
330
1B
100
AcDbEntity
 67
     1
  8
0
  6
Continuous
 62
     7
370
    25
100
AcDbCircle
 10
-2.6084021758
 20
18.6119619282
 30
0.0
 40
8.000000000000302
100
AcDbArc
 50
355.3606911867
 51
12.5157534812
  0
ARC
  5
273
330
1B
100
AcDbEntity
 67
     1
  8
0
  6
Continuous
 62
     7
370
    25
100
AcDbCircle
 10
0.0
 20
0.0
 30
0.0
 40
18.74900000001116
100
AcDbArc
 50
70.6287514604
 51
73.3712485396
  0
ARC
  5
274
330
1B
100
AcDbEntity
 67
     1
  8
0
  6
Continuous
 62
     7
370
    25
100
AcDbCircle
 10
13.050078426
 20
13.5242131676
 30
0.0
 40
8.000000000000238
100
AcDbArc
 50
131.4842465188
 51
148.6393088133
  0
ARC
  5
275
330
1B
100
AcDbEntity
 67
     1
  8
0
  6
Continuous
 62
     7
370
    25
100
AcDbCircle
 10
0.0
 20
0.0
 30
0.0
 40
20.99999999999147
100
AcDbArc
 50
66.6591411107
 51
68.3408588893
  0
ARC
  5
276
330
1B
100
AcDbEntity
 67
     1
  8
0
  6
Continuous
 62
     7
370
    25
100
AcDbCircle
 10
0.335263891
 20
18.790861791
 30
0.0
 40
8.000000000000028
100
AcDbArc
 50
346.3606911867
 51
3.5157534812
  0
ARC
  5
277
330
1B
100
AcDbEntity
 67
     1
  8
0
  6
Continuous
 62
     7
370
    25
100
AcDbCircle
 10
0.0
 20
0.0
 30
0.0
 40
18.74900000001994
100
AcDbArc
 50
61.6287514604
 51
64.3712485396
  0
ARC
  5
278
330
1B
100
AcDbEntity
 67
     1
  8
0
  6
Continuous
 62
     7
370
    25
100
AcDbCircle
 10
15.0050633571
 20
11.3162256241
 30
0.0
 40
8.000000000000488
100
AcDbArc
 50
122.4842465188
 51
139.6393088133
  0
ARC
  5
279
330
1B
100
AcDbEntity
 67
     1
  8
0
  6
Continuous
 62
     7
370
    25
100
AcDbCircle
 10
0.0
 20
0.0
 30
0.0
 40
21.00000000000026
100
AcDbArc
 50
57.6591411107
 51
59.3408588893
  0
ARC
  5
27A
330
1B
100
AcDbEntity
 67
     1
  8
0
  6
Continuous
 62
     7
370
    25
100
AcDbCircle
 10
3.2706746481
 20
18.5070682733
 30
0.0
 40
8.000000000000526
100
AcDbArc
 50
337.3606911867
 51
354.5157534812
  0
ARC
  5
27B
330
1B
100
AcDbEntity
 67
     1
  8
0
  6
Continuous
 62
     7
370
    25
100
AcDbCircle
 10
0.0
 20
0.0
 30
0.0
 40
18.74900000001158
100
AcDbArc
 50
52.6287514604
 51
55.3712485396
  0
ARC
  5
27C
330
1B
100
AcDbEntity
 67
     1
  8
0
  6
Continuous
 62
     7
370
    25
100
AcDbCircle
 10
16.5905738295
 20
8.8295950493
 30
0.0
 40
8.0000000000003
100
AcDbArc
 50
113.4842465188
 51
130.6393088133
  0
ARC
  5
27D
330
1B
100
AcDbEntity
 67
     1
  8
0
  6
Continuous
 62
     7
370
    25
100
AcDbCircle
 10
0.0
 20
0.0
 30
0.0
 40
21.00000000002921
100
AcDbArc
 50
48.6591411107
 51
50.3408588893
  0
ARC
  5
27E
330
1B
100
AcDbEntity
 67
     1
  8
0
  6
Continuous
 62
     7
370
    25
100
AcDbCircle
 10
6.1255505406
 20
17.7675693132
 30
0.0
 40
8.000000000000231
100
AcDbArc
 50
328.3606911867
 51
345.5157534812
  0
ARC
  5
27F
330
1B
100
AcDbEntity
 67
     1
  8
0
  6
Continuous
 62
     7
370
    25
100
AcDbCircle
 10
0.0
 20
0.0
 30
0.0
 40
18.74900000001953
100
AcDbArc
 50
43.6287514604
 51
46.3712485396
  0
ARC
  5
280
330
1B
100
AcDbEntity
 67
     1
  8
0
  6
Continuous
 62
     7
370
    25
100
AcDbCircle
 10
17.7675693132
 20
6.1255505406
 30
0.0
 40
8.000000000000178
100
AcDbArc
 50
104.4842465188
 51
121.6393088133
  0
ARC
  5
281
330
1B
100
AcDbEntity
 67
     1
  8
0
  6
Continuous
 62
     7
370
    25
100
AcDbCircle
 10
0.0
 20
0.0
 30
0.0
 40
21.00000000001336
100
AcDbArc
 50
39.6591411107
 51
41.3408588893
  0
ARC
  5
282
330
1B
100
AcDbEntity
 67
     1
  8
0
  6
Continuous
 62
     7
370
    25
100
AcDbCircle
 10
8.8295950493
 20
16.5905738295
 30
0.0
 40
8.000000000000233
100
AcDbArc
 50
319.3606911867
 51
336.5157534812
  0
ARC
  5
283
330
1B
100
AcDbEntity
 67
     1
  8
0
  6
Continuous
 62
     7
370
    25
100
AcDbCircle
 10
0.0
 20
0.0
 30
0.0
 40
18.74900000000909
100
AcDbArc
 50
34.6287514604
 51
37.3712485396
  0
ARC
  5
284
330
1B
100
AcDbEntity
 67
     1
  8
0
  6
Continuous
 62
     7
370
    25
100
AcDbCircle
 10
18.5070682733
 20
3.2706746481
 30
0.0
 40
8.00000000000018
100
AcDbArc
 50
95.4842465188
 51
112.6393088133
  0
ARC
  5
285
330
1B
100
AcDbEntity
 67
     1
  8
0
  6
Continuous
 62
     7
370
    25
100
AcDbCircle
 10
0.0
 20
0.0
 30
0.0
 40
21.00000000001828
100
AcDbArc
 50
30.6591411107
 51
32.3408588893
  0
ARC
  5
286
330
1B
100
AcDbEntity
 67
     1
  8
0
  6
Continuous
 62
     7
370
    25
100
AcDbCircle
 10
11.3162256241
 20
15.0050633571
 30
0.0
 40
8.000000000000194
100
AcDbArc
 50
310.3606911867
 51
327.5157534812
  0
ARC
  5
287
330
1B
100
AcDbEntity
 67
     1
  8
0
  6
Continuous
 62
     7
370
    25
100
AcDbCircle
 10
0.0
 20
0.0
 30
0.0
 40
18.74900000001527
100
AcDbArc
 50
25.6287514604
 51
28.3712485396
  0
ARC
  5
288
330
1B
100
AcDbEntity
 67
     1
  8
0
  6
Continuous
 62
     7
370
    25
100
AcDbCircle
 10
18.790861791
 20
0.335263891
 30
0.0
 40
8.000000000000112
100
AcDbArc
 50
86.4842465188
 51
103.6393088133
  0
ARC
  5
289
330
1B
100
AcDbEntity
 67
     1
  8
0
  6
Continuous
 62
     7
370
    25
100
AcDbCircle
 10
0.0
 20
0.0
 30
0.0
 40
20.99999999998897
100
AcDbArc
 50
21.6591411107
 51
23.3408588893
  0
ARC
  5
28A
330
1B
100
AcDbEntity
 67
     1
  8
0
  6
Continuous
 62
     7
370
    25
100
AcDbCircle
 10
13.5242131676
 20
13.050078426
 30
0.0
 40
8.000000000000377
100
AcDbArc
 50
301.3606911867
 51
318.5157534812
  0
ARC
  5
28B
330
1B
100
AcDbEntity
 67
     1
  8
0
  6
Continuous
 62
     7
370
    25
100
AcDbCircle
 10
0.0
 20
0.0
 30
0.0
 40
18.74900000000941
100
AcDbArc
 50
16.6287514604
 51
19.3712485396
  0
ARC
  5
28C
330
1B
100
AcDbEntity
 67
     1
  8
0
  6
Continuous
 62
     7
370
    25
100
AcDbCircle
 10
18.6119619282
 20
-2.6084021757
 30
0.0
 40
8.000000000000139
100
AcDbArc
 50
77.4842465188
 51
94.6393088133
  0
ARC
  5
28D
330
1B
100
AcDbEntity
 67
     1
  8
0
  6
Continuous
 62
     7
370
    25
100
AcDbCircle
 10
0.0
 20
0.0
 30
0.0
 40
20.99999999996346
100
AcDbArc
 50
12.6591411107
 51
14.3408588893
  0
ARC
  5
28E
330
1B
100
AcDbEntity
 67
     1
  8
0
  6
Continuous
 62
     7
370
    25
100
AcDbCircle
 10
15.3991896987
 20
10.7737572532
 30
0.0
 40
8.00000000000028
100
AcDbArc
 50
292.3606911867
 51
309.5157534812
  0
ARC
  5
28F
330
1B
100
AcDbEntity
 67
     1
  8
0
  6
Continuous
 62
     7
370
    25
100
AcDbCircle
 10
0.0
 20
0.0
 30
0.0
 40
18.74900000001549
100
AcDbArc
 50
7.6287514604
 51
10.3712485396
  0
ARC
  5
290
330
1B
100
AcDbEntity
 67
     1
  8
0
  6
Continuous
 62
     7
370
    25
100
AcDbCircle
 10
17.9747737931
 20
-5.4878407242
 30
0.0
 40
8.000000000000108
100
AcDbArc
 50
68.4842465188
 51
85.6393088133
  0
ARC
  5
291
330
1B
100
AcDbEntity
 67
     1
  8
0
  6
Continuous
 62
     7
370
    25
100
AcDbCircle
 10
0.0
 20
0.0
 30
0.0
 40
20.99999999999666
100
AcDbArc
 50
3.6591411107
 51
5.3408588893
  0
ARC
  5
292
330
1B
100
AcDbEntity
 67
     1
  8
0
  6
Continuous
 62
     7
370
    25
100
AcDbCircle
 10
16.8949870724
 20
8.2321504208
 30
0.0
 40
8.000000000000373
100
AcDbArc
 50
283.3606911867
 51
300.5157534812
  0
ARC
  5
293
330
1B
100
AcDbEntity
 67
     1
  8
0
  6
Continuous
 62
     7
370
    25
100
AcDbCircle
 10
0.0
 20
0.0
 30
0.0
 40
18.74900000001219
100
AcDbArc
 50
358.6287514604
 51
1.3712485396
  0
ARC
  5
294
330
1B
100
AcDbEntity
 67
     1
  8
0
  6
Continuous
 62
     7
370
    25
100
AcDbCircle
 10
16.8949870724
 20
-8.2321504208
 30
0.0
 40
8.000000000000364
100
AcDbArc
 50
59.4842465188
 51
76.6393088133
  0
ARC
  5
295
330
1B
100
AcDbEntity
 67
     1
  8
0
  6
Continuous
 62
     7
370
    25
100
AcDbCircle
 10
0.0
 20
0.0
 30
0.0
 40
20.99999999997594
100
AcDbArc
 50
354.6591411107
 51
356.3408588893
  0
ARC
  5
296
330
1B
100
AcDbEntity
 67
     1
  8
0
  6
Continuous
 62
     7
370
    25
100
AcDbCircle
 10
17.9747737931
 20
5.4878407242
 30
0.0
 40
8.000000000000266
100
AcDbArc
 50
274.3606911867
 51
291.5157534812
  0
ARC
  5
297
330
1B
100
AcDbEntity
 67
     1
  8
0
  6
Continuous
 62
     7
370
    25
100
AcDbCircle
 10
0.0
 20
0.0
 30
0.0
 40
18.74900000001681
100
AcDbArc
 50
349.6287514604
 51
352.3712485396
  0
ARC
  5
298
330
1B
100
AcDbEntity
 67
     1
  8
0
  6
Continuous
 62
     7
370
    25
100
AcDbCircle
 10
15.3991896987
 20
-10.7737572532
 30
0.0
 40
8.000000000000302
100
AcDbArc
 50
50.4842465188
 51
67.6393088133
  0
ARC
  5
299
330
1B
100
AcDbEntity
 67
     1
  8
0
  6
Continuous
 62
     7
370
    25
100
AcDbCircle
 10
0.0
 20
0.0
 30
0.0
 40
20.99999999995871
100
AcDbArc
 50
345.6591411107
 51
347.3408588893
  0
ARC
  5
29A
330
1B
100
AcDbEntity
 67
     1
  8
0
  6
Continuous
 62
     7
370
    25
100
AcDbCircle
 10
18.6119619282
 20
2.6084021758
 30
0.0
 40
8.000000000000444
100
AcDbArc
 50
265.3606911867
 51
282.5157534812
  0
ARC
  5
29B
330
1B
100
AcDbEntity
 67
     1
  8
0
  6
Continuous
 62
     7
370
    25
100
AcDbCircle
 10
0.0
 20
0.0
 30
0.0
 40
18.74900000000752
100
AcDbArc
 50
340.6287514604
 51
343.3712485396
  0
ARC
  5
29C
330
1B
100
AcDbEntity
 67
     1
  8
0
  6
Continuous
 62
     7
370
    25
100
AcDbCircle
 10
13.5242131676
 20
-13.050078426
 30
0.0
 40
8.00000000000033
100
AcDbArc
 50
41.4842465188
 51
58.6393088133
  0
ARC
  5
29D
330
1B
100
AcDbEntity
 67
     1
  8
0
  6
Continuous
 62
     7
370
    25
100
AcDbCircle
 10
0.0
 20
0.0
 30
0.0
 40
20.99999999997524
100
AcDbArc
 50
336.6591411107
 51
338.3408588893
  0
ARC
  5
29E
330
1B
100
AcDbEntity
 67
     1
  8
0
  6
Continuous
 62
     7
370
    25
100
AcDbCircle
 10
18.790861791
 20
-0.335263891
 30
0.0
 40
8.00000000000038
100
AcDbArc
 50
256.3606911867
 51
273.5157534812
  0
ARC
  5
29F
330
1B
100
AcDbEntity
 67
     1
  8
0
  6
Continuous
 62
     7
370
    25
100
AcDbCircle
 10
0.0
 20
0.0
 30
0.0
 40
18.74900000001563
100
AcDbArc
 50
331.6287514604
 51
334.3712485396
  0
ARC
  5
2A0
330
1B
100
AcDbEntity
 67
     1
  8
0
  6
Continuous
 62
     7
370
    25
100
AcDbCircle
 10
11.3162256241
 20
-15.0050633571
 30
0.0
 40
8.000000000000487
100
AcDbArc
 50
32.4842465188
 51
49.6393088133
  0
ARC
  5
2A1
330
1B
100
AcDbEntity
 67
     1
  8
0
  6
Continuous
 62
     7
370
    25
100
AcDbCircle
 10
0.0
 20
0.0
 30
0.0
 40
20.99999999998386
100
AcDbArc
 50
327.6591411107
 51
329.3408588893
  0
ARC
  5
2A2
330
1B
100
AcDbEntity
 67
     1
  8
0
  6
Continuous
 62
     7
370
    25
100
AcDbCircle
 10
18.5070682733
 20
-3.2706746481
 30
0.0
 40
8.000000000000567
100
AcDbArc
 50
247.3606911867
 51
264.5157534812
  0
ARC
  5
2A3
330
1B
100
AcDbEntity
 67
     1
  8
0
  6
Continuous
 62
     7
370
    25
100
AcDbCircle
 10
0.0
 20
0.0
 30
0.0
 40
18.7490000000149
100
AcDbArc
 50
322.6287514604
 51
325.3712485396
  0
ARC
  5
2A4
330
1B
100
AcDbEntity
 67
     1
  8
0
  6
Continuous
 62
     7
370
    25
100
AcDbCircle
 10
8.8295950493
 20
-16.5905738295
 30
0.0
 40
8.000000000000078
100
AcDbArc
 50
23.4842465188
 51
40.6393088133
  0
ARC
  5
2A5
330
1B
100
AcDbEntity
 67
     1
  8
0
  6
Continuous
 62
     7
370
    25
100
AcDbCircle
 10
0.0
 20
0.0
 30
0.0
 40
20.99999999997888
100
AcDbArc
 50
318.6591411107
 51
320.3408588893
  0
ARC
  5
2A6
330
1B
100
AcDbEntity
 67
     1
  8
0
  6
Continuous
 62
     7
370
    25
100
AcDbCircle
 10
17.7675693132
 20
-6.1255505406
 30
0.0
 40
8.000000000000288
100
AcDbArc
 50
238.3606911867
 51
255.5157534812
  0
ARC
  5
2A7
330
1B
100
AcDbEntity
 67
     1
  8
0
  6
Continuous
 62
     7
370
    25
100
AcDbCircle
 10
0.0
 20
0.0
 30
0.0
 40
18.74900000000948
100
AcDbArc
 50
313.6287514604
 51
316.3712485396
  0
ARC
  5
2A8
330
1B
100
AcDbEntity
 67
     1
  8
0
  6
Continuous
 62
     7
370
    25
100
AcDbCircle
 10
6.1255505406
 20
-17.7675693132
 30
0.0
 40
8.000000000000366
100
AcDbArc
 50
14.4842465188
 51
31.6393088133
  0
ARC
  5
2A9
330
1B
100
AcDbEntity
 67
     1
  8
0
  6
Continuous
 62
     7
370
    25
100
AcDbCircle
 10
0.0
 20
0.0
 30
0.0
 40
21.00000000001032
100
AcDbArc
 50
309.6591411107
 51
311.3408588893
  0
ARC
  5
2AA
330
1B
100
AcDbEntity
 67
     1
  8
0
  6
Continuous
 62
     7
370
    25
100
AcDbCircle
 10
16.5905738295
 20
-8.8295950493
 30
0.0
 40
8.000000000000458
100
AcDbArc
 50
229.3606911867
 51
246.5157534812
  0
ARC
  5
2AB
330
1B
100
AcDbEntity
 67
     1
  8
0
  6
Continuous
 62
     7
370
    25
100
AcDbCircle
 10
0.0
 20
0.0
 30
0.0
 40
18.74900000001123
100
AcDbArc
 50
304.6287514604
 51
307.3712485396
  0
ARC
  5
2AC
330
1B
100
AcDbEntity
 67
     1
  8
0
  6
Continuous
 62
     7
370
    25
100
AcDbCircle
 10
3.2706746481
 20
-18.5070682733
 30
0.0
 40
8.000000000000206
100
AcDbArc
 50
5.4842465188
 51
22.6393088133
  0
ARC
  5
2AD
330
1B
100
AcDbEntity
 67
     1
  8
0
  6
Continuous
 62
     7
370
    25
100
AcDbCircle
 10
0.0
 20
0.0
 30
0.0
 40
21.00000000000664
100
AcDbArc
 50
300.6591411107
 51
302.3408588893
  0
ARC
  5
2AE
330
1B
100
AcDbEntity
 67
     1
  8
0
  6
Continuous
 62
     7
370
    25
100
AcDbCircle
 10
15.0050633571
 20
-11.3162256241
 30
0.0
 40
8.000000000000256
100
AcDbArc
 50
220.3606911867
 51
237.5157534812
  0
ARC
  5
2AF
330
1B
100
AcDbEntity
 67
     1
  8
0
  6
Continuous
 62
     7
370
    25
100
AcDbCircle
 10
0.0
 20
0.0
 30
0.0
 40
18.74900000001362
100
AcDbArc
 50
295.6287514604
 51
298.3712485396
  0
ARC
  5
2B0
330
1B
100
AcDbEntity
 67
     1
  8
0
  6
Continuous
 62
     7
370
    25
100
AcDbCircle
 10
0.335263891
 20
-18.790861791
 30
0.0
 40
8.000000000000195
100
AcDbArc
 50
356.4842465188
 51
13.6393088133
  0
ARC
  5
2B1
330
1B
100
AcDbEntity
 67
     1
  8
0
  6
Continuous
 62
     7
370
    25
100
AcDbCircle
 10
0.0
 20
0.0
 30
0.0
 40
20.99999999998101
100
AcDbArc
 50
291.6591411107
 51
293.3408588893
  0
ARC
  5
2B2
330
1B
100
AcDbEntity
 67
     1
  8
0
  6
Continuous
 62
     7
370
    25
100
AcDbCircle
 10
13.050078426
 20
-13.5242131676
 30
0.0
 40
8.000000000000318
100
AcDbArc
 50
211.3606911867
 51
228.5157534812
  0
ARC
  5
2B3
330
1B
100
AcDbEntity
 67
     1
  8
0
  6
Continuous
 62
     7
370
    25
100
AcDbCircle
 10
0.0
 20
0.0
 30
0.0
 40
18.74900000001483
100
AcDbArc
 50
286.6287514604
 51
289.3712485396
  0
ARC
  5
2B4
330
1B
100
AcDbEntity
 67
     1
  8
0
  6
Continuous
 62
     7
370
    25
100
AcDbCircle
 10
-2.6084021757
 20
-18.6119619282
 30
0.0
 40
8.00000000000042
100
AcDbArc
 50
347.4842465188
 51
4.6393088133
  0
ARC
  5
2B5
330
1B
100
AcDbEntity
 67
     1
  8
0
  6
Continuous
 62
     7
370
    25
100
AcDbCircle
 10
0.0
 20
0.0
 30
0.0
 40
20.99999999997239
100
AcDbArc
 50
282.6591411107
 51
284.3408588893
  0
ARC
  5
2B6
330
1B
100
AcDbEntity
 67
     1
  8
0
  6
Continuous
 62
     7
370
    25
100
AcDbCircle
 10
10.7737572532
 20
-15.3991896987
 30
0.0
 40
8.000000000000233
100
AcDbArc
 50
202.3606911867
 51
219.5157534812
  0
ARC
  5
2B7
330
1B
100
AcDbEntity
 67
     1
  8
0
  6
Continuous
 62
     7
370
    25
100
AcDbCircle
 10
0.0
 20
0.0
 30
0.0
 40
18.74900000000581
100
AcDbArc
 50
277.6287514604
 51
280.3712485396
  0
ARC
  5
2B8
330
1B
100
AcDbEntity
 67
     1
  8
0
  6
Continuous
 62
     7
370
    25
100
AcDbCircle
 10
-5.4878407242
 20
-17.9747737931
 30
0.0
 40
8.000000000000318
100
AcDbArc
 50
338.4842465188
 51
355.6393088133
  0
ARC
  5
2B9
330
1B
100
AcDbEntity
 67
     1
  8
0
  6
Continuous
 62
     7
370
    25
100
AcDbCircle
 10
0.0
 20
0.0
 30
0.0
 40
21.00000000000174
100
AcDbArc
 50
273.6591411107
 51
275.3408588893
  0
ARC
  5
2BA
330
1B
100
AcDbEntity
 67
     1
  8
0
  6
Continuous
 62
     7
370
    25
100
AcDbCircle
 10
8.2321504208
 20
-16.8949870724
 30
0.0
 40
8.0000000000003
100
AcDbArc
 50
193.3606911867
 51
210.5157534812
  0
ARC
  5
2BB
330
1B
100
AcDbEntity
 67
     1
  8
0
  6
Continuous
 62
     7
370
    25
100
AcDbCircle
 10
0.0
 20
0.0
 30
0.0
 40
18.74900000001632
100
AcDbArc
 50
268.6287514604
 51
271.3712485396
  0
ARC
  5
2BC
330
1B
100
AcDbEntity
 67
     1
  8
0
  6
Continuous
 62
     7
370
    25
100
AcDbCircle
 10
-8.2321504208
 20
-16.8949870724
 30
0.0
 40
8.000000000000242
100
AcDbArc
 50
329.4842465188
 51
346.6393088133
  0
ARC
  5
2BD
330
1B
100
AcDbEntity
 67
     1
  8
0
  6
Continuous
 62
     7
370
    25
100
AcDbCircle
 10
0.0
 20
0.0
 30
0.0
 40
20.99999999998713
100
AcDbArc
 50
264.6591411107
 51
266.3408588893
  0
ARC
  5
2BE
330
1B
100
AcDbEntity
 67
     1
  8
0
  6
Continuous
 62
     7
370
    25
100
AcDbCircle
 10
5.4878407242
 20
-17.9747737931
 30
0.0
 40
8.000000000000334
100
AcDbArc
 50
184.3606911867
 51
201.5157534812
  0
ARC
  5
2BF
330
1B
100
AcDbEntity
 67
     1
  8
0
  6
Continuous
 62
     7
370
    25
100
AcDbCircle
 10
0.0
 20
0.0
 30
0.0
 40
18.74900000002611
100
AcDbArc
 50
259.6287514604
 51
262.3712485396
  0
ARC
  5
2C0
330
1B
100
AcDbEntity
 67
     1
  8
0
  6
Continuous
 62
     7
370
    25
100
AcDbCircle
 10
-10.7737572532
 20
-15.3991896987
 30
0.0
 40
8.000000000000323
100
AcDbArc
 50
320.4842465188
 51
337.6393088133
  0
ARC
  5
2C1
330
1B
100
AcDbEntity
 67
     1
  8
0
  6
Continuous
 62
     7
370
    25
100
AcDbCircle
 10
0.0
 20
0.0
 30
0.0
 40
20.99999999997807
100
AcDbArc
 50
255.6591411107
 51
257.3408588893
  0
ARC
  5
2C2
330
1B
100
AcDbEntity
 67
     1
  8
0
  6
Continuous
 62
     7
370
    25
100
AcDbCircle
 10
2.6084021757
 20
-18.6119619282
 30
0.0
 40
8.00000000000028
100
AcDbArc
 50
175.3606911867
 51
192.5157534812
  0
ARC
  5
2C3
330
1B
100
AcDbEntity
 67
     1
  8
0
  6
Continuous
 62
     7
370
    25
100
AcDbCircle
 10
0.0
 20
0.0
 30
0.0
 40
18.74900000001955
100
AcDbArc
 50
250.6287514604
 51
253.3712485396
  0
ARC
  5
2C4
330
1B
100
AcDbEntity
 67
     1
  8
0
  6
Continuous
 62
     7
370
    25
100
AcDbCircle
 10
-13.050078426
 20
-13.5242131676
 30
0.0
 40
8.000000000000204
100
AcDbArc
 50
311.4842465188
 51
328.6393088133
  0
ARC
  5
2C5
330
1B
100
AcDbEntity
 67
     1
  8
0
  6
Continuous
 62
     7
370
    25
100
AcDbCircle
 10
0.0
 20
0.0
 30
0.0
 40
21.00000000000153
100
AcDbArc
 50
246.6591411107
 51
248.3408588893
  0
ARC
  5
2C6
330
1B
100
AcDbEntity
 67
     1
  8
0
  6
Continuous
 62
     7
370
    25
100
AcDbCircle
 10
-0.335263891
 20
-18.790861791
 30
0.0
 40
8.000000000000497
100
AcDbArc
 50
166.3606911867
 51
183.5157534812
  0
ARC
  5
2C7
330
1B
100
AcDbEntity
 67
     1
  8
0
  6
Continuous
 62
     7
370
    25
100
AcDbCircle
 10
0.0
 20
0.0
 30
0.0
 40
18.74900000000395
100
AcDbArc
 50
241.6287514604
 51
244.3712485396
  0
ARC
  5
2C8
330
1B
100
AcDbEntity
 67
     1
  8
0
  6
Continuous
 62
     7
370
    25
100
AcDbCircle
 10
-15.0050633571
 20
-11.3162256241
 30
0.0
 40
8.000000000000055
100
AcDbArc
 50
302.4842465188
 51
319.6393088133
  0
ARC
  5
2C9
330
1B
100
AcDbEntity
 67
     1
  8
0
  6
Continuous
 62
     7
370
    25
100
AcDbCircle
 10
0.0
 20
0.0
 30
0.0
 40
21.00000000002904
100
AcDbArc
 50
237.6591411107
 51
239.3408588893
  0
ARC
  5
2CA
330
1B
100
AcDbEntity
 67
     1
  8
0
  6
Continuous
 62
     7
370
    25
100
AcDbCircle
 10
-3.2706746481
 20
-18.5070682733
 30
0.0
 40
8.00000000000047
100
AcDbArc
 50
157.3606911867
 51
174.5157534812
  0
ARC
  5
2CB
330
1B
100
AcDbEntity
 67
     1
  8
0
  6
Continuous
 62
     7
370
    25
100
AcDbCircle
 10
0.0
 20
0.0
 30
0.0
 40
18.74900000001334
100
AcDbArc
 50
232.6287514604
 51
235.3712485396
  0
ARC
  5
2CC
330
1B
100
AcDbEntity
 67
     1
  8
0
  6
Continuous
 62
     7
370
    25
100
AcDbCircle
 10
-16.5905738295
 20
-8.8295950493
 30
0.0
 40
8.000000000000393
100
AcDbArc
 50
293.4842465188
 51
310.6393088133
  0
ARC
  5
2CD
330
1B
100
AcDbEntity
 67
     1
  8
0
  6
Continuous
 62
     7
370
    25
100
AcDbCircle
 10
0.0
 20
0.0
 30
0.0
 40
20.99999999999802
100
AcDbArc
 50
228.6591411107
 51
230.3408588893
  0
ARC
  5
2CE
330
1B
100
AcDbEntity
 67
     1
  8
0
  6
Continuous
 62
     7
370
    25
100
AcDbCircle
 10
-6.1255505406
 20
-17.7675693132
 30
0.0
 40
8.00000000000043
100
AcDbArc
 50
148.3606911867
 51
165.5157534812
  0
ARC
  5
2CF
330
1B
100
AcDbEntity
 67
     1
  8
0
  6
Continuous
 62
     7
370
    25
100
AcDbCircle
 10
0.0
 20
0.0
 30
0.0
 40
18.74900000001819
100
AcDbArc
 50
223.6287514604
 51
226.3712485396
  0
ARC
  5
2D0
330
1B
100
AcDbEntity
 67
     1
  8
0
  6
Continuous
 62
     7
370
    25
100
AcDbCircle
 10
-17.7675693132
 20
-6.1255505406
 30
0.0
 40
8.000000000000197
100
AcDbArc
 50
284.4842465188
 51
301.6393088133
  0
ARC
  5
2D1
330
1B
100
AcDbEntity
 67
     1
  8
0
  6
Continuous
 62
     7
370
    25
100
AcDbCircle
 10
0.0
 20
0.0
 30
0.0
 40
21.00000000000846
100
AcDbArc
 50
219.6591411107
 51
221.3408588893
  0
ARC
  5
2D2
330
1B
100
AcDbEntity
 67
     1
  8
0
  6
Continuous
 62
     7
370
    25
100
AcDbCircle
 10
-8.8295950493
 20
-16.5905738295
 30
0.0
 40
8.000000000000421
100
AcDbArc
 50
139.3606911867
 51
156.5157534812
  0
ARC
  5
2D3
330
1B
100
AcDbEntity
 67
     1
  8
0
  6
Continuous
 62
     7
370
    25
100
AcDbCircle
 10
0.0
 20
0.0
 30
0.0
 40
18.7490000000153
100
AcDbArc
 50
214.6287514604
 51
217.3712485396
  0
ARC
  5
2D4
330
1B
100
AcDbEntity
 67
     1
  8
0
  6
Continuous
 62
     7
370
    25
100
AcDbCircle
 10
-18.5070682733
 20
-3.2706746481
 30
0.0
 40
8.000000000000156
100
AcDbArc
 50
275.4842465188
 51
292.6393088133
  0
ARC
  5
2D5
330
1B
100
AcDbEntity
 67
     1
  8
0
  6
Continuous
 62
     7
370
    25
100
AcDbCircle
 10
0.0
 20
0.0
 30
0.0
 40
20.9999999999967
100
AcDbArc
 50
210.6591411107
 51
212.3408588893
  0
ARC
  5
2D6
330
1B
100
AcDbEntity
 67
     1
  8
0
  6
Continuous
 62
     7
370
    25
100
AcDbCircle
 10
-11.3162256241
 20
-15.0050633571
 30
0.0
 40
8.000000000000213
100
AcDbArc
 50
130.3606911867
 51
147.5157534812
  0
ARC
  5
2D7
330
1B
100
AcDbEntity
 67
     1
  8
0
  6
Continuous
 62
     7
370
    25
100
AcDbCircle
 10
0.0
 20
0.0
 30
0.0
 40
18.74900000002615
100
AcDbArc
 50
205.6287514604
 51
208.3712485396
  0
ARC
  5
2D8
330
1B
100
AcDbEntity
 67
     1
  8
0
  6
Continuous
 62
     7
370
    25
100
AcDbCircle
 10
-18.790861791
 20
-0.335263891
 30
0.0
 40
8.000000000000316
100
AcDbArc
 50
266.4842465188
 51
283.6393088133
  0
ARC
  5
2D9
330
1B
100
AcDbEntity
 67
     1
  8
0
  6
Continuous
 62
     7
370
    25
100
AcDbCircle
 10
0.0
 20
0.0
 30
0.0
 40
20.99999999998865
100
AcDbArc
 50
201.6591411107
 51
203.3408588893
  0
ARC
  5
2DA
330
1B
100
AcDbEntity
 67
     1
  8
0
  6
Continuous
 62
     7
370
    25
100
AcDbCircle
 10
-13.5242131676
 20
-13.050078426
 30
0.0
 40
8.000000000000606
100
AcDbArc
 50
121.3606911867
 51
138.5157534812
  0
ARC
  5
2DB
330
1B
100
AcDbEntity
 67
     1
  8
0
  6
Continuous
 62
     7
370
    25
100
AcDbCircle
 10
0.0
 20
0.0
 30
0.0
 40
18.74900000000488
100
AcDbArc
 50
196.6287514604
 51
199.3712485396
  0
ARC
  5
2DC
330
1B
100
AcDbEntity
 67
     1
  8
0
  6
Continuous
 62
     7
370
    25
100
AcDbCircle
 10
-18.6119619282
 20
2.6084021757
 30
0.0
 40
8.000000000000103
100
AcDbArc
 50
257.4842465188
 51
274.6393088133
  0
ARC
  5
2DD
330
1B
100
AcDbEntity
 67
     1
  8
0
  6
Continuous
 62
     7
370
    25
100
AcDbCircle
 10
0.0
 20
0.0
 30
0.0
 40
20.99999999996801
100
AcDbArc
 50
192.6591411107
 51
194.3408588893
  0
ARC
  5
2DE
330
1B
100
AcDbEntity
 67
     1
  8
0
  6
Continuous
 62
     7
370
    25
100
AcDbCircle
 10
-15.3991896987
 20
-10.7737572532
 30
0.0
 40
8.000000000000302
100
AcDbArc
 50
112.3606911867
 51
129.5157534812
  0
ARC
  5
2DF
330
1B
100
AcDbEntity
 67
     1
  8
0
  6
Continuous
 62
     7
370
    25
100
AcDbCircle
 10
0.0
 20
0.0
 30
0.0
 40
18.7490000000155
100
AcDbArc
 50
187.6287514604
 51
190.3712485396
  0
ARC
  5
2E0
330
1B
100
AcDbEntity
 67
     1
  8
0
  6
Continuous
 62
     7
370
    25
100
AcDbCircle
 10
-17.9747737931
 20
5.4878407242
 30
0.0
 40
8.000000000000444
100
AcDbArc
 50
248.4842465188
 51
265.6393088133
  0
ARC
  5
2E1
330
1B
100
AcDbEntity
 67
     1
  8
0
  6
Continuous
 62
     7
370
    25
100
AcDbCircle
 10
0.0
 20
0.0
 30
0.0
 40
21.00000000000208
100
AcDbArc
 50
183.6591411107
 51
185.3408588893
  0
ARC
  5
2E2
330
1B
100
AcDbEntity
 67
     1
  8
0
  6
Continuous
 62
     7
370
    25
100
AcDbCircle
 10
-16.8949870724
 20
-8.2321504208
 30
0.0
 40
8.000000000000368
100
AcDbArc
 50
103.3606911867
 51
120.5157534812
  0
ARC
  5
2E3
330
1B
100
AcDbEntity
 67
     1
  8
0
  6
Continuous
 62
     7
370
    25
100
AcDbCircle
 10
0.0
 20
0.0
 30
0.0
 40
18.74900000001219
100
AcDbArc
 50
178.6287514604
 51
181.3712485396
  0
ARC
  5
2E4
330
1B
100
AcDbEntity
 67
     1
  8
0
  6
Continuous
 62
     7
370
    25
100
AcDbCircle
 10
-16.8949870724
 20
8.2321504208
 30
0.0
 40
8.000000000000277
100
AcDbArc
 50
239.4842465188
 51
256.6393088133
  0
VIEWPORT
  5
2E5
330
1B
100
AcDbEntity
 67
     1
  8
0
100
AcDbViewport
 10
0.0
 20
0.0
 30
0.0
 40
205.6
 41
156.0
 68
     1
 69
     1
 12
0.0
 22
0.0
 13
0.0
 23
0.0
 14
10.0
 24
10.0
 15
10.0
 25
10.0
 16
0.0
 26
0.0
 36
1.0
 17
0.0
 27
0.0
 37
0.0
 42
50.0
 43
0.0
 44
0.0
 45
42.7526656882
 50
0.0
 51
0.0
 72
   100
 90
   557152
  1

281
     0
 71
     1
 74
     0
110
0.0
120
0.0
130
0.0
111
1.0
121
0.0
131
0.0
112
0.0
122
1.0
132
0.0
 79
     0
146
0.0
  0
ENDSEC
  0
SECTION
  2
OBJECTS
  0
DICTIONARY
  5
C
330
0
100
AcDbDictionary
281
     1
  3
ACAD_GROUP
350
D
  3
ACAD_LAYOUT
350
1A
  3
ACAD_MLINESTYLE
350
17
  3
ACAD_PLOTSETTINGS
350
19
  3
ACAD_PLOTSTYLENAME
350
E
  3
ACAD_SCALELIST
350
47
  3
DWGPROPS
350
2E7
  0
DICTIONARY
  5
D
102
{ACAD_REACTORS
330
C
102
}
330
C
100
AcDbDictionary
281
     1
  0
DICTIONARY
  5
1A
102
{ACAD_REACTORS
330
C
102
}
330
C
100
AcDbDictionary
281
     1
  3
_
350
1E
  3
Layout2
350
26
  3
Model
350
22
  0
DICTIONARY
  5
17
102
{ACAD_REACTORS
330
C
102
}
330
C
100
AcDbDictionary
281
     1
  3
Standard
350
18
  0
DICTIONARY
  5
19
102
{ACAD_REACTORS
330
C
102
}
330
C
100
AcDbDictionary
281
     1
  0
ACDBDICTIONARYWDFLT
  5
E
102
{ACAD_REACTORS
330
C
102
}
330
C
100
AcDbDictionary
281
     1
  3
Normal
350
F
100
AcDbDictionaryWithDefault
340
F
  0
DICTIONARY
  5
47
102
{ACAD_REACTORS
330
C
102
}
330
C
100
AcDbDictionary
281
     1
  3
A0
350
48
  3
A1
350
49
  3
A2
350
4A
  3
A3
350
4B
  3
A4
350
4C
  3
A5
350
4D
  3
A6
350
4E
  3
A7
350
4F
  3
A8
350
50
  3
A9
350
51
  3
B0
350
52
  3
B1
350
53
  3
B2
350
54
  3
B3
350
55
  3
B4
350
56
  3
B5
350
57
  3
B6
350
58
  0
XRECORD
  5
2E7
102
{ACAD_REACTORS
330
C
102
}
330
C
100
AcDbXrecord
280
     1
  1
DWGPROPS COOKIE
  2

  3

  4

  6

  7

  8
luo20
  9

300
=
301
=
302
=
303
=
304
=
305
=
306
=
307
=
308
=
309
=
 40
0.0
 41
2460363.199954063
 42
2460363.199983322
  1

 90
        0
  0
LAYOUT
  5
1E
102
{ACAD_REACTORS
330
1A
102
}
330
1A
100
AcDbPlotSettings
  1

  2
none_device
  4
ISO_A4_(210.00_x_297.00_MM)
  6

 40
7.5
 41
20.0
 42
7.5
 43
20.0
 44
210.0
 45
297.0
 46
0.0
 47
0.0
 48
0.0
 49
0.0
140
0.0
141
0.0
142
1.0
143
0.2149455288
 70
   688
 72
     1
 73
     1
 74
     1
  7

 75
     0
147
4.6523414809
148
20.9571890628
149
20.9571890628
100
AcDbLayout
  1
_
 70
     1
 71
     1
 10
-25.2560996398
 20
-22.5692805292
 11
38.5827224285
 21
22.5692805292
 12
0.0
 22
0.0
 32
0.0
 14
-20.9571890628
 24
-20.9571890628
 34
0.0
 15
20.9571890628
 25
20.9571890628
 35
0.0
146
0.0
 13
0.0
 23
0.0
 33
0.0
 16
1.0
 26
0.0
 36
0.0
 17
0.0
 27
1.0
 37
0.0
 76
     0
330
1B
331
2E5
  0
LAYOUT
  5
26
102
{ACAD_REACTORS
330
1A
102
}
330
1A
100
AcDbPlotSettings
  1

  2
none_device
  4

  6

 40
0.0
 41
0.0
 42
0.0
 43
0.0
 44
0.0
 45
0.0
 46
0.0
 47
0.0
 48
0.0
 49
0.0
140
0.0
141
0.0
142
1.0
143
1.0
 70
   688
 72
     1
 73
     0
 74
     5
  7

 75
    16
147
1.0
148
0.0
149
0.0
100
AcDbLayout
  1
Layout2
 70
     1
 71
     2
 10
0.0
 20
0.0
 11
0.0
 21
0.0
 12
0.0
 22
0.0
 32
0.0
 14
0.0
 24
0.0
 34
0.0
 15
0.0
 25
0.0
 35
0.0
146
0.0
 13
0.0
 23
0.0
 33
0.0
 16
1.0
 26
0.0
 36
0.0
 17
0.0
 27
1.0
 37
0.0
 76
     0
330
23
  0
LAYOUT
  5
22
102
{ACAD_REACTORS
330
1A
102
}
330
1A
100
AcDbPlotSettings
  1

  2
none_device
  4
ANSI_A_(11.00_x_8.50_Inches)
  6

 40
6.35
 41
19.05
 42
6.35000508
 43
19.05000254
 44
279.4
 45
215.9
 46
133.34999746
 47
88.89999873
 48
0.0
 49
0.0
140
0.0
141
0.0
142
0.2007664285
143
1.0
 70
  1696
 72
     0
 73
     0
 74
     0
  7

 75
     0
147
0.0179189148
148
-1300.4909072572
149
0.0
100
AcDbLayout
  1
Model
 70
     1
 71
     0
 10
0.0
 20
0.0
 11
420.0
 21
297.0
 12
0.0
 22
0.0
 32
0.0
 14
-20.9571890628
 24
-20.9571890628
 34
0.0
 15
20.9571890628
 25
20.9571890628
 35
0.0
146
0.0
 13
0.0
 23
0.0
 33
0.0
 16
1.0
 26
0.0
 36
0.0
 17
0.0
 27
1.0
 37
0.0
 76
     0
330
1F
331
29
  0
MLINESTYLE
  5
18
102
{ACAD_REACTORS
330
17
102
}
330
17
100
AcDbMlineStyle
  2
Standard
 70
     0
  3

 62
   256
 51
90.0
 52
90.0
 71
     2
 49
0.5
 62
   256
  6
BYLAYER
 49
-0.5
 62
   256
  6
BYLAYER
  0
ACDBPLACEHOLDER
  5
F
102
{ACAD_REACTORS
330
E
102
}
330
E
  0
SCALE
  5
48
102
{ACAD_REACTORS
330
47
102
}
330
47
100
AcDbScale
 70
     0
300
1:1
140
1.0
141
1.0
290
     1
  0
SCALE
  5
49
102
{ACAD_REACTORS
330
47
102
}
330
47
100
AcDbScale
 70
     0
300
1:2
140
1.0
141
2.0
290
     0
  0
SCALE
  5
4A
102
{ACAD_REACTORS
330
47
102
}
330
47
100
AcDbScale
 70
     0
300
1:4
140
1.0
141
4.0
290
     0
  0
SCALE
  5
4B
102
{ACAD_REACTORS
330
47
102
}
330
47
100
AcDbScale
 70
     0
300
1:5
140
1.0
141
5.0
290
     0
  0
SCALE
  5
4C
102
{ACAD_REACTORS
330
47
102
}
330
47
100
AcDbScale
 70
     0
300
1:8
140
1.0
141
8.0
290
     0
  0
SCALE
  5
4D
102
{ACAD_REACTORS
330
47
102
}
330
47
100
AcDbScale
 70
     0
300
1:10
140
1.0
141
10.0
290
     0
  0
SCALE
  5
4E
102
{ACAD_REACTORS
330
47
102
}
330
47
100
AcDbScale
 70
     0
300
1:16
140
1.0
141
16.0
290
     0
  0
SCALE
  5
4F
102
{ACAD_REACTORS
330
47
102
}
330
47
100
AcDbScale
 70
     0
300
1:20
140
1.0
141
20.0
290
     0
  0
SCALE
  5
50
102
{ACAD_REACTORS
330
47
102
}
330
47
100
AcDbScale
 70
     0
300
1:30
140
1.0
141
30.0
290
     0
  0
SCALE
  5
51
102
{ACAD_REACTORS
330
47
102
}
330
47
100
AcDbScale
 70
     0
300
1:40
140
1.0
141
40.0
290
     0
  0
SCALE
  5
52
102
{ACAD_REACTORS
330
47
102
}
330
47
100
AcDbScale
 70
     0
300
1:50
140
1.0
141
50.0
290
     0
  0
SCALE
  5
53
102
{ACAD_REACTORS
330
47
102
}
330
47
100
AcDbScale
 70
     0
300
1:100
140
1.0
141
100.0
290
     0
  0
SCALE
  5
54
102
{ACAD_REACTORS
330
47
102
}
330
47
100
AcDbScale
 70
     0
300
2:1
140
2.0
141
1.0
290
     0
  0
SCALE
  5
55
102
{ACAD_REACTORS
330
47
102
}
330
47
100
AcDbScale
 70
     0
300
4:1
140
4.0
141
1.0
290
     0
  0
SCALE
  5
56
102
{ACAD_REACTORS
330
47
102
}
330
47
100
AcDbScale
 70
     0
300
8:1
140
8.0
141
1.0
290
     0
  0
SCALE
  5
57
102
{ACAD_REACTORS
330
47
102
}
330
47
100
AcDbScale
 70
     0
300
10:1
140
10.0
141
1.0
290
     0
  0
SCALE
  5
58
102
{ACAD_REACTORS
330
47
102
}
330
47
100
AcDbScale
 70
     0
300
100:1
140
100.0
141
1.0
290
     0
  0
ENDSEC
  0
EOF
