  0
SECTION
  2
HEADER
  9
$ACADVER
  1
AC1015
  9
$ACADMAINTVER
 70
     6
  9
$DWGCODEPAGE
  3
ANSI_936
  9
$INSBASE
 10
0.0
 20
0.0
 30
0.0
  9
$EXTMIN
 10
-49.0
 20
-49.0
 30
0.0
  9
$EXTMAX
 10
49.0
 20
49.0
 30
0.0
  9
$LIMMIN
 10
0.0
 20
0.0
  9
$LIMMAX
 10
420.0
 20
297.0
  9
$ORTHOMODE
 70
     0
  9
$REGENMODE
 70
     1
  9
$FILLMODE
 70
     1
  9
$QTEXTMODE
 70
     0
  9
$MIRRTEXT
 70
     1
  9
$LTSCALE
 40
1.0
  9
$ATTMODE
 70
     1
  9
$TEXTSIZE
 40
6.35
  9
$TRACEWID
 40
1.0
  9
$TEXTSTYLE
  7
Standard
  9
$CLAYER
  8
0
  9
$CELTYPE
  6
ByLayer
  9
$CECOLOR
 62
   256
  9
$CELTSCALE
 40
1.0
  9
$DISPSILH
 70
     0
  9
$DIMSCALE
 40
1.0
  9
$DIMASZ
 40
6.0
  9
$DIMEXO
 40
0.0
  9
$DIMDLI
 40
3.75
  9
$DIMRND
 40
0.0
  9
$DIMDLE
 40
0.0
  9
$DIMEXE
 40
1.0
  9
$DIMTP
 40
0.0
  9
$DIMTM
 40
0.0
  9
$DIMTXT
 40
6.35
  9
$DIMCEN
 40
2.5
  9
$DIMTSZ
 40
0.0
  9
$DIMTOL
 70
     0
  9
$DIMLIM
 70
     0
  9
$DIMTIH
 70
     1
  9
$DIMTOH
 70
     1
  9
$DIMSE1
 70
     0
  9
$DIMSE2
 70
     0
  9
$DIMTAD
 70
     0
  9
$DIMZIN
 70
     0
  9
$DIMBLK
  1

  9
$DIMASO
 70
     1
  9
$DIMSHO
 70
     1
  9
$DIMPOST
  1

  9
$DIMAPOST
  1

  9
$DIMALT
 70
     0
  9
$DIMALTD
 70
     3
  9
$DIMALTF
 40
0.0393700787
  9
$DIMLFAC
 40
1.0
  9
$DIMTOFL
 70
     1
  9
$DIMTVP
 40
0.0
  9
$DIMTIX
 70
     0
  9
$DIMSOXD
 70
     0
  9
$DIMSAH
 70
     0
  9
$DIMBLK1
  1

  9
$DIMBLK2
  1

  9
$DIMSTYLE
  2
ISO-25
  9
$DIMCLRD
 70
     0
  9
$DIMCLRE
 70
     0
  9
$DIMCLRT
 70
     0
  9
$DIMTFAC
 40
1.0
  9
$DIMGAP
 40
1.524
  9
$DIMJUST
 70
     0
  9
$DIMSD1
 70
     0
  9
$DIMSD2
 70
     0
  9
$DIMTOLJ
 70
     0
  9
$DIMTZIN
 70
     0
  9
$DIMALTZ
 70
     0
  9
$DIMALTTZ
 70
     0
  9
$DIMUPT
 70
     0
  9
$DIMDEC
 70
     3
  9
$DIMTDEC
 70
     2
  9
$DIMALTU
 70
     2
  9
$DIMALTTD
 70
     3
  9
$DIMTXSTY
  7
Standard
  9
$DIMAUNIT
 70
     0
  9
$DIMADEC
 70
     6
  9
$DIMALTRND
 40
0.0
  9
$DIMAZIN
 70
     0
  9
$DIMDSEP
 70
    44
  9
$DIMATFIT
 70
     3
  9
$DIMFRAC
 70
     0
  9
$DIMLDRBLK
  1

  9
$DIMLUNIT
 70
     2
  9
$DIMLWD
 70
    -2
  9
$DIMLWE
 70
    -2
  9
$DIMTMOVE
 70
     0
  9
$LUNITS
 70
     2
  9
$LUPREC
 70
     3
  9
$SKETCHINC
 40
1.0
  9
$FILLETRAD
 40
0.0
  9
$AUNITS
 70
     0
  9
$AUPREC
 70
     6
  9
$MENU
  1
.
  9
$ELEVATION
 40
0.0
  9
$PELEVATION
 40
0.0
  9
$THICKNESS
 40
0.0
  9
$LIMCHECK
 70
     0
  9
$CHAMFERA
 40
0.0
  9
$CHAMFERB
 40
0.0
  9
$CHAMFERC
 40
0.0
  9
$CHAMFERD
 40
0.0
  9
$SKPOLY
 70
     0
  9
$TDCREATE
 40
2460362.994965695
  9
$TDUCREATE
 40
2460363.203299028
  9
$TDUPDATE
 40
2460362.995052558
  9
$TDUUPDATE
 40
2460363.203385892
  9
$TDINDWG
 40
0.0000000116
  9
$TDUSRTIMER
 40
0.0000000116
  9
$USRTIMER
 70
     1
  9
$ANGBASE
 50
0.0
  9
$ANGDIR
 70
     0
  9
$PDMODE
 70
     0
  9
$PDSIZE
 40
-1.0
  9
$PLINEWID
 40
0.0
  9
$SPLFRAME
 70
     0
  9
$SPLINETYPE
 70
     6
  9
$SPLINESEGS
 70
     8
  9
$HANDSEED
  5
608
  9
$SURFTAB1
 70
     6
  9
$SURFTAB2
 70
     6
  9
$SURFTYPE
 70
     6
  9
$SURFU
 70
     6
  9
$SURFV
 70
     6
  9
$UCSBASE
  2

  9
$UCSNAME
  2

  9
$UCSORG
 10
0.0
 20
0.0
 30
0.0
  9
$UCSXDIR
 10
1.0
 20
0.0
 30
0.0
  9
$UCSYDIR
 10
0.0
 20
1.0
 30
0.0
  9
$UCSORTHOREF
  2

  9
$UCSORTHOVIEW
 70
     0
  9
$UCSORGTOP
 10
0.0
 20
0.0
 30
0.0
  9
$UCSORGBOTTOM
 10
0.0
 20
0.0
 30
0.0
  9
$UCSORGLEFT
 10
0.0
 20
0.0
 30
0.0
  9
$UCSORGRIGHT
 10
0.0
 20
0.0
 30
0.0
  9
$UCSORGFRONT
 10
0.0
 20
0.0
 30
0.0
  9
$UCSORGBACK
 10
0.0
 20
0.0
 30
0.0
  9
$PUCSBASE
  2

  9
$PUCSNAME
  2

  9
$PUCSORG
 10
0.0
 20
0.0
 30
0.0
  9
$PUCSXDIR
 10
1.0
 20
0.0
 30
0.0
  9
$PUCSYDIR
 10
0.0
 20
1.0
 30
0.0
  9
$PUCSORTHOREF
  2

  9
$PUCSORTHOVIEW
 70
     0
  9
$PUCSORGTOP
 10
0.0
 20
0.0
 30
0.0
  9
$PUCSORGBOTTOM
 10
0.0
 20
0.0
 30
0.0
  9
$PUCSORGLEFT
 10
0.0
 20
0.0
 30
0.0
  9
$PUCSORGRIGHT
 10
0.0
 20
0.0
 30
0.0
  9
$PUCSORGFRONT
 10
0.0
 20
0.0
 30
0.0
  9
$PUCSORGBACK
 10
0.0
 20
0.0
 30
0.0
  9
$USERI1
 70
     0
  9
$USERI2
 70
     0
  9
$USERI3
 70
     0
  9
$USERI4
 70
     0
  9
$USERI5
 70
     0
  9
$USERR1
 40
0.0
  9
$USERR2
 40
0.0
  9
$USERR3
 40
0.0
  9
$USERR4
 40
0.0
  9
$USERR5
 40
0.0
  9
$WORLDVIEW
 70
     1
  9
$SHADEDGE
 70
     3
  9
$SHADEDIF
 70
    70
  9
$TILEMODE
 70
     1
  9
$MAXACTVP
 70
    64
  9
$PINSBASE
 10
0.0
 20
0.0
 30
0.0
  9
$PLIMCHECK
 70
     0
  9
$PEXTMIN
 10
-49.0
 20
-49.0
 30
0.0
  9
$PEXTMAX
 10
49.0
 20
49.0
 30
0.0
  9
$PLIMMIN
 10
-59.0512820513
 20
-52.7692307692
  9
$PLIMMAX
 10
90.2102564103
 20
52.7692307692
  9
$UNITMODE
 70
     0
  9
$VISRETAIN
 70
     1
  9
$PLINEGEN
 70
     0
  9
$PSLTSCALE
 70
     1
  9
$TREEDEPTH
 70
  3020
  9
$CMLSTYLE
  2
Standard
  9
$CMLJUST
 70
     0
  9
$CMLSCALE
 40
20.0
  9
$PROXYGRAPHICS
 70
     1
  9
$MEASUREMENT
 70
     1
  9
$CELWEIGHT
370
    -1
  9
$ENDCAPS
280
     0
  9
$JOINSTYLE
280
     0
  9
$LWDISPLAY
290
     1
  9
$INSUNITS
 70
     4
  9
$HYPERLINKBASE
  1

  9
$STYLESHEET
  1

  9
$XEDIT
290
     1
  9
$CEPSNTYPE
380
     0
  9
$PSTYLEMODE
290
     1
  9
$FINGERPRINTGUID
  2
{495cd3b1-e2aa-4af8-87d8-16f38c6716e3}
  9
$VERSIONGUID
  2
{FAEB1C32-E019-11D5-929B-00C0DF256EC4}
  9
$EXTNAMES
290
     1
  9
$PSVPSCALE
 40
0.0
  9
$OLESTARTUP
290
     0
  0
ENDSEC
  0
SECTION
  2
CLASSES
  0
CLASS
  1
ACDBDICTIONARYWDFLT
  2
AcDbDictionaryWithDefault
  3
ObjectDBX Classes
 90
        0
280
     0
281
     0
  0
CLASS
  1
VISUALSTYLE
  2
AcDbVisualStyle
  3
ObjectDBX Classes
 90
     4095
280
     0
281
     0
  0
CLASS
  1
MATERIAL
  2
AcDbMaterial
  3
ObjectDBX Classes
 90
     1153
280
     0
281
     0
  0
CLASS
  1
SCALE
  2
AcDbScale
  3
ObjectDBX Classes
 90
     1153
280
     0
281
     0
  0
CLASS
  1
TABLESTYLE
  2
AcDbTableStyle
  3
ObjectDBX Classes
 90
     4095
280
     0
281
     0
  0
CLASS
  1
MLEADERSTYLE
  2
AcDbMLeaderStyle
  3
ACDB_MLEADERSTYLE_CLASS
 90
     4095
280
     0
281
     0
  0
CLASS
  1
SUN
  2
AcDbSun
  3
SCENEOE
 90
     1153
280
     0
281
     0
  0
CLASS
  1
ACDBPLACEHOLDER
  2
AcDbPlaceHolder
  3
ObjectDBX Classes
 90
        0
280
     0
281
     0
  0
CLASS
  1
LAYOUT
  2
AcDbLayout
  3
ObjectDBX Classes
 90
        0
280
     0
281
     0
  0
ENDSEC
  0
SECTION
  2
TABLES
  0
TABLE
  2
VPORT
  5
8
330
0
100
AcDbSymbolTable
 70
     1
  0
VPORT
  5
29
330
8
100
AcDbSymbolTableRecord
100
AcDbViewportTableRecord
  2
*Active
 70
     0
 10
0.0
 20
0.0
 11
1.0
 21
1.0
 12
0.0
 22
0.0
 13
0.0
 23
0.0
 14
10.0
 24
10.0
 15
10.0
 25
10.0
 16
0.0
 26
0.0
 36
1.0
 17
0.0
 27
0.0
 37
0.0
 40
99.96
 41
1.0
 42
50.0
 43
0.0
 44
0.0
 50
0.0
 51
0.0
 71
     0
 72
   100
 73
     1
 74
     3
 75
     0
 76
     0
 77
     0
 78
     0
281
     0
 65
     1
110
0.0
120
0.0
130
0.0
111
1.0
121
0.0
131
0.0
112
0.0
122
1.0
132
0.0
 79
     0
146
0.0
  0
ENDTAB
  0
TABLE
  2
LTYPE
  5
5
330
0
100
AcDbSymbolTable
 70
     6
  0
LTYPE
  5
14
330
5
100
AcDbSymbolTableRecord
100
AcDbLinetypeTableRecord
  2
ByBlock
 70
     0
  3

 72
    65
 73
     0
 40
0.0
  0
LTYPE
  5
15
330
5
100
AcDbSymbolTableRecord
100
AcDbLinetypeTableRecord
  2
ByLayer
 70
     0
  3

 72
    65
 73
     0
 40
0.0
  0
LTYPE
  5
16
330
5
100
AcDbSymbolTableRecord
100
AcDbLinetypeTableRecord
  2
Continuous
 70
     0
  3
Solid line
 72
    65
 73
     0
 40
0.0
  0
LTYPE
  5
5E
330
5
100
AcDbSymbolTableRecord
100
AcDbLinetypeTableRecord
  2
HIDDEN
 70
     0
  3
Hidden __ __ __ __ __ __ __ __ __ __ __ __ __ __
 72
    65
 73
     2
 40
1.905
 49
1.27
 74
     0
 49
-0.635
 74
     0
  0
LTYPE
  5
5F
330
5
100
AcDbSymbolTableRecord
100
AcDbLinetypeTableRecord
  2
PHANTOM
 70
     0
  3
Phantom ______  __  __  ______  __  __  ______
 72
    65
 73
     6
 40
12.7
 49
6.35
 74
     0
 49
-1.27
 74
     0
 49
1.27
 74
     0
 49
-1.27
 74
     0
 49
1.27
 74
     0
 49
-1.27
 74
     0
  0
LTYPE
  5
60
330
5
100
AcDbSymbolTableRecord
100
AcDbLinetypeTableRecord
  2
CENTER
 70
     0
  3
Center ____ _ ____ _ ____ _ ____ _ ____ _ ____
 72
    65
 73
     4
 40
10.16
 49
6.35
 74
     0
 49
-1.27
 74
     0
 49
1.27
 74
     0
 49
-1.27
 74
     0
  0
LTYPE
  5
61
330
5
100
AcDbSymbolTableRecord
100
AcDbLinetypeTableRecord
  2
CENTERX2
 70
     0
  3
Center (2x) ________  __  ________  __  _____
 72
    65
 73
     4
 40
20.32
 49
12.7
 74
     0
 49
-2.54
 74
     0
 49
2.54
 74
     0
 49
-2.54
 74
     0
  0
LTYPE
  5
62
330
5
100
AcDbSymbolTableRecord
100
AcDbLinetypeTableRecord
  2
DOT2
 70
     0
  3
Dot (.5x) ........................................
 72
    65
 73
     2
 40
0.635
 49
0.0
 74
     0
 49
-0.635
 74
     0
  0
ENDTAB
  0
TABLE
  2
LAYER
  5
2
330
0
100
AcDbSymbolTable
 70
     1
  0
LAYER
  5
10
330
2
100
AcDbSymbolTableRecord
100
AcDbLayerTableRecord
  2
0
 70
     0
 62
     7
  6
Continuous
370
    -3
390
F
  0
ENDTAB
  0
TABLE
  2
STYLE
  5
3
330
0
100
AcDbSymbolTable
 70
     1
  0
STYLE
  5
11
330
3
100
AcDbSymbolTableRecord
100
AcDbTextStyleTableRecord
  2
Standard
 70
     0
 40
0.0
 41
1.0
 50
0.0
 71
     0
 42
6.35
  3
txt
  4

  0
ENDTAB
  0
TABLE
  2
VIEW
  5
6
330
0
100
AcDbSymbolTable
 70
     0
  0
ENDTAB
  0
TABLE
  2
UCS
  5
7
330
0
100
AcDbSymbolTable
 70
     0
  0
ENDTAB
  0
TABLE
  2
APPID
  5
9
330
0
100
AcDbSymbolTable
 70
     1
  0
APPID
  5
12
330
9
100
AcDbSymbolTableRecord
100
AcDbRegAppTableRecord
  2
ACAD
 70
     0
  0
ENDTAB
  0
TABLE
  2
DIMSTYLE
  5
A
330
0
100
AcDbSymbolTable
 70
     1
100
AcDbDimStyleTable
  0
DIMSTYLE
105
27
330
A
100
AcDbSymbolTableRecord
100
AcDbDimStyleTableRecord
  2
ISO-25
 70
     0
 41
2.5
 42
0.625
 43
3.75
 44
1.25
 73
     0
 74
     0
 77
     1
 78
     8
140
2.5
141
2.5
143
0.0393700787
147
0.625
171
     3
172
     1
178
     0
271
     2
272
     2
274
     3
278
    44
283
     0
284
     8
340
11
  0
ENDTAB
  0
TABLE
  2
BLOCK_RECORD
  5
1
330
0
100
AcDbSymbolTable
 70
     1
  0
BLOCK_RECORD
  5
1F
330
1
100
AcDbSymbolTableRecord
100
AcDbBlockTableRecord
  2
*Model_Space
340
22
  0
BLOCK_RECORD
  5
1B
330
1
100
AcDbSymbolTableRecord
100
AcDbBlockTableRecord
  2
*Paper_Space
340
1E
  0
BLOCK_RECORD
  5
23
330
1
100
AcDbSymbolTableRecord
100
AcDbBlockTableRecord
  2
*Paper_Space0
340
26
  0
ENDTAB
  0
ENDSEC
  0
SECTION
  2
BLOCKS
  0
BLOCK
  5
20
330
1F
100
AcDbEntity
  8
0
100
AcDbBlockBegin
  2
*Model_Space
 70
     0
 10
0.0
 20
0.0
 30
0.0
  3
*Model_Space
  1

  0
ENDBLK
  5
21
330
1F
100
AcDbEntity
  8
0
100
AcDbBlockEnd
  0
BLOCK
  5
1C
330
1B
100
AcDbEntity
 67
     1
  8
0
100
AcDbBlockBegin
  2
*Paper_Space
 70
     0
 10
0.0
 20
0.0
 30
0.0
  3
*Paper_Space
  1

  0
ENDBLK
  5
1D
330
1B
100
AcDbEntity
 67
     1
  8
0
100
AcDbBlockEnd
  0
BLOCK
  5
24
330
23
100
AcDbEntity
  8
0
100
AcDbBlockBegin
  2
*Paper_Space0
 70
     0
 10
0.0
 20
0.0
 30
0.0
  3
*Paper_Space0
  1

  0
ENDBLK
  5
25
330
23
100
AcDbEntity
  8
0
100
AcDbBlockEnd
  0
ENDSEC
  0
SECTION
  2
ENTITIES
  0
CIRCLE
  5
1C9
330
1F
100
AcDbEntity
  8
0
  6
Continuous
 62
     7
370
    25
100
AcDbCircle
 10
0.0
 20
0.0
 30
0.0
 40
48.99999999999996
  0
ARC
  5
1CC
330
1F
100
AcDbEntity
  8
0
  6
Continuous
 62
     7
370
    25
100
AcDbCircle
 10
0.0
 20
-0.0000000003
 30
0.0
 40
44.00000000027112
100
AcDbArc
 50
87.584339138
 51
88.415660862
  0
ARC
  5
1CD
330
1F
100
AcDbEntity
  8
0
  6
Continuous
 62
     7
370
    25
100
AcDbCircle
 10
-20.2903267165
 20
37.3721950885
 30
0.0
 40
22.4999999999992
100
AcDbArc
 50
17.0868838328
 51
23.237446933
  0
ARC
  5
1CE
330
1F
100
AcDbEntity
  8
0
  6
Continuous
 62
     7
370
    25
100
AcDbCircle
 10
0.0
 20
0.0000000002
 30
0.0
 40
46.2509999997908
100
AcDbArc
 50
89.5237735224
 51
90.4762264776
  0
ARC
  5
1CF
330
1F
100
AcDbEntity
  8
0
  6
Continuous
 62
     7
370
    25
100
AcDbCircle
 10
20.2903267165
 20
37.3721950885
 30
0.0
 40
22.4999999999999
100
AcDbArc
 50
156.762553067
 51
162.9131161672
  0
ARC
  5
1D0
330
1F
100
AcDbEntity
  8
0
  6
Continuous
 62
     7
370
    25
100
AcDbCircle
 10
0.0
 20
-0.0000000001
 30
0.0
 40
44.00000000014626
100
AcDbArc
 50
91.584339138
 51
92.415660862
  0
ARC
  5
1D1
330
1F
100
AcDbEntity
  8
0
  6
Continuous
 62
     7
370
    25
100
AcDbCircle
 10
-22.8478530458
 20
35.8657766567
 30
0.0
 40
22.50000000000275
100
AcDbArc
 50
21.0868838328
 51
27.237446933
  0
ARC
  5
1D2
330
1F
100
AcDbEntity
  8
0
  6
Continuous
 62
     7
370
    25
100
AcDbCircle
 10
0.0
 20
0.0
 30
0.0
 40
46.25099999998787
100
AcDbArc
 50
93.5237735224
 51
94.4762264776
  0
ARC
  5
1D3
330
1F
100
AcDbEntity
  8
0
  6
Continuous
 62
     7
370
    25
100
AcDbCircle
 10
17.6339479549
 20
38.6965399424
 30
0.0
 40
22.49999999999962
100
AcDbArc
 50
160.762553067
 51
166.9131161672
  0
ARC
  5
1D4
330
1F
100
AcDbEntity
  8
0
  6
Continuous
 62
     7
370
    25
100
AcDbCircle
 10
0.0
 20
0.0
 30
0.0
 40
44.00000000004387
100
AcDbArc
 50
95.584339138
 51
96.415660862
  0
ARC
  5
1D5
330
1F
100
AcDbEntity
  8
0
  6
Continuous
 62
     7
370
    25
100
AcDbCircle
 10
-25.2940669318
 20
34.1846237663
 30
0.0
 40
22.50000000000056
100
AcDbArc
 50
25.0868838328
 51
31.237446933
  0
ARC
  5
1D6
330
1F
100
AcDbEntity
  8
0
  6
Continuous
 62
     7
370
    25
100
AcDbCircle
 10
0.0
 20
0.0000000001
 30
0.0
 40
46.25099999992777
100
AcDbArc
 50
97.5237735224
 51
98.4762264776
  0
ARC
  5
1D7
330
1F
100
AcDbEntity
  8
0
  6
Continuous
 62
     7
370
    25
100
AcDbCircle
 10
14.8916583715
 20
39.8323591436
 30
0.0
 40
22.50000000000096
100
AcDbArc
 50
164.762553067
 51
170.9131161672
  0
ARC
  5
1D8
330
1F
100
AcDbEntity
  8
0
  6
Continuous
 62
     7
370
    25
100
AcDbCircle
 10
0.0
 20
0.0
 30
0.0
 40
44.00000000000253
100
AcDbArc
 50
99.584339138
 51
100.415660862
  0
ARC
  5
1D9
330
1F
100
AcDbEntity
  8
0
  6
Continuous
 62
     7
370
    25
100
AcDbCircle
 10
-27.6170506662
 20
32.3369268251
 30
0.0
 40
22.4999999999993
100
AcDbArc
 50
29.0868838328
 51
35.237446933
  0
ARC
  5
1DA
330
1F
100
AcDbEntity
  8
0
  6
Continuous
 62
     7
370
    25
100
AcDbCircle
 10
0.0
 20
0.0
 30
0.0
 40
46.25099999999836
100
AcDbArc
 50
101.5237735224
 51
102.4762264776
  0
ARC
  5
1DB
330
1F
100
AcDbEntity
  8
0
  6
Continuous
 62
     7
370
    25
100
AcDbCircle
 10
12.0768181254
 20
40.7741190948
 30
0.0
 40
22.49999999999985
100
AcDbArc
 50
168.762553067
 51
174.9131161672
  0
ARC
  5
1DC
330
1F
100
AcDbEntity
  8
0
  6
Continuous
 62
     7
370
    25
100
AcDbCircle
 10
0.0
 20
-0.0000000002
 30
0.0
 40
44.00000000016677
100
AcDbArc
 50
103.584339138
 51
104.415660862
  0
ARC
  5
1DD
330
1F
100
AcDbEntity
  8
0
  6
Continuous
 62
     7
370
    25
100
AcDbCircle
 10
-29.8054869059
 20
30.3316876269
 30
0.0
 40
22.50000000000123
100
AcDbArc
 50
33.0868838328
 51
39.237446933
  0
ARC
  5
1DE
330
1F
100
AcDbEntity
  8
0
  6
Continuous
 62
     7
370
    25
100
AcDbCircle
 10
0.0
 20
0.0000000001
 30
0.0
 40
46.25099999992131
100
AcDbArc
 50
105.5237735224
 51
106.4762264776
  0
ARC
  5
1DF
330
1F
100
AcDbEntity
  8
0
  6
Continuous
 62
     7
370
    25
100
AcDbCircle
 10
9.2031408353
 20
41.5172316365
 30
0.0
 40
22.49999999999716
100
AcDbArc
 50
172.762553067
 51
178.9131161672
  0
ARC
  5
1E0
330
1F
100
AcDbEntity
  8
0
  6
Continuous
 62
     7
370
    25
100
AcDbCircle
 10
-0.0000000001
 20
0.0000000002
 30
0.0
 40
43.99999999981832
100
AcDbArc
 50
107.584339138
 51
108.415660862
  0
ARC
  5
1E1
330
1F
100
AcDbEntity
  8
0
  6
Continuous
 62
     7
370
    25
100
AcDbCircle
 10
-31.8487138094
 20
28.1786754956
 30
0.0
 40
22.49999999999735
100
AcDbArc
 50
37.0868838328
 51
43.237446933
  0
ARC
  5
1E2
330
1F
100
AcDbEntity
  8
0
  6
Continuous
 62
     7
370
    25
100
AcDbCircle
 10
0.0
 20
0.0000000001
 30
0.0
 40
46.25099999986521
100
AcDbArc
 50
109.5237735224
 51
110.4762264776
  0
ARC
  5
1E3
330
1F
100
AcDbEntity
  8
0
  6
Continuous
 62
     7
370
    25
100
AcDbCircle
 10
6.2846267682
 20
42.0580763989
 30
0.0
 40
22.50000000000318
100
AcDbArc
 50
176.762553067
 51
182.9131161672
  0
ARC
  5
1E4
330
1F
100
AcDbEntity
  8
0
  6
Continuous
 62
     7
370
    25
100
AcDbCircle
 10
-0.0000000001
 20
0.0000000002
 30
0.0
 40
43.99999999977294
100
AcDbArc
 50
111.584339138
 51
112.415660862
  0
ARC
  5
1E5
330
1F
100
AcDbEntity
  8
0
  6
Continuous
 62
     7
370
    25
100
AcDbCircle
 10
-33.7367769806
 20
25.8883796897
 30
0.0
 40
22.49999999999914
100
AcDbArc
 50
41.0868838328
 51
47.237446933
  0
ARC
  5
1E6
330
1F
100
AcDbEntity
  8
0
  6
Continuous
 62
     7
370
    25
100
AcDbCircle
 10
-0.0000000001
 20
0.0000000001
 30
0.0
 40
46.2509999998395
100
AcDbArc
 50
113.5237735224
 51
114.4762264776
  0
ARC
  5
1E7
330
1F
100
AcDbEntity
  8
0
  6
Continuous
 62
     7
370
    25
100
AcDbCircle
 10
3.3354946312
 20
42.3940184408
 30
0.0
 40
22.49999999999732
100
AcDbArc
 50
180.762553067
 51
186.9131161672
  0
ARC
  5
1E8
330
1F
100
AcDbEntity
  8
0
  6
Continuous
 62
     7
370
    25
100
AcDbCircle
 10
0.0000000001
 20
-0.0000000001
 30
0.0
 40
44.00000000012815
100
AcDbArc
 50
115.584339138
 51
116.415660862
  0
ARC
  5
1E9
330
1F
100
AcDbEntity
  8
0
  6
Continuous
 62
     7
370
    25
100
AcDbCircle
 10
-35.4604779656
 20
23.4719583002
 30
0.0
 40
22.49999999999947
100
AcDbArc
 50
45.0868838328
 51
51.237446933
  0
ARC
  5
1EA
330
1F
100
AcDbEntity
  8
0
  6
Continuous
 62
     7
370
    25
100
AcDbCircle
 10
-0.0000000001
 20
0.0000000001
 30
0.0
 40
46.25099999983427
100
AcDbArc
 50
117.5237735224
 51
118.4762264776
  0
ARC
  5
1EB
330
1F
100
AcDbEntity
  8
0
  6
Continuous
 62
     7
370
    25
100
AcDbCircle
 10
0.3701122997
 20
42.5234210863
 30
0.0
 40
22.5000000000007
100
AcDbArc
 50
184.762553067
 51
190.9131161672
  0
ARC
  5
1EC
330
1F
100
AcDbEntity
  8
0
  6
Continuous
 62
     7
370
    25
100
AcDbCircle
 10
-0.0000000001
 20
0.0000000002
 30
0.0
 40
43.99999999982455
100
AcDbArc
 50
119.584339138
 51
120.415660862
  0
ARC
  5
1ED
330
1F
100
AcDbEntity
  8
0
  6
Continuous
 62
     7
370
    25
100
AcDbCircle
 10
-37.0114190664
 20
20.9411838894
 30
0.0
 40
22.49999999999752
100
AcDbArc
 50
49.0868838328
 51
55.237446933
  0
ARC
  5
1EE
330
1F
100
AcDbEntity
  8
0
  6
Continuous
 62
     7
370
    25
100
AcDbCircle
 10
0.0
 20
0.0000000001
 30
0.0
 40
46.25099999993952
100
AcDbArc
 50
121.5237735224
 51
122.4762264776
  0
ARC
  5
1EF
330
1F
100
AcDbEntity
  8
0
  6
Continuous
 62
     7
370
    25
100
AcDbCircle
 10
-2.5970731818
 20
42.4456538986
 30
0.0
 40
22.50000000000123
100
AcDbArc
 50
188.762553067
 51
194.9131161672
  0
ARC
  5
1F0
330
1F
100
AcDbEntity
  8
0
  6
Continuous
 62
     7
370
    25
100
AcDbCircle
 10
0.0
 20
0.0
 30
0.0
 40
43.9999999999668
100
AcDbArc
 50
123.584339138
 51
124.415660862
  0
ARC
  5
1F1
330
1F
100
AcDbEntity
  8
0
  6
Continuous
 62
     7
370
    25
100
AcDbCircle
 10
-38.3820442539
 20
18.3083861356
 30
0.0
 40
22.49999999999876
100
AcDbArc
 50
53.0868838328
 51
59.237446933
  0
ARC
  5
1F2
330
1F
100
AcDbEntity
  8
0
  6
Continuous
 62
     7
370
    25
100
AcDbCircle
 10
-0.0000000002
 20
0.0000000002
 30
0.0
 40
46.25099999969301
100
AcDbArc
 50
125.5237735224
 51
126.4762264776
  0
ARC
  5
1F3
330
1F
100
AcDbEntity
  8
0
  6
Continuous
 62
     7
370
    25
100
AcDbCircle
 10
-5.5516059838
 20
42.1610957518
 30
0.0
 40
22.50000000000192
100
AcDbArc
 50
192.762553067
 51
198.9131161672
  0
ARC
  5
1F4
330
1F
100
AcDbEntity
  8
0
  6
Continuous
 62
     7
370
    25
100
AcDbCircle
 10
0.0
 20
0.0
 30
0.0
 40
43.9999999999608
100
AcDbArc
 50
127.584339138
 51
128.415660862
  0
ARC
  5
1F5
330
1F
100
AcDbEntity
  8
0
  6
Continuous
 62
     7
370
    25
100
AcDbCircle
 10
-39.5656759799
 20
15.5863917649
 30
0.0
 40
22.49999999999491
100
AcDbArc
 50
57.0868838328
 51
63.237446933
  0
ARC
  5
1F6
330
1F
100
AcDbEntity
  8
0
  6
Continuous
 62
     7
370
    25
100
AcDbCircle
 10
-0.0000000001
 20
0.0000000002
 30
0.0
 40
46.25099999977308
100
AcDbArc
 50
129.5237735224
 51
130.4762264776
  0
ARC
  5
1F7
330
1F
100
AcDbEntity
  8
0
  6
Continuous
 62
     7
370
    25
100
AcDbCircle
 10
-8.4790919195
 20
41.6711329845
 30
0.0
 40
22.49999999999757
100
AcDbArc
 50
196.762553067
 51
202.9131161672
  0
ARC
  5
1F8
330
1F
100
AcDbEntity
  8
0
  6
Continuous
 62
     7
370
    25
100
AcDbCircle
 10
0.0000000001
 20
-0.0000000001
 30
0.0
 40
44.00000000010981
100
AcDbArc
 50
131.584339138
 51
132.415660862
  0
ARC
  5
1F9
330
1F
100
AcDbEntity
  8
0
  6
Continuous
 62
     7
370
    25
100
AcDbCircle
 10
-40.5565477097
 20
12.7884620602
 30
0.0
 40
22.49999999999858
100
AcDbArc
 50
61.0868838328
 51
67.237446933
  0
ARC
  5
1FA
330
1F
100
AcDbEntity
  8
0
  6
Continuous
 62
     7
370
    25
100
AcDbCircle
 10
-0.0000000001
 20
0.0000000001
 30
0.0
 40
46.25099999985937
100
AcDbArc
 50
133.5237735224
 51
134.4762264776
  0
ARC
  5
1FB
330
1F
100
AcDbEntity
  8
0
  6
Continuous
 62
     7
370
    25
100
AcDbCircle
 10
-11.3652685716
 20
40.9781526461
 30
0.0
 40
22.50000000000227
100
AcDbArc
 50
200.762553067
 51
206.9131161672
  0
ARC
  5
1FC
330
1F
100
AcDbEntity
  8
0
  6
Continuous
 62
     7
370
    25
100
AcDbCircle
 10
-0.0000000001
 20
0.0000000001
 30
0.0
 40
43.99999999989769
100
AcDbArc
 50
135.584339138
 51
136.415660862
  0
ARC
  5
1FD
330
1F
100
AcDbEntity
  8
0
  6
Continuous
 62
     7
370
    25
100
AcDbCircle
 10
-41.3498320158
 20
9.9282282539
 30
0.0
 40
22.49999999999684
100
AcDbArc
 50
65.0868838328
 51
71.237446933
  0
ARC
  5
1FE
330
1F
100
AcDbEntity
  8
0
  6
Continuous
 62
     7
370
    25
100
AcDbCircle
 10
0.0000000001
 20
-0.0000000001
 30
0.0
 40
46.25100000014923
100
AcDbArc
 50
137.5237735224
 51
138.4762264776
  0
ARC
  5
1FF
330
1F
100
AcDbEntity
  8
0
  6
Continuous
 62
     7
370
    25
100
AcDbCircle
 10
-14.1960747777
 20
40.0855308671
 30
0.0
 40
22.50000000000205
100
AcDbArc
 50
204.762553067
 51
210.9131161672
  0
ARC
  5
200
330
1F
100
AcDbEntity
  8
0
  6
Continuous
 62
     7
370
    25
100
AcDbCircle
 10
0.0000000001
 20
-0.0000000001
 30
0.0
 40
44.00000000018947
100
AcDbArc
 50
139.584339138
 51
140.415660862
  0
ARC
  5
201
330
1F
100
AcDbEntity
  8
0
  6
Continuous
 62
     7
370
    25
100
AcDbCircle
 10
-41.9416640967
 20
7.0196251176
 30
0.0
 40
22.49999999999812
100
AcDbArc
 50
69.0868838328
 51
75.237446933
  0
ARC
  5
202
330
1F
100
AcDbEntity
  8
0
  6
Continuous
 62
     7
370
    25
100
AcDbCircle
 10
-0.0000000001
 20
0.0000000001
 30
0.0
 40
46.25099999981347
100
AcDbArc
 50
141.5237735224
 51
142.4762264776
  0
ARC
  5
203
330
1F
100
AcDbEntity
  8
0
  6
Continuous
 62
     7
370
    25
100
AcDbCircle
 10
-16.9577191345
 20
38.9976164111
 30
0.0
 40
22.49999999999735
100
AcDbArc
 50
208.762553067
 51
214.9131161672
  0
ARC
  5
204
330
1F
100
AcDbEntity
  8
0
  6
Continuous
 62
     7
370
    25
100
AcDbCircle
 10
0.0000000001
 20
-0.0000000001
 30
0.0
 40
44.00000000009638
100
AcDbArc
 50
143.584339138
 51
144.415660862
  0
ARC
  5
205
330
1F
100
AcDbEntity
  8
0
  6
Continuous
 62
     7
370
    25
100
AcDbCircle
 10
-42.3291606062
 20
4.0768230732
 30
0.0
 40
22.50000000000055
100
AcDbArc
 50
73.0868838328
 51
79.237446933
  0
ARC
  5
206
330
1F
100
AcDbEntity
  8
0
  6
Continuous
 62
     7
370
    25
100
AcDbCircle
 10
0.0
 20
0.0
 30
0.0
 40
46.25099999995179
100
AcDbArc
 50
145.5237735224
 51
146.4762264776
  0
ARC
  5
207
330
1F
100
AcDbEntity
  8
0
  6
Continuous
 62
     7
370
    25
100
AcDbCircle
 10
-19.6367471883
 20
37.719709488
 30
0.0
 40
22.49999999999874
100
AcDbArc
 50
212.762553067
 51
218.9131161672
  0
ARC
  5
208
330
1F
100
AcDbEntity
  8
0
  6
Continuous
 62
     7
370
    25
100
AcDbCircle
 10
0.0000000001
 20
-0.0000000001
 30
0.0
 40
44.000000000127
100
AcDbArc
 50
147.584339138
 51
148.415660862
  0
ARC
  5
209
330
1F
100
AcDbEntity
  8
0
  6
Continuous
 62
     7
370
    25
100
AcDbCircle
 10
-42.5104337001
 20
1.1141591567
 30
0.0
 40
22.49999999999854
100
AcDbArc
 50
77.0868838328
 51
83.237446933
  0
ARC
  5
20A
330
1F
100
AcDbEntity
  8
0
  6
Continuous
 62
     7
370
    25
100
AcDbCircle
 10
-0.0000000001
 20
0.0000000001
 30
0.0
 40
46.25099999984613
100
AcDbArc
 50
149.5237735224
 51
150.4762264776
  0
ARC
  5
20B
330
1F
100
AcDbEntity
  8
0
  6
Continuous
 62
     7
370
    25
100
AcDbCircle
 10
-22.2201069836
 20
36.2580359318
 30
0.0
 40
22.500000000001
100
AcDbArc
 50
216.762553067
 51
222.9131161672
  0
ARC
  5
20C
330
1F
100
AcDbEntity
  8
0
  6
Continuous
 62
     7
370
    25
100
AcDbCircle
 10
0.0000000004
 20
-0.0000000002
 30
0.0
 40
44.00000000047985
100
AcDbArc
 50
151.584339138
 51
152.415660862
  0
ARC
  5
20D
330
1F
100
AcDbEntity
  8
0
  6
Continuous
 62
     7
370
    25
100
AcDbCircle
 10
-42.4846002341
 20
-1.8539328312
 30
0.0
 40
22.49999999999885
100
AcDbArc
 50
81.0868838328
 51
87.237446933
  0
ARC
  5
20E
330
1F
100
AcDbEntity
  8
0
  6
Continuous
 62
     7
370
    25
100
AcDbCircle
 10
-0.0000000001
 20
0.0
 30
0.0
 40
46.2509999999069
100
AcDbArc
 50
153.5237735224
 51
154.4762264776
  0
ARC
  5
20F
330
1F
100
AcDbEntity
  8
0
  6
Continuous
 62
     7
370
    25
100
AcDbCircle
 10
-24.6952126513
 20
34.6197168692
 30
0.0
 40
22.49999999999978
100
AcDbArc
 50
220.762553067
 51
226.9131161672
  0
ARC
  5
210
330
1F
100
AcDbEntity
  8
0
  6
Continuous
 62
     7
370
    25
100
AcDbCircle
 10
0.0000000001
 20
-0.0000000001
 30
0.0
 40
44.00000000015763
100
AcDbArc
 50
155.584339138
 51
156.415660862
  0
ARC
  5
211
330
1F
100
AcDbEntity
  8
0
  6
Continuous
 62
     7
370
    25
100
AcDbCircle
 10
-42.2517860663
 20
-4.8129926448
 30
0.0
 40
22.50000000000061
100
AcDbArc
 50
85.0868838328
 51
91.237446933
  0
ARC
  5
212
330
1F
100
AcDbEntity
  8
0
  6
Continuous
 62
     7
370
    25
100
AcDbCircle
 10
0.0
 20
0.0
 30
0.0
 40
46.2509999999489
100
AcDbArc
 50
157.5237735224
 51
158.4762264776
  0
ARC
  5
213
330
1F
100
AcDbEntity
  8
0
  6
Continuous
 62
     7
370
    25
100
AcDbCircle
 10
-27.0500057252
 20
32.812734026
 30
0.0
 40
22.5000000000013
100
AcDbArc
 50
224.762553067
 51
230.9131161672
  0
ARC
  5
214
330
1F
100
AcDbEntity
  8
0
  6
Continuous
 62
     7
370
    25
100
AcDbCircle
 10
0.0
 20
0.0
 30
0.0
 40
43.99999999996695
100
AcDbArc
 50
159.584339138
 51
160.415660862
  0
ARC
  5
215
330
1F
100
AcDbEntity
  8
0
  6
Continuous
 62
     7
370
    25
100
AcDbCircle
 10
-41.813125444
 20
-7.748604042
 30
0.0
 40
22.500000000001
100
AcDbArc
 50
89.0868838328
 51
95.237446933
  0
ARC
  5
216
330
1F
100
AcDbEntity
  8
0
  6
Continuous
 62
     7
370
    25
100
AcDbCircle
 10
-0.0000000002
 20
0.0000000001
 30
0.0
 40
46.25099999982441
100
AcDbArc
 50
161.5237735224
 51
162.4762264776
  0
ARC
  5
217
330
1F
100
AcDbEntity
  8
0
  6
Continuous
 62
     7
370
    25
100
AcDbCircle
 10
-29.2730138904
 20
30.8458908409
 30
0.0
 40
22.5000000000049
100
AcDbArc
 50
228.762553067
 51
234.9131161672
  0
ARC
  5
218
330
1F
100
AcDbEntity
  8
0
  6
Continuous
 62
     7
370
    25
100
AcDbCircle
 10
0.0
 20
0.0
 30
0.0
 40
43.99999999999935
100
AcDbArc
 50
163.584339138
 51
164.415660862
  0
ARC
  5
219
330
1F
100
AcDbEntity
  8
0
  6
Continuous
 62
     7
370
    25
100
AcDbCircle
 10
-41.1707554775
 20
-10.6464650192
 30
0.0
 40
22.50000000000065
100
AcDbArc
 50
93.0868838328
 51
99.237446933
  0
ARC
  5
21A
330
1F
100
AcDbEntity
  8
0
  6
Continuous
 62
     7
370
    25
100
AcDbCircle
 10
-0.0000000001
 20
0.0
 30
0.0
 40
46.25099999984652
100
AcDbArc
 50
165.5237735224
 51
166.4762264776
  0
ARC
  5
21B
330
1F
100
AcDbEntity
  8
0
  6
Continuous
 62
     7
370
    25
100
AcDbCircle
 10
-31.3534068743
 20
28.7287695763
 30
0.0
 40
22.49999999999784
100
AcDbArc
 50
232.762553067
 51
238.9131161672
  0
ARC
  5
21C
330
1F
100
AcDbEntity
  8
0
  6
Continuous
 62
     7
370
    25
100
AcDbCircle
 10
0.0
 20
0.0
 30
0.0
 40
43.99999999998737
100
AcDbArc
 50
167.584339138
 51
168.415660862
  0
ARC
  5
21D
330
1F
100
AcDbEntity
  8
0
  6
Continuous
 62
     7
370
    25
100
AcDbCircle
 10
-40.3278057288
 20
-13.492457489
 30
0.0
 40
22.49999999999837
100
AcDbArc
 50
97.0868838328
 51
103.237446933
  0
ARC
  5
21E
330
1F
100
AcDbEntity
  8
0
  6
Continuous
 62
     7
370
    25
100
AcDbCircle
 10
-0.0000000001
 20
0.0
 30
0.0
 40
46.25099999990024
100
AcDbArc
 50
169.5237735224
 51
170.4762264776
  0
ARC
  5
21F
330
1F
100
AcDbEntity
  8
0
  6
Continuous
 62
     7
370
    25
100
AcDbCircle
 10
-33.2810492117
 20
26.4716846341
 30
0.0
 40
22.50000000000089
100
AcDbArc
 50
236.762553067
 51
242.9131161672
  0
ARC
  5
220
330
1F
100
AcDbEntity
  8
0
  6
Continuous
 62
     7
370
    25
100
AcDbCircle
 10
-0.0000000002
 20
0.0
 30
0.0
 40
43.99999999976793
100
AcDbArc
 50
171.584339138
 51
172.415660862
  0
ARC
  5
221
330
1F
100
AcDbEntity
  8
0
  6
Continuous
 62
     7
370
    25
100
AcDbCircle
 10
-39.2883829644
 20
-16.2727160622
 30
0.0
 40
22.49999999999764
100
AcDbArc
 50
101.0868838328
 51
107.237446933
  0
ARC
  5
222
330
1F
100
AcDbEntity
  8
0
  6
Continuous
 62
     7
370
    25
100
AcDbCircle
 10
-0.0000000002
 20
0.0
 30
0.0
 40
46.25099999982
100
AcDbArc
 50
173.5237735224
 51
174.4762264776
  0
ARC
  5
223
330
1F
100
AcDbEntity
  8
0
  6
Continuous
 62
     7
370
    25
100
AcDbCircle
 10
-35.0465496226
 20
24.0856323052
 30
0.0
 40
22.4999999999979
100
AcDbArc
 50
240.762553067
 51
246.9131161672
  0
ARC
  5
224
330
1F
100
AcDbEntity
  8
0
  6
Continuous
 62
     7
370
    25
100
AcDbCircle
 10
0.0000000001
 20
0.0
 30
0.0
 40
44.00000000013237
100
AcDbArc
 50
175.584339138
 51
176.415660862
  0
ARC
  5
225
330
1F
100
AcDbEntity
  8
0
  6
Continuous
 62
     7
370
    25
100
AcDbCircle
 10
-38.0575511474
 20
-18.9736955984
 30
0.0
 40
22.50000000000172
100
AcDbArc
 50
105.0868838328
 51
111.237446933
  0
ARC
  5
226
330
1F
100
AcDbEntity
  8
0
  6
Continuous
 62
     7
370
    25
100
AcDbCircle
 10
-0.0000000002
 20
0.0
 30
0.0
 40
46.25099999984733
100
AcDbArc
 50
177.5237735224
 51
178.4762264776
  0
ARC
  5
227
330
1F
100
AcDbEntity
  8
0
  6
Continuous
 62
     7
370
    25
100
AcDbCircle
 10
-36.6413067667
 20
21.5822371969
 30
0.0
 40
22.50000000000009
100
AcDbArc
 50
244.762553067
 51
250.9131161672
  0
ARC
  5
228
330
1F
100
AcDbEntity
  8
0
  6
Continuous
 62
     7
370
    25
100
AcDbCircle
 10
0.0000000002
 20
0.0
 30
0.0
 40
44.00000000018863
100
AcDbArc
 50
179.584339138
 51
180.415660862
  0
ARC
  5
229
330
1F
100
AcDbEntity
  8
0
  6
Continuous
 62
     7
370
    25
100
AcDbCircle
 10
-36.6413067667
 20
-21.5822371969
 30
0.0
 40
22.50000000000157
100
AcDbArc
 50
109.0868838328
 51
115.237446933
  0
ARC
  5
22A
330
1F
100
AcDbEntity
  8
0
  6
Continuous
 62
     7
370
    25
100
AcDbCircle
 10
-0.0000000001
 20
0.0
 30
0.0
 40
46.25099999993827
100
AcDbArc
 50
181.5237735224
 51
182.4762264776
  0
ARC
  5
22B
330
1F
100
AcDbEntity
  8
0
  6
Continuous
 62
     7
370
    25
100
AcDbCircle
 10
-38.0575511474
 20
18.9736955984
 30
0.0
 40
22.50000000000197
100
AcDbArc
 50
248.762553067
 51
254.9131161672
  0
ARC
  5
22C
330
1F
100
AcDbEntity
  8
0
  6
Continuous
 62
     7
370
    25
100
AcDbCircle
 10
0.0000000001
 20
0.0
 30
0.0
 40
44.00000000013186
100
AcDbArc
 50
183.584339138
 51
184.415660862
  0
ARC
  5
22D
330
1F
100
AcDbEntity
  8
0
  6
Continuous
 62
     7
370
    25
100
AcDbCircle
 10
-35.0465496226
 20
-24.0856323052
 30
0.0
 40
22.49999999999731
100
AcDbArc
 50
113.0868838328
 51
119.237446933
  0
ARC
  5
22E
330
1F
100
AcDbEntity
  8
0
  6
Continuous
 62
     7
370
    25
100
AcDbCircle
 10
0.0
 20
0.0
 30
0.0
 40
46.25100000003555
100
AcDbArc
 50
185.5237735224
 51
186.4762264776
  0
ARC
  5
22F
330
1F
100
AcDbEntity
  8
0
  6
Continuous
 62
     7
370
    25
100
AcDbCircle
 10
-39.2883829644
 20
16.2727160622
 30
0.0
 40
22.50000000000135
100
AcDbArc
 50
252.762553067
 51
258.9131161672
  0
ARC
  5
230
330
1F
100
AcDbEntity
  8
0
  6
Continuous
 62
     7
370
    25
100
AcDbCircle
 10
0.0000000003
 20
0.0
 30
0.0
 40
44.00000000026991
100
AcDbArc
 50
187.584339138
 51
188.415660862
  0
ARC
  5
231
330
1F
100
AcDbEntity
  8
0
  6
Continuous
 62
     7
370
    25
100
AcDbCircle
 10
-33.2810492117
 20
-26.4716846341
 30
0.0
 40
22.49999999999939
100
AcDbArc
 50
117.0868838328
 51
123.237446933
  0
ARC
  5
232
330
1F
100
AcDbEntity
  8
0
  6
Continuous
 62
     7
370
    25
100
AcDbCircle
 10
-0.0000000003
 20
0.0
 30
0.0
 40
46.25099999973919
100
AcDbArc
 50
189.5237735224
 51
190.4762264776
  0
ARC
  5
233
330
1F
100
AcDbEntity
  8
0
  6
Continuous
 62
     7
370
    25
100
AcDbCircle
 10
-40.3278057288
 20
13.492457489
 30
0.0
 40
22.49999999999926
100
AcDbArc
 50
256.762553067
 51
262.9131161672
  0
ARC
  5
234
330
1F
100
AcDbEntity
  8
0
  6
Continuous
 62
     7
370
    25
100
AcDbCircle
 10
0.0000000002
 20
0.0
 30
0.0
 40
44.00000000015614
100
AcDbArc
 50
191.584339138
 51
192.415660862
  0
ARC
  5
235
330
1F
100
AcDbEntity
  8
0
  6
Continuous
 62
     7
370
    25
100
AcDbCircle
 10
-31.3534068743
 20
-28.7287695763
 30
0.0
 40
22.50000000000086
100
AcDbArc
 50
121.0868838328
 51
127.237446933
  0
ARC
  5
236
330
1F
100
AcDbEntity
  8
0
  6
Continuous
 62
     7
370
    25
100
AcDbCircle
 10
-0.0000000001
 20
0.0
 30
0.0
 40
46.25099999990427
100
AcDbArc
 50
193.5237735224
 51
194.4762264776
  0
ARC
  5
237
330
1F
100
AcDbEntity
  8
0
  6
Continuous
 62
     7
370
    25
100
AcDbCircle
 10
-41.1707554775
 20
10.6464650192
 30
0.0
 40
22.50000000000007
100
AcDbArc
 50
260.762553067
 51
266.9131161672
  0
ARC
  5
238
330
1F
100
AcDbEntity
  8
0
  6
Continuous
 62
     7
370
    25
100
AcDbCircle
 10
0.0000000001
 20
0.0
 30
0.0
 40
44.00000000013636
100
AcDbArc
 50
195.584339138
 51
196.415660862
  0
ARC
  5
239
330
1F
100
AcDbEntity
  8
0
  6
Continuous
 62
     7
370
    25
100
AcDbCircle
 10
-29.2730138904
 20
-30.8458908409
 30
0.0
 40
22.50000000000125
100
AcDbArc
 50
125.0868838328
 51
131.237446933
  0
ARC
  5
23A
330
1F
100
AcDbEntity
  8
0
  6
Continuous
 62
     7
370
    25
100
AcDbCircle
 10
-0.0000000001
 20
0.0
 30
0.0
 40
46.25099999985117
100
AcDbArc
 50
197.5237735224
 51
198.4762264776
  0
ARC
  5
23B
330
1F
100
AcDbEntity
  8
0
  6
Continuous
 62
     7
370
    25
100
AcDbCircle
 10
-41.813125444
 20
7.748604042
 30
0.0
 40
22.499999999997
100
AcDbArc
 50
264.762553067
 51
270.9131161672
  0
ARC
  5
23C
330
1F
100
AcDbEntity
  8
0
  6
Continuous
 62
     7
370
    25
100
AcDbCircle
 10
0.0000000001
 20
0.0
 30
0.0
 40
44.00000000010964
100
AcDbArc
 50
199.584339138
 51
200.415660862
  0
ARC
  5
23D
330
1F
100
AcDbEntity
  8
0
  6
Continuous
 62
     7
370
    25
100
AcDbCircle
 10
-27.0500057252
 20
-32.812734026
 30
0.0
 40
22.49999999999985
100
AcDbArc
 50
129.0868838328
 51
135.237446933
  0
ARC
  5
23E
330
1F
100
AcDbEntity
  8
0
  6
Continuous
 62
     7
370
    25
100
AcDbCircle
 10
0.0
 20
0.0
 30
0.0
 40
46.25100000000779
100
AcDbArc
 50
201.5237735224
 51
202.4762264776
  0
ARC
  5
23F
330
1F
100
AcDbEntity
  8
0
  6
Continuous
 62
     7
370
    25
100
AcDbCircle
 10
-42.2517860663
 20
4.8129926448
 30
0.0
 40
22.5000000000002
100
AcDbArc
 50
268.762553067
 51
274.9131161672
  0
ARC
  5
240
330
1F
100
AcDbEntity
  8
0
  6
Continuous
 62
     7
370
    25
100
AcDbCircle
 10
0.0
 20
0.0
 30
0.0
 40
43.99999999996652
100
AcDbArc
 50
203.584339138
 51
204.415660862
  0
ARC
  5
241
330
1F
100
AcDbEntity
  8
0
  6
Continuous
 62
     7
370
    25
100
AcDbCircle
 10
-42.4846002341
 20
1.8539328313
 30
0.0
 40
22.5000000000016
100
AcDbArc
 50
272.762553067
 51
278.9131161672
  0
ARC
  5
242
330
1F
100
AcDbEntity
  8
0
  6
Continuous
 62
     7
370
    25
100
AcDbCircle
 10
0.0
 20
0.0
 30
0.0
 40
43.99999999998682
100
AcDbArc
 50
207.584339138
 51
208.415660862
  0
ARC
  5
243
330
1F
100
AcDbEntity
  8
0
  6
Continuous
 62
     7
370
    25
100
AcDbCircle
 10
-22.2201069836
 20
-36.2580359318
 30
0.0
 40
22.49999999999703
100
AcDbArc
 50
137.0868838328
 51
143.237446933
  0
ARC
  5
244
330
1F
100
AcDbEntity
  8
0
  6
Continuous
 62
     7
370
    25
100
AcDbCircle
 10
-0.0000000001
 20
-0.0000000001
 30
0.0
 40
46.25099999984707
100
AcDbArc
 50
209.5237735224
 51
210.4762264776
  0
ARC
  5
245
330
1F
100
AcDbEntity
  8
0
  6
Continuous
 62
     7
370
    25
100
AcDbCircle
 10
-42.5104337001
 20
-1.1141591567
 30
0.0
 40
22.49999999999803
100
AcDbArc
 50
276.762553067
 51
282.9131161672
  0
ARC
  5
246
330
1F
100
AcDbEntity
  8
0
  6
Continuous
 62
     7
370
    25
100
AcDbCircle
 10
0.0000000003
 20
0.0000000002
 30
0.0
 40
44.0000000003632
100
AcDbArc
 50
211.584339138
 51
212.415660862
  0
ARC
  5
247
330
1F
100
AcDbEntity
  8
0
  6
Continuous
 62
     7
370
    25
100
AcDbCircle
 10
-19.6367471883
 20
-37.719709488
 30
0.0
 40
22.50000000000261
100
AcDbArc
 50
141.0868838328
 51
147.237446933
  0
ARC
  5
248
330
1F
100
AcDbEntity
  8
0
  6
Continuous
 62
     7
370
    25
100
AcDbCircle
 10
-0.0000000001
 20
-0.0000000001
 30
0.0
 40
46.2509999998307
100
AcDbArc
 50
213.5237735224
 51
214.4762264776
  0
ARC
  5
249
330
1F
100
AcDbEntity
  8
0
  6
Continuous
 62
     7
370
    25
100
AcDbCircle
 10
-42.3291606062
 20
-4.0768230732
 30
0.0
 40
22.50000000000065
100
AcDbArc
 50
280.762553067
 51
286.9131161672
  0
ARC
  5
24A
330
1F
100
AcDbEntity
  8
0
  6
Continuous
 62
     7
370
    25
100
AcDbCircle
 10
0.0000000001
 20
0.0000000001
 30
0.0
 40
44.00000000015578
100
AcDbArc
 50
215.584339138
 51
216.415660862
  0
ARC
  5
24B
330
1F
100
AcDbEntity
  8
0
  6
Continuous
 62
     7
370
    25
100
AcDbCircle
 10
-16.9577191345
 20
-38.9976164111
 30
0.0
 40
22.49999999999962
100
AcDbArc
 50
145.0868838328
 51
151.237446933
  0
ARC
  5
24C
330
1F
100
AcDbEntity
  8
0
  6
Continuous
 62
     7
370
    25
100
AcDbCircle
 10
0.0
 20
0.0
 30
0.0
 40
46.25099999996857
100
AcDbArc
 50
217.5237735224
 51
218.4762264776
  0
ARC
  5
24D
330
1F
100
AcDbEntity
  8
0
  6
Continuous
 62
     7
370
    25
100
AcDbCircle
 10
-41.9416640967
 20
-7.0196251176
 30
0.0
 40
22.49999999999956
100
AcDbArc
 50
284.762553067
 51
290.9131161672
  0
ARC
  5
24E
330
1F
100
AcDbEntity
  8
0
  6
Continuous
 62
     7
370
    25
100
AcDbCircle
 10
0.0
 20
0.0
 30
0.0
 40
44.00000000000481
100
AcDbArc
 50
219.584339138
 51
220.415660862
  0
ARC
  5
24F
330
1F
100
AcDbEntity
  8
0
  6
Continuous
 62
     7
370
    25
100
AcDbCircle
 10
-14.1960747777
 20
-40.0855308671
 30
0.0
 40
22.49999999999651
100
AcDbArc
 50
149.0868838328
 51
155.237446933
  0
ARC
  5
250
330
1F
100
AcDbEntity
  8
0
  6
Continuous
 62
     7
370
    25
100
AcDbCircle
 10
0.0
 20
0.0
 30
0.0
 40
46.25099999995049
100
AcDbArc
 50
221.5237735224
 51
222.4762264776
  0
ARC
  5
251
330
1F
100
AcDbEntity
  8
0
  6
Continuous
 62
     7
370
    25
100
AcDbCircle
 10
-41.3498320158
 20
-9.9282282539
 30
0.0
 40
22.50000000000087
100
AcDbArc
 50
288.762553067
 51
294.9131161672
  0
ARC
  5
252
330
1F
100
AcDbEntity
  8
0
  6
Continuous
 62
     7
370
    25
100
AcDbCircle
 10
0.0
 20
0.0
 30
0.0
 40
43.99999999995772
100
AcDbArc
 50
223.584339138
 51
224.415660862
  0
ARC
  5
253
330
1F
100
AcDbEntity
  8
0
  6
Continuous
 62
     7
370
    25
100
AcDbCircle
 10
-11.3652685716
 20
-40.9781526461
 30
0.0
 40
22.50000000000134
100
AcDbArc
 50
153.0868838328
 51
159.237446933
  0
ARC
  5
254
330
1F
100
AcDbEntity
  8
0
  6
Continuous
 62
     7
370
    25
100
AcDbCircle
 10
0.0
 20
0.0
 30
0.0
 40
46.25099999996716
100
AcDbArc
 50
225.5237735224
 51
226.4762264776
  0
ARC
  5
255
330
1F
100
AcDbEntity
  8
0
  6
Continuous
 62
     7
370
    25
100
AcDbCircle
 10
-40.5565477097
 20
-12.7884620602
 30
0.0
 40
22.50000000000264
100
AcDbArc
 50
292.762553067
 51
298.9131161672
  0
ARC
  5
256
330
1F
100
AcDbEntity
  8
0
  6
Continuous
 62
     7
370
    25
100
AcDbCircle
 10
0.0000000001
 20
0.0000000001
 30
0.0
 40
44.00000000014327
100
AcDbArc
 50
227.584339138
 51
228.415660862
  0
ARC
  5
257
330
1F
100
AcDbEntity
  8
0
  6
Continuous
 62
     7
370
    25
100
AcDbCircle
 10
-8.4790919195
 20
-41.6711329845
 30
0.0
 40
22.4999999999967
100
AcDbArc
 50
157.0868838328
 51
163.237446933
  0
ARC
  5
258
330
1F
100
AcDbEntity
  8
0
  6
Continuous
 62
     7
370
    25
100
AcDbCircle
 10
0.0
 20
0.0
 30
0.0
 40
46.25100000003157
100
AcDbArc
 50
229.5237735224
 51
230.4762264776
  0
ARC
  5
259
330
1F
100
AcDbEntity
  8
0
  6
Continuous
 62
     7
370
    25
100
AcDbCircle
 10
-39.5656759799
 20
-15.5863917649
 30
0.0
 40
22.49999999999878
100
AcDbArc
 50
296.762553067
 51
302.9131161672
  0
ARC
  5
25A
330
1F
100
AcDbEntity
  8
0
  6
Continuous
 62
     7
370
    25
100
AcDbCircle
 10
0.0
 20
0.0
 30
0.0
 40
44.00000000001693
100
AcDbArc
 50
231.584339138
 51
232.415660862
  0
ARC
  5
25B
330
1F
100
AcDbEntity
  8
0
  6
Continuous
 62
     7
370
    25
100
AcDbCircle
 10
-5.5516059838
 20
-42.1610957518
 30
0.0
 40
22.49999999999611
100
AcDbArc
 50
161.0868838328
 51
167.237446933
  0
ARC
  5
25C
330
1F
100
AcDbEntity
  8
0
  6
Continuous
 62
     7
370
    25
100
AcDbCircle
 10
-0.0000000001
 20
-0.0000000001
 30
0.0
 40
46.25099999990711
100
AcDbArc
 50
233.5237735224
 51
234.4762264776
  0
ARC
  5
25D
330
1F
100
AcDbEntity
  8
0
  6
Continuous
 62
     7
370
    25
100
AcDbCircle
 10
-38.3820442539
 20
-18.3083861356
 30
0.0
 40
22.49999999999964
100
AcDbArc
 50
300.762553067
 51
306.9131161672
  0
ARC
  5
25E
330
1F
100
AcDbEntity
  8
0
  6
Continuous
 62
     7
370
    25
100
AcDbCircle
 10
0.0
 20
0.0
 30
0.0
 40
43.9999999999634
100
AcDbArc
 50
235.584339138
 51
236.415660862
  0
ARC
  5
25F
330
1F
100
AcDbEntity
  8
0
  6
Continuous
 62
     7
370
    25
100
AcDbCircle
 10
-2.5970731818
 20
-42.4456538986
 30
0.0
 40
22.50000000000047
100
AcDbArc
 50
165.0868838328
 51
171.237446933
  0
ARC
  5
260
330
1F
100
AcDbEntity
  8
0
  6
Continuous
 62
     7
370
    25
100
AcDbCircle
 10
-0.0000000001
 20
-0.0000000001
 30
0.0
 40
46.25099999984212
100
AcDbArc
 50
237.5237735224
 51
238.4762264776
  0
ARC
  5
261
330
1F
100
AcDbEntity
  8
0
  6
Continuous
 62
     7
370
    25
100
AcDbCircle
 10
-37.0114190664
 20
-20.9411838894
 30
0.0
 40
22.50000000000025
100
AcDbArc
 50
304.762553067
 51
310.9131161672
  0
ARC
  5
262
330
1F
100
AcDbEntity
  8
0
  6
Continuous
 62
     7
370
    25
100
AcDbCircle
 10
0.0000000001
 20
0.0000000001
 30
0.0
 40
44.0000000001705
100
AcDbArc
 50
239.584339138
 51
240.415660862
  0
ARC
  5
263
330
1F
100
AcDbEntity
  8
0
  6
Continuous
 62
     7
370
    25
100
AcDbCircle
 10
0.3701122997
 20
-42.5234210863
 30
0.0
 40
22.49999999999851
100
AcDbArc
 50
169.0868838328
 51
175.237446933
  0
ARC
  5
264
330
1F
100
AcDbEntity
  8
0
  6
Continuous
 62
     7
370
    25
100
AcDbCircle
 10
-0.0000000001
 20
-0.0000000001
 30
0.0
 40
46.25099999983392
100
AcDbArc
 50
241.5237735224
 51
242.4762264776
  0
ARC
  5
265
330
1F
100
AcDbEntity
  8
0
  6
Continuous
 62
     7
370
    25
100
AcDbCircle
 10
-35.4604779656
 20
-23.4719583002
 30
0.0
 40
22.49999999999614
100
AcDbArc
 50
308.762553067
 51
314.9131161672
  0
ARC
  5
266
330
1F
100
AcDbEntity
  8
0
  6
Continuous
 62
     7
370
    25
100
AcDbCircle
 10
0.0
 20
0.0
 30
0.0
 40
44.00000000005098
100
AcDbArc
 50
243.584339138
 51
244.415660862
  0
ARC
  5
267
330
1F
100
AcDbEntity
  8
0
  6
Continuous
 62
     7
370
    25
100
AcDbCircle
 10
3.3354946312
 20
-42.3940184408
 30
0.0
 40
22.4999999999976
100
AcDbArc
 50
173.0868838328
 51
179.237446933
  0
ARC
  5
268
330
1F
100
AcDbEntity
  8
0
  6
Continuous
 62
     7
370
    25
100
AcDbCircle
 10
-0.0000000001
 20
-0.0000000002
 30
0.0
 40
46.25099999981367
100
AcDbArc
 50
245.5237735224
 51
246.4762264776
  0
ARC
  5
269
330
1F
100
AcDbEntity
  8
0
  6
Continuous
 62
     7
370
    25
100
AcDbCircle
 10
-33.7367769806
 20
-25.8883796897
 30
0.0
 40
22.49999999999666
100
AcDbArc
 50
312.762553067
 51
318.9131161672
  0
ARC
  5
26A
330
1F
100
AcDbEntity
  8
0
  6
Continuous
 62
     7
370
    25
100
AcDbCircle
 10
0.0000000002
 20
0.0000000004
 30
0.0
 40
44.0000000004175
100
AcDbArc
 50
247.584339138
 51
248.415660862
  0
ARC
  5
26B
330
1F
100
AcDbEntity
  8
0
  6
Continuous
 62
     7
370
    25
100
AcDbCircle
 10
6.2846267682
 20
-42.0580763989
 30
0.0
 40
22.50000000000248
100
AcDbArc
 50
177.0868838328
 51
183.237446933
  0
ARC
  5
26C
330
1F
100
AcDbEntity
  8
0
  6
Continuous
 62
     7
370
    25
100
AcDbCircle
 10
0.0
 20
-0.0000000001
 30
0.0
 40
46.25099999989425
100
AcDbArc
 50
249.5237735224
 51
250.4762264776
  0
ARC
  5
26D
330
1F
100
AcDbEntity
  8
0
  6
Continuous
 62
     7
370
    25
100
AcDbCircle
 10
-31.8487138094
 20
-28.1786754956
 30
0.0
 40
22.49999999999506
100
AcDbArc
 50
316.762553067
 51
322.9131161672
  0
ARC
  5
26E
330
1F
100
AcDbEntity
  8
0
  6
Continuous
 62
     7
370
    25
100
AcDbCircle
 10
0.0
 20
0.0000000001
 30
0.0
 40
44.00000000014142
100
AcDbArc
 50
251.584339138
 51
252.415660862
  0
ARC
  5
26F
330
1F
100
AcDbEntity
  8
0
  6
Continuous
 62
     7
370
    25
100
AcDbCircle
 10
9.2031408353
 20
-41.5172316365
 30
0.0
 40
22.50000000000053
100
AcDbArc
 50
181.0868838328
 51
187.237446933
  0
ARC
  5
270
330
1F
100
AcDbEntity
  8
0
  6
Continuous
 62
     7
370
    25
100
AcDbCircle
 10
0.0
 20
0.0
 30
0.0
 40
46.25099999999061
100
AcDbArc
 50
253.5237735224
 51
254.4762264776
  0
ARC
  5
271
330
1F
100
AcDbEntity
  8
0
  6
Continuous
 62
     7
370
    25
100
AcDbCircle
 10
-29.8054869059
 20
-30.3316876269
 30
0.0
 40
22.50000000000003
100
AcDbArc
 50
320.762553067
 51
326.9131161672
  0
ARC
  5
272
330
1F
100
AcDbEntity
  8
0
  6
Continuous
 62
     7
370
    25
100
AcDbCircle
 10
-0.0000000001
 20
-0.0000000003
 30
0.0
 40
43.9999999997271
100
AcDbArc
 50
255.584339138
 51
256.415660862
  0
ARC
  5
273
330
1F
100
AcDbEntity
  8
0
  6
Continuous
 62
     7
370
    25
100
AcDbCircle
 10
12.0768181254
 20
-40.7741190948
 30
0.0
 40
22.49999999999973
100
AcDbArc
 50
185.0868838328
 51
191.237446933
  0
ARC
  5
274
330
1F
100
AcDbEntity
  8
0
  6
Continuous
 62
     7
370
    25
100
AcDbCircle
 10
0.0
 20
0.0000000001
 30
0.0
 40
46.25100000009241
100
AcDbArc
 50
257.5237735224
 51
258.4762264776
  0
ARC
  5
275
330
1F
100
AcDbEntity
  8
0
  6
Continuous
 62
     7
370
    25
100
AcDbCircle
 10
-27.6170506662
 20
-32.3369268251
 30
0.0
 40
22.49999999999966
100
AcDbArc
 50
324.762553067
 51
330.9131161672
  0
ARC
  5
276
330
1F
100
AcDbEntity
  8
0
  6
Continuous
 62
     7
370
    25
100
AcDbCircle
 10
0.0
 20
0.0
 30
0.0
 40
43.99999999996349
100
AcDbArc
 50
259.584339138
 51
260.415660862
  0
ARC
  5
277
330
1F
100
AcDbEntity
  8
0
  6
Continuous
 62
     7
370
    25
100
AcDbCircle
 10
14.8916583715
 20
-39.8323591436
 30
0.0
 40
22.49999999999872
100
AcDbArc
 50
189.0868838328
 51
195.237446933
  0
ARC
  5
278
330
1F
100
AcDbEntity
  8
0
  6
Continuous
 62
     7
370
    25
100
AcDbCircle
 10
0.0
 20
-0.0000000003
 30
0.0
 40
46.25099999967918
100
AcDbArc
 50
261.5237735224
 51
262.4762264776
  0
ARC
  5
279
330
1F
100
AcDbEntity
  8
0
  6
Continuous
 62
     7
370
    25
100
AcDbCircle
 10
-25.2940669318
 20
-34.1846237663
 30
0.0
 40
22.49999999999862
100
AcDbArc
 50
328.762553067
 51
334.9131161672
  0
ARC
  5
27A
330
1F
100
AcDbEntity
  8
0
  6
Continuous
 62
     7
370
    25
100
AcDbCircle
 10
0.0
 20
-0.0000000001
 30
0.0
 40
43.99999999988319
100
AcDbArc
 50
263.584339138
 51
264.415660862
  0
ARC
  5
27B
330
1F
100
AcDbEntity
  8
0
  6
Continuous
 62
     7
370
    25
100
AcDbCircle
 10
17.6339479549
 20
-38.6965399424
 30
0.0
 40
22.49999999999893
100
AcDbArc
 50
193.0868838328
 51
199.237446933
  0
ARC
  5
27C
330
1F
100
AcDbEntity
  8
0
  6
Continuous
 62
     7
370
    25
100
AcDbCircle
 10
0.0
 20
0.0000000001
 30
0.0
 40
46.25100000014901
100
AcDbArc
 50
265.5237735224
 51
266.4762264776
  0
ARC
  5
27D
330
1F
100
AcDbEntity
  8
0
  6
Continuous
 62
     7
370
    25
100
AcDbCircle
 10
-22.8478530458
 20
-35.8657766567
 30
0.0
 40
22.50000000000195
100
AcDbArc
 50
332.762553067
 51
338.9131161672
  0
ARC
  5
27E
330
1F
100
AcDbEntity
  8
0
  6
Continuous
 62
     7
370
    25
100
AcDbCircle
 10
0.0
 20
0.0000000002
 30
0.0
 40
44.00000000019001
100
AcDbArc
 50
267.584339138
 51
268.415660862
  0
ARC
  5
27F
330
1F
100
AcDbEntity
  8
0
  6
Continuous
 62
     7
370
    25
100
AcDbCircle
 10
20.2903267165
 20
-37.3721950885
 30
0.0
 40
22.49999999999817
100
AcDbArc
 50
197.0868838328
 51
203.237446933
  0
ARC
  5
280
330
1F
100
AcDbEntity
  8
0
  6
Continuous
 62
     7
370
    25
100
AcDbCircle
 10
0.0
 20
0.0
 30
0.0
 40
46.25099999995077
100
AcDbArc
 50
269.5237735224
 51
270.4762264776
  0
ARC
  5
281
330
1F
100
AcDbEntity
  8
0
  6
Continuous
 62
     7
370
    25
100
AcDbCircle
 10
-20.2903267165
 20
-37.3721950885
 30
0.0
 40
22.49999999999935
100
AcDbArc
 50
336.762553067
 51
342.9131161672
  0
ARC
  5
282
330
1F
100
AcDbEntity
  8
0
  6
Continuous
 62
     7
370
    25
100
AcDbCircle
 10
0.0
 20
0.0
 30
0.0
 40
44.00000000002419
100
AcDbArc
 50
271.584339138
 51
272.415660862
  0
ARC
  5
283
330
1F
100
AcDbEntity
  8
0
  6
Continuous
 62
     7
370
    25
100
AcDbCircle
 10
22.8478530458
 20
-35.8657766567
 30
0.0
 40
22.49999999999719
100
AcDbArc
 50
201.0868838328
 51
207.237446933
  0
ARC
  5
284
330
1F
100
AcDbEntity
  8
0
  6
Continuous
 62
     7
370
    25
100
AcDbCircle
 10
0.0
 20
-0.0000000002
 30
0.0
 40
46.25099999982797
100
AcDbArc
 50
273.5237735224
 51
274.4762264776
  0
ARC
  5
285
330
1F
100
AcDbEntity
  8
0
  6
Continuous
 62
     7
370
    25
100
AcDbCircle
 10
-17.6339479549
 20
-38.6965399424
 30
0.0
 40
22.50000000000146
100
AcDbArc
 50
340.762553067
 51
346.9131161672
  0
ARC
  5
286
330
1F
100
AcDbEntity
  8
0
  6
Continuous
 62
     7
370
    25
100
AcDbCircle
 10
0.0
 20
0.0
 30
0.0
 40
44.0000000000466
100
AcDbArc
 50
275.584339138
 51
276.415660862
  0
ARC
  5
287
330
1F
100
AcDbEntity
  8
0
  6
Continuous
 62
     7
370
    25
100
AcDbCircle
 10
25.2940669318
 20
-34.1846237663
 30
0.0
 40
22.50000000000115
100
AcDbArc
 50
205.0868838328
 51
211.237446933
  0
ARC
  5
288
330
1F
100
AcDbEntity
  8
0
  6
Continuous
 62
     7
370
    25
100
AcDbCircle
 10
0.0
 20
0.0000000001
 30
0.0
 40
46.25100000007809
100
AcDbArc
 50
277.5237735224
 51
278.4762264776
  0
ARC
  5
289
330
1F
100
AcDbEntity
  8
0
  6
Continuous
 62
     7
370
    25
100
AcDbCircle
 10
-14.8916583715
 20
-39.8323591436
 30
0.0
 40
22.50000000000064
100
AcDbArc
 50
344.762553067
 51
350.9131161672
  0
ARC
  5
28A
330
1F
100
AcDbEntity
  8
0
  6
Continuous
 62
     7
370
    25
100
AcDbCircle
 10
0.0
 20
-0.0000000001
 30
0.0
 40
43.99999999993295
100
AcDbArc
 50
279.584339138
 51
280.415660862
  0
ARC
  5
28B
330
1F
100
AcDbEntity
  8
0
  6
Continuous
 62
     7
370
    25
100
AcDbCircle
 10
27.6170506662
 20
-32.3369268251
 30
0.0
 40
22.50000000000068
100
AcDbArc
 50
209.0868838328
 51
215.237446933
  0
ARC
  5
28C
330
1F
100
AcDbEntity
  8
0
  6
Continuous
 62
     7
370
    25
100
AcDbCircle
 10
0.0
 20
-0.0000000001
 30
0.0
 40
46.25099999990536
100
AcDbArc
 50
281.5237735224
 51
282.4762264776
  0
ARC
  5
28D
330
1F
100
AcDbEntity
  8
0
  6
Continuous
 62
     7
370
    25
100
AcDbCircle
 10
-12.0768181254
 20
-40.7741190948
 30
0.0
 40
22.4999999999973
100
AcDbArc
 50
348.762553067
 51
354.9131161672
  0
ARC
  5
28E
330
1F
100
AcDbEntity
  8
0
  6
Continuous
 62
     7
370
    25
100
AcDbCircle
 10
-0.0000000001
 20
0.0000000004
 30
0.0
 40
44.00000000040204
100
AcDbArc
 50
283.584339138
 51
284.415660862
  0
ARC
  5
28F
330
1F
100
AcDbEntity
  8
0
  6
Continuous
 62
     7
370
    25
100
AcDbCircle
 10
29.8054869059
 20
-30.3316876269
 30
0.0
 40
22.49999999999744
100
AcDbArc
 50
213.0868838328
 51
219.237446933
  0
ARC
  5
290
330
1F
100
AcDbEntity
  8
0
  6
Continuous
 62
     7
370
    25
100
AcDbCircle
 10
0.0000000001
 20
-0.0000000002
 30
0.0
 40
46.25099999976189
100
AcDbArc
 50
285.5237735224
 51
286.4762264776
  0
ARC
  5
291
330
1F
100
AcDbEntity
  8
0
  6
Continuous
 62
     7
370
    25
100
AcDbCircle
 10
-9.2031408353
 20
-41.5172316365
 30
0.0
 40
22.50000000000167
100
AcDbArc
 50
352.762553067
 51
358.9131161672
  0
ARC
  5
292
330
1F
100
AcDbEntity
  8
0
  6
Continuous
 62
     7
370
    25
100
AcDbCircle
 10
0.0
 20
0.0
 30
0.0
 40
44.00000000000556
100
AcDbArc
 50
287.584339138
 51
288.415660862
  0
ARC
  5
293
330
1F
100
AcDbEntity
  8
0
  6
Continuous
 62
     7
370
    25
100
AcDbCircle
 10
31.8487138094
 20
-28.1786754955
 30
0.0
 40
22.50000000000277
100
AcDbArc
 50
217.0868838328
 51
223.237446933
  0
ARC
  5
294
330
1F
100
AcDbEntity
  8
0
  6
Continuous
 62
     7
370
    25
100
AcDbCircle
 10
0.0000000001
 20
-0.0000000002
 30
0.0
 40
46.25099999982764
100
AcDbArc
 50
289.5237735224
 51
290.4762264776
  0
ARC
  5
295
330
1F
100
AcDbEntity
  8
0
  6
Continuous
 62
     7
370
    25
100
AcDbCircle
 10
-6.2846267682
 20
-42.0580763989
 30
0.0
 40
22.50000000000012
100
AcDbArc
 50
356.762553067
 51
2.9131161672
  0
ARC
  5
296
330
1F
100
AcDbEntity
  8
0
  6
Continuous
 62
     7
370
    25
100
AcDbCircle
 10
-0.0000000001
 20
0.0000000002
 30
0.0
 40
44.00000000026258
100
AcDbArc
 50
291.584339138
 51
292.415660862
  0
ARC
  5
297
330
1F
100
AcDbEntity
  8
0
  6
Continuous
 62
     7
370
    25
100
AcDbCircle
 10
33.7367769806
 20
-25.8883796897
 30
0.0
 40
22.49999999999843
100
AcDbArc
 50
221.0868838328
 51
227.237446933
  0
ARC
  5
298
330
1F
100
AcDbEntity
  8
0
  6
Continuous
 62
     7
370
    25
100
AcDbCircle
 10
0.0000000001
 20
-0.0000000002
 30
0.0
 40
46.25099999975579
100
AcDbArc
 50
293.5237735224
 51
294.4762264776
  0
ARC
  5
299
330
1F
100
AcDbEntity
  8
0
  6
Continuous
 62
     7
370
    25
100
AcDbCircle
 10
-3.3354946312
 20
-42.3940184408
 30
0.0
 40
22.50000000000287
100
AcDbArc
 50
0.762553067
 51
6.9131161672
  0
ARC
  5
29A
330
1F
100
AcDbEntity
  8
0
  6
Continuous
 62
     7
370
    25
100
AcDbCircle
 10
0.0000000001
 20
-0.0000000001
 30
0.0
 40
43.99999999986164
100
AcDbArc
 50
295.584339138
 51
296.415660862
  0
ARC
  5
29B
330
1F
100
AcDbEntity
  8
0
  6
Continuous
 62
     7
370
    25
100
AcDbCircle
 10
35.4604779656
 20
-23.4719583002
 30
0.0
 40
22.50000000000252
100
AcDbArc
 50
225.0868838328
 51
231.237446933
  0
ARC
  5
29C
330
1F
100
AcDbEntity
  8
0
  6
Continuous
 62
     7
370
    25
100
AcDbCircle
 10
0.0
 20
-0.0000000001
 30
0.0
 40
46.25099999993175
100
AcDbArc
 50
297.5237735224
 51
298.4762264776
  0
ARC
  5
29D
330
1F
100
AcDbEntity
  8
0
  6
Continuous
 62
     7
370
    25
100
AcDbCircle
 10
-0.3701122997
 20
-42.5234210863
 30
0.0
 40
22.50000000000159
100
AcDbArc
 50
4.762553067
 51
10.9131161672
  0
ARC
  5
29E
330
1F
100
AcDbEntity
  8
0
  6
Continuous
 62
     7
370
    25
100
AcDbCircle
 10
0.0
 20
0.0000000001
 30
0.0
 40
44.00000000008028
100
AcDbArc
 50
299.584339138
 51
300.415660862
  0
ARC
  5
29F
330
1F
100
AcDbEntity
  8
0
  6
Continuous
 62
     7
370
    25
100
AcDbCircle
 10
37.0114190664
 20
-20.9411838894
 30
0.0
 40
22.4999999999994
100
AcDbArc
 50
229.0868838328
 51
235.237446933
  0
ARC
  5
2A0
330
1F
100
AcDbEntity
  8
0
  6
Continuous
 62
     7
370
    25
100
AcDbCircle
 10
0.0000000001
 20
-0.0000000001
 30
0.0
 40
46.25099999987048
100
AcDbArc
 50
301.5237735224
 51
302.4762264776
  0
ARC
  5
2A1
330
1F
100
AcDbEntity
  8
0
  6
Continuous
 62
     7
370
    25
100
AcDbCircle
 10
2.5970731818
 20
-42.4456538986
 30
0.0
 40
22.49999999999888
100
AcDbArc
 50
8.762553067
 51
14.9131161672
  0
ARC
  5
2A2
330
1F
100
AcDbEntity
  8
0
  6
Continuous
 62
     7
370
    25
100
AcDbCircle
 10
-0.0000000001
 20
0.0000000001
 30
0.0
 40
44.00000000017857
100
AcDbArc
 50
303.584339138
 51
304.415660862
  0
ARC
  5
2A3
330
1F
100
AcDbEntity
  8
0
  6
Continuous
 62
     7
370
    25
100
AcDbCircle
 10
38.3820442539
 20
-18.3083861356
 30
0.0
 40
22.5000000000022
100
AcDbArc
 50
233.0868838328
 51
239.237446933
  0
ARC
  5
2A4
330
1F
100
AcDbEntity
  8
0
  6
Continuous
 62
     7
370
    25
100
AcDbCircle
 10
0.0
 20
-0.0000000001
 30
0.0
 40
46.2509999999162
100
AcDbArc
 50
305.5237735224
 51
306.4762264776
  0
ARC
  5
2A5
330
1F
100
AcDbEntity
  8
0
  6
Continuous
 62
     7
370
    25
100
AcDbCircle
 10
5.5516059838
 20
-42.1610957518
 30
0.0
 40
22.49999999999928
100
AcDbArc
 50
12.762553067
 51
18.9131161672
  0
ARC
  5
2A6
330
1F
100
AcDbEntity
  8
0
  6
Continuous
 62
     7
370
    25
100
AcDbCircle
 10
0.0
 20
0.0
 30
0.0
 40
43.99999999998303
100
AcDbArc
 50
307.584339138
 51
308.415660862
  0
ARC
  5
2A7
330
1F
100
AcDbEntity
  8
0
  6
Continuous
 62
     7
370
    25
100
AcDbCircle
 10
39.5656759799
 20
-15.5863917649
 30
0.0
 40
22.5000000000004
100
AcDbArc
 50
237.0868838328
 51
243.237446933
  0
ARC
  5
2A8
330
1F
100
AcDbEntity
  8
0
  6
Continuous
 62
     7
370
    25
100
AcDbCircle
 10
0.0
 20
-0.0000000001
 30
0.0
 40
46.25099999993184
100
AcDbArc
 50
309.5237735224
 51
310.4762264776
  0
ARC
  5
2A9
330
1F
100
AcDbEntity
  8
0
  6
Continuous
 62
     7
370
    25
100
AcDbCircle
 10
8.4790919195
 20
-41.6711329845
 30
0.0
 40
22.50000000000252
100
AcDbArc
 50
16.762553067
 51
22.9131161672
  0
ARC
  5
2AA
330
1F
100
AcDbEntity
  8
0
  6
Continuous
 62
     7
370
    25
100
AcDbCircle
 10
0.0000000001
 20
-0.0000000001
 30
0.0
 40
43.999999999809
100
AcDbArc
 50
311.584339138
 51
312.415660862
  0
ARC
  5
2AB
330
1F
100
AcDbEntity
  8
0
  6
Continuous
 62
     7
370
    25
100
AcDbCircle
 10
40.5565477097
 20
-12.7884620602
 30
0.0
 40
22.49999999999472
100
AcDbArc
 50
241.0868838328
 51
247.237446933
  0
ARC
  5
2AC
330
1F
100
AcDbEntity
  8
0
  6
Continuous
 62
     7
370
    25
100
AcDbCircle
 10
0.0000000002
 20
-0.0000000002
 30
0.0
 40
46.25099999977319
100
AcDbArc
 50
313.5237735224
 51
314.4762264776
  0
ARC
  5
2AD
330
1F
100
AcDbEntity
  8
0
  6
Continuous
 62
     7
370
    25
100
AcDbCircle
 10
11.3652685716
 20
-40.9781526461
 30
0.0
 40
22.49999999999619
100
AcDbArc
 50
20.762553067
 51
26.9131161672
  0
ARC
  5
2AE
330
1F
100
AcDbEntity
  8
0
  6
Continuous
 62
     7
370
    25
100
AcDbCircle
 10
0.0000000002
 20
-0.0000000002
 30
0.0
 40
43.99999999970555
100
AcDbArc
 50
315.584339138
 51
316.415660862
  0
ARC
  5
2AF
330
1F
100
AcDbEntity
  8
0
  6
Continuous
 62
     7
370
    25
100
AcDbCircle
 10
41.3498320158
 20
-9.9282282539
 30
0.0
 40
22.49999999999739
100
AcDbArc
 50
245.0868838328
 51
251.237446933
  0
ARC
  5
2B0
330
1F
100
AcDbEntity
  8
0
  6
Continuous
 62
     7
370
    25
100
AcDbCircle
 10
0.0000000001
 20
-0.0000000001
 30
0.0
 40
46.25099999985486
100
AcDbArc
 50
317.5237735224
 51
318.4762264776
  0
ARC
  5
2B1
330
1F
100
AcDbEntity
  8
0
  6
Continuous
 62
     7
370
    25
100
AcDbCircle
 10
14.1960747777
 20
-40.0855308671
 30
0.0
 40
22.50000000000037
100
AcDbArc
 50
24.762553067
 51
30.9131161672
  0
ARC
  5
2B2
330
1F
100
AcDbEntity
  8
0
  6
Continuous
 62
     7
370
    25
100
AcDbCircle
 10
0.0
 20
0.0
 30
0.0
 40
44.00000000000264
100
AcDbArc
 50
319.584339138
 51
320.415660862
  0
ARC
  5
2B3
330
1F
100
AcDbEntity
  8
0
  6
Continuous
 62
     7
370
    25
100
AcDbCircle
 10
41.9416640967
 20
-7.0196251176
 30
0.0
 40
22.50000000000268
100
AcDbArc
 50
249.0868838328
 51
255.237446933
  0
ARC
  5
2B4
330
1F
100
AcDbEntity
  8
0
  6
Continuous
 62
     7
370
    25
100
AcDbCircle
 10
0.0000000001
 20
-0.0000000001
 30
0.0
 40
46.25099999981347
100
AcDbArc
 50
321.5237735224
 51
322.4762264776
  0
ARC
  5
2B5
330
1F
100
AcDbEntity
  8
0
  6
Continuous
 62
     7
370
    25
100
AcDbCircle
 10
16.9577191345
 20
-38.9976164111
 30
0.0
 40
22.50000000000461
100
AcDbArc
 50
28.762553067
 51
34.9131161672
  0
ARC
  5
2B6
330
1F
100
AcDbEntity
  8
0
  6
Continuous
 62
     7
370
    25
100
AcDbCircle
 10
0.0
 20
0.0
 30
0.0
 40
44.00000000004877
100
AcDbArc
 50
323.584339138
 51
324.415660862
  0
ARC
  5
2B7
330
1F
100
AcDbEntity
  8
0
  6
Continuous
 62
     7
370
    25
100
AcDbCircle
 10
42.3291606062
 20
-4.0768230733
 30
0.0
 40
22.4999999999973
100
AcDbArc
 50
253.0868838328
 51
259.237446933
  0
ARC
  5
2B8
330
1F
100
AcDbEntity
  8
0
  6
Continuous
 62
     7
370
    25
100
AcDbCircle
 10
0.0000000001
 20
-0.0000000001
 30
0.0
 40
46.25099999989465
100
AcDbArc
 50
325.5237735224
 51
326.4762264776
  0
ARC
  5
2B9
330
1F
100
AcDbEntity
  8
0
  6
Continuous
 62
     7
370
    25
100
AcDbCircle
 10
19.6367471883
 20
-37.719709488
 30
0.0
 40
22.50000000000209
100
AcDbArc
 50
32.762553067
 51
38.9131161672
  0
ARC
  5
2BA
330
1F
100
AcDbEntity
  8
0
  6
Continuous
 62
     7
370
    25
100
AcDbCircle
 10
-0.0000000002
 20
0.0000000001
 30
0.0
 40
44.00000000020137
100
AcDbArc
 50
327.584339138
 51
328.415660862
  0
ARC
  5
2BB
330
1F
100
AcDbEntity
  8
0
  6
Continuous
 62
     7
370
    25
100
AcDbCircle
 10
42.5104337001
 20
-1.1141591567
 30
0.0
 40
22.50000000000123
100
AcDbArc
 50
257.0868838328
 51
263.237446933
  0
ARC
  5
2BC
330
1F
100
AcDbEntity
  8
0
  6
Continuous
 62
     7
370
    25
100
AcDbCircle
 10
0.0
 20
0.0
 30
0.0
 40
46.25099999998331
100
AcDbArc
 50
329.5237735224
 51
330.4762264776
  0
ARC
  5
2BD
330
1F
100
AcDbEntity
  8
0
  6
Continuous
 62
     7
370
    25
100
AcDbCircle
 10
22.2201069836
 20
-36.2580359318
 30
0.0
 40
22.49999999999591
100
AcDbArc
 50
36.762553067
 51
42.9131161672
  0
ARC
  5
2BE
330
1F
100
AcDbEntity
  8
0
  6
Continuous
 62
     7
370
    25
100
AcDbCircle
 10
0.0000000002
 20
-0.0000000001
 30
0.0
 40
43.99999999980968
100
AcDbArc
 50
331.584339138
 51
332.415660862
  0
ARC
  5
2BF
330
1F
100
AcDbEntity
  8
0
  6
Continuous
 62
     7
370
    25
100
AcDbCircle
 10
42.4846002341
 20
1.8539328312
 30
0.0
 40
22.49999999999766
100
AcDbArc
 50
261.0868838328
 51
267.237446933
  0
ARC
  5
2C0
330
1F
100
AcDbEntity
  8
0
  6
Continuous
 62
     7
370
    25
100
AcDbCircle
 10
0.0
 20
0.0
 30
0.0
 40
46.25099999995775
100
AcDbArc
 50
333.5237735224
 51
334.4762264776
  0
ARC
  5
2C1
330
1F
100
AcDbEntity
  8
0
  6
Continuous
 62
     7
370
    25
100
AcDbCircle
 10
24.6952126513
 20
-34.6197168692
 30
0.0
 40
22.50000000000325
100
AcDbArc
 50
40.762553067
 51
46.9131161672
  0
ARC
  5
2C2
330
1F
100
AcDbEntity
  8
0
  6
Continuous
 62
     7
370
    25
100
AcDbCircle
 10
0.0
 20
0.0
 30
0.0
 40
44.00000000003035
100
AcDbArc
 50
335.584339138
 51
336.415660862
  0
ARC
  5
2C3
330
1F
100
AcDbEntity
  8
0
  6
Continuous
 62
     7
370
    25
100
AcDbCircle
 10
42.2517860663
 20
4.8129926448
 30
0.0
 40
22.50000000000062
100
AcDbArc
 50
265.0868838328
 51
271.237446933
  0
ARC
  5
2C4
330
1F
100
AcDbEntity
  8
0
  6
Continuous
 62
     7
370
    25
100
AcDbCircle
 10
0.0
 20
0.0
 30
0.0
 40
46.25100000001972
100
AcDbArc
 50
337.5237735224
 51
338.4762264776
  0
ARC
  5
2C5
330
1F
100
AcDbEntity
  8
0
  6
Continuous
 62
     7
370
    25
100
AcDbCircle
 10
27.0500057252
 20
-32.812734026
 30
0.0
 40
22.49999999999805
100
AcDbArc
 50
44.762553067
 51
50.9131161672
  0
ARC
  5
2C6
330
1F
100
AcDbEntity
  8
0
  6
Continuous
 62
     7
370
    25
100
AcDbCircle
 10
-0.0000000001
 20
0.0
 30
0.0
 40
44.00000000006688
100
AcDbArc
 50
339.584339138
 51
340.415660862
  0
ARC
  5
2C7
330
1F
100
AcDbEntity
  8
0
  6
Continuous
 62
     7
370
    25
100
AcDbCircle
 10
41.813125444
 20
7.748604042
 30
0.0
 40
22.49999999999843
100
AcDbArc
 50
269.0868838328
 51
275.237446933
  0
ARC
  5
2C8
330
1F
100
AcDbEntity
  8
0
  6
Continuous
 62
     7
370
    25
100
AcDbCircle
 10
0.0000000002
 20
-0.0000000001
 30
0.0
 40
46.2509999998192
100
AcDbArc
 50
341.5237735224
 51
342.4762264776
  0
ARC
  5
2C9
330
1F
100
AcDbEntity
  8
0
  6
Continuous
 62
     7
370
    25
100
AcDbCircle
 10
29.2730138904
 20
-30.8458908409
 30
0.0
 40
22.49999999999885
100
AcDbArc
 50
48.762553067
 51
54.9131161672
  0
ARC
  5
2CA
330
1F
100
AcDbEntity
  8
0
  6
Continuous
 62
     7
370
    25
100
AcDbCircle
 10
0.0000000003
 20
-0.0000000001
 30
0.0
 40
43.99999999972741
100
AcDbArc
 50
343.584339138
 51
344.415660862
  0
ARC
  5
2CB
330
1F
100
AcDbEntity
  8
0
  6
Continuous
 62
     7
370
    25
100
AcDbCircle
 10
41.1707554775
 20
10.6464650192
 30
0.0
 40
22.49999999999937
100
AcDbArc
 50
273.0868838328
 51
279.237446933
  0
ARC
  5
2CC
330
1F
100
AcDbEntity
  8
0
  6
Continuous
 62
     7
370
    25
100
AcDbCircle
 10
-0.0000000001
 20
0.0
 30
0.0
 40
46.25100000010242
100
AcDbArc
 50
345.5237735224
 51
346.4762264776
  0
ARC
  5
2CD
330
1F
100
AcDbEntity
  8
0
  6
Continuous
 62
     7
370
    25
100
AcDbCircle
 10
31.3534068743
 20
-28.7287695763
 30
0.0
 40
22.49999999999865
100
AcDbArc
 50
52.762553067
 51
58.9131161672
  0
ARC
  5
2CE
330
1F
100
AcDbEntity
  8
0
  6
Continuous
 62
     7
370
    25
100
AcDbCircle
 10
-0.0000000001
 20
0.0
 30
0.0
 40
44.00000000006425
100
AcDbArc
 50
347.584339138
 51
348.415660862
  0
ARC
  5
2CF
330
1F
100
AcDbEntity
  8
0
  6
Continuous
 62
     7
370
    25
100
AcDbCircle
 10
40.3278057288
 20
13.492457489
 30
0.0
 40
22.49999999999876
100
AcDbArc
 50
277.0868838328
 51
283.237446933
  0
ARC
  5
2D0
330
1F
100
AcDbEntity
  8
0
  6
Continuous
 62
     7
370
    25
100
AcDbCircle
 10
0.0000000001
 20
0.0
 30
0.0
 40
46.25099999990023
100
AcDbArc
 50
349.5237735224
 51
350.4762264776
  0
ARC
  5
2D1
330
1F
100
AcDbEntity
  8
0
  6
Continuous
 62
     7
370
    25
100
AcDbCircle
 10
33.2810492117
 20
-26.4716846341
 30
0.0
 40
22.49999999999864
100
AcDbArc
 50
56.762553067
 51
62.9131161672
  0
ARC
  5
2D2
330
1F
100
AcDbEntity
  8
0
  6
Continuous
 62
     7
370
    25
100
AcDbCircle
 10
0.0000000001
 20
0.0
 30
0.0
 40
43.99999999986347
100
AcDbArc
 50
351.584339138
 51
352.415660862
  0
ARC
  5
2D3
330
1F
100
AcDbEntity
  8
0
  6
Continuous
 62
     7
370
    25
100
AcDbCircle
 10
39.2883829644
 20
16.2727160622
 30
0.0
 40
22.49999999999737
100
AcDbArc
 50
281.0868838328
 51
287.237446933
  0
ARC
  5
2D4
330
1F
100
AcDbEntity
  8
0
  6
Continuous
 62
     7
370
    25
100
AcDbCircle
 10
-0.0000000001
 20
0.0
 30
0.0
 40
46.25100000007098
100
AcDbArc
 50
353.5237735224
 51
354.4762264776
  0
ARC
  5
2D5
330
1F
100
AcDbEntity
  8
0
  6
Continuous
 62
     7
370
    25
100
AcDbCircle
 10
35.0465496226
 20
-24.0856323052
 30
0.0
 40
22.49999999999914
100
AcDbArc
 50
60.762553067
 51
66.9131161672
  0
ARC
  5
2D6
330
1F
100
AcDbEntity
  8
0
  6
Continuous
 62
     7
370
    25
100
AcDbCircle
 10
-0.0000000001
 20
0.0
 30
0.0
 40
44.00000000005775
100
AcDbArc
 50
355.584339138
 51
356.415660862
  0
ARC
  5
2D7
330
1F
100
AcDbEntity
  8
0
  6
Continuous
 62
     7
370
    25
100
AcDbCircle
 10
38.0575511474
 20
18.9736955984
 30
0.0
 40
22.50000000000082
100
AcDbArc
 50
285.0868838328
 51
291.237446933
  0
ARC
  5
2D8
330
1F
100
AcDbEntity
  8
0
  6
Continuous
 62
     7
370
    25
100
AcDbCircle
 10
0.0
 20
0.0
 30
0.0
 40
46.25100000000701
100
AcDbArc
 50
357.5237735224
 51
358.4762264776
  0
ARC
  5
2D9
330
1F
100
AcDbEntity
  8
0
  6
Continuous
 62
     7
370
    25
100
AcDbCircle
 10
36.6413067667
 20
-21.5822371969
 30
0.0
 40
22.50000000000047
100
AcDbArc
 50
64.762553067
 51
70.9131161672
  0
ARC
  5
2DA
330
1F
100
AcDbEntity
  8
0
  6
Continuous
 62
     7
370
    25
100
AcDbCircle
 10
-0.0000000001
 20
0.0
 30
0.0
 40
44.00000000006864
100
AcDbArc
 50
359.584339138
 51
0.415660862
  0
ARC
  5
2DB
330
1F
100
AcDbEntity
  8
0
  6
Continuous
 62
     7
370
    25
100
AcDbCircle
 10
36.6413067667
 20
21.5822371969
 30
0.0
 40
22.50000000000239
100
AcDbArc
 50
289.0868838328
 51
295.237446933
  0
ARC
  5
2DC
330
1F
100
AcDbEntity
  8
0
  6
Continuous
 62
     7
370
    25
100
AcDbCircle
 10
0.0000000002
 20
0.0
 30
0.0
 40
46.25099999984697
100
AcDbArc
 50
1.5237735224
 51
2.4762264776
  0
ARC
  5
2DD
330
1F
100
AcDbEntity
  8
0
  6
Continuous
 62
     7
370
    25
100
AcDbCircle
 10
38.0575511474
 20
-18.9736955984
 30
0.0
 40
22.50000000000231
100
AcDbArc
 50
68.762553067
 51
74.9131161672
  0
ARC
  5
2DE
330
1F
100
AcDbEntity
  8
0
  6
Continuous
 62
     7
370
    25
100
AcDbCircle
 10
-0.0000000002
 20
0.0
 30
0.0
 40
44.00000000022057
100
AcDbArc
 50
3.584339138
 51
4.415660862
  0
ARC
  5
2DF
330
1F
100
AcDbEntity
  8
0
  6
Continuous
 62
     7
370
    25
100
AcDbCircle
 10
35.0465496226
 20
24.0856323052
 30
0.0
 40
22.49999999999967
100
AcDbArc
 50
293.0868838328
 51
299.237446933
  0
ARC
  5
2E0
330
1F
100
AcDbEntity
  8
0
  6
Continuous
 62
     7
370
    25
100
AcDbCircle
 10
0.0000000001
 20
0.0
 30
0.0
 40
46.25099999994334
100
AcDbArc
 50
5.5237735224
 51
6.4762264776
  0
ARC
  5
2E1
330
1F
100
AcDbEntity
  8
0
  6
Continuous
 62
     7
370
    25
100
AcDbCircle
 10
39.2883829644
 20
-16.2727160622
 30
0.0
 40
22.5000000000005
100
AcDbArc
 50
72.762553067
 51
78.9131161672
  0
ARC
  5
2E2
330
1F
100
AcDbEntity
  8
0
  6
Continuous
 62
     7
370
    25
100
AcDbCircle
 10
-0.0000000003
 20
0.0
 30
0.0
 40
44.00000000031597
100
AcDbArc
 50
7.584339138
 51
8.415660862
  0
ARC
  5
2E3
330
1F
100
AcDbEntity
  8
0
  6
Continuous
 62
     7
370
    25
100
AcDbCircle
 10
33.2810492117
 20
26.4716846341
 30
0.0
 40
22.49999999999865
100
AcDbArc
 50
297.0868838328
 51
303.237446933
  0
ARC
  5
2E4
330
1F
100
AcDbEntity
  8
0
  6
Continuous
 62
     7
370
    25
100
AcDbCircle
 10
0.0
 20
0.0
 30
0.0
 40
46.25099999998807
100
AcDbArc
 50
9.5237735224
 51
10.4762264776
  0
ARC
  5
2E5
330
1F
100
AcDbEntity
  8
0
  6
Continuous
 62
     7
370
    25
100
AcDbCircle
 10
40.3278057288
 20
-13.492457489
 30
0.0
 40
22.50000000000131
100
AcDbArc
 50
76.762553067
 51
82.9131161672
  0
ARC
  5
2E6
330
1F
100
AcDbEntity
  8
0
  6
Continuous
 62
     7
370
    25
100
AcDbCircle
 10
0.0000000001
 20
0.0
 30
0.0
 40
43.99999999985938
100
AcDbArc
 50
11.584339138
 51
12.415660862
  0
ARC
  5
2E7
330
1F
100
AcDbEntity
  8
0
  6
Continuous
 62
     7
370
    25
100
AcDbCircle
 10
31.3534068743
 20
28.7287695763
 30
0.0
 40
22.50000000000242
100
AcDbArc
 50
301.0868838328
 51
307.237446933
  0
ARC
  5
2E8
330
1F
100
AcDbEntity
  8
0
  6
Continuous
 62
     7
370
    25
100
AcDbCircle
 10
0.0000000001
 20
0.0
 30
0.0
 40
46.25099999987111
100
AcDbArc
 50
13.5237735224
 51
14.4762264776
  0
ARC
  5
2E9
330
1F
100
AcDbEntity
  8
0
  6
Continuous
 62
     7
370
    25
100
AcDbCircle
 10
41.1707554775
 20
-10.6464650192
 30
0.0
 40
22.49999999999774
100
AcDbArc
 50
80.762553067
 51
86.9131161672
  0
ARC
  5
2EA
330
1F
100
AcDbEntity
  8
0
  6
Continuous
 62
     7
370
    25
100
AcDbCircle
 10
-0.0000000002
 20
-0.0000000001
 30
0.0
 40
44.00000000019934
100
AcDbArc
 50
15.584339138
 51
16.415660862
  0
ARC
  5
2EB
330
1F
100
AcDbEntity
  8
0
  6
Continuous
 62
     7
370
    25
100
AcDbCircle
 10
29.2730138904
 20
30.8458908409
 30
0.0
 40
22.49999999999656
100
AcDbArc
 50
305.0868838328
 51
311.237446933
  0
ARC
  5
2EC
330
1F
100
AcDbEntity
  8
0
  6
Continuous
 62
     7
370
    25
100
AcDbCircle
 10
0.0000000002
 20
0.0000000001
 30
0.0
 40
46.25099999979991
100
AcDbArc
 50
17.5237735224
 51
18.4762264776
  0
ARC
  5
2ED
330
1F
100
AcDbEntity
  8
0
  6
Continuous
 62
     7
370
    25
100
AcDbCircle
 10
41.813125444
 20
-7.748604042
 30
0.0
 40
22.49999999999935
100
AcDbArc
 50
84.762553067
 51
90.9131161672
  0
ARC
  5
2EE
330
1F
100
AcDbEntity
  8
0
  6
Continuous
 62
     7
370
    25
100
AcDbCircle
 10
0.0000000001
 20
0.0
 30
0.0
 40
43.9999999999032
100
AcDbArc
 50
19.584339138
 51
20.415660862
  0
ARC
  5
2EF
330
1F
100
AcDbEntity
  8
0
  6
Continuous
 62
     7
370
    25
100
AcDbCircle
 10
27.0500057252
 20
32.812734026
 30
0.0
 40
22.49999999999863
100
AcDbArc
 50
309.0868838328
 51
315.237446933
  0
ARC
  5
2F0
330
1F
100
AcDbEntity
  8
0
  6
Continuous
 62
     7
370
    25
100
AcDbCircle
 10
0.0000000002
 20
0.0000000001
 30
0.0
 40
46.25099999981281
100
AcDbArc
 50
21.5237735224
 51
22.4762264776
  0
ARC
  5
2F1
330
1F
100
AcDbEntity
  8
0
  6
Continuous
 62
     7
370
    25
100
AcDbCircle
 10
42.2517860663
 20
-4.8129926448
 30
0.0
 40
22.50000000000429
100
AcDbArc
 50
88.762553067
 51
94.9131161672
  0
ARC
  5
2F2
330
1F
100
AcDbEntity
  8
0
  6
Continuous
 62
     7
370
    25
100
AcDbCircle
 10
-0.0000000002
 20
-0.0000000001
 30
0.0
 40
44.00000000016613
100
AcDbArc
 50
23.584339138
 51
24.415660862
  0
ARC
  5
2F3
330
1F
100
AcDbEntity
  8
0
  6
Continuous
 62
     7
370
    25
100
AcDbCircle
 10
24.6952126513
 20
34.6197168692
 30
0.0
 40
22.50000000000164
100
AcDbArc
 50
313.0868838328
 51
319.237446933
  0
ARC
  5
2F4
330
1F
100
AcDbEntity
  8
0
  6
Continuous
 62
     7
370
    25
100
AcDbCircle
 10
0.0000000001
 20
0.0
 30
0.0
 40
46.2509999998889
100
AcDbArc
 50
25.5237735224
 51
26.4762264776
  0
ARC
  5
2F5
330
1F
100
AcDbEntity
  8
0
  6
Continuous
 62
     7
370
    25
100
AcDbCircle
 10
42.4846002341
 20
-1.8539328313
 30
0.0
 40
22.50000000000196
100
AcDbArc
 50
92.762553067
 51
98.9131161672
  0
ARC
  5
2F6
330
1F
100
AcDbEntity
  8
0
  6
Continuous
 62
     7
370
    25
100
AcDbCircle
 10
0.0
 20
0.0
 30
0.0
 40
43.99999999997745
100
AcDbArc
 50
27.584339138
 51
28.415660862
  0
ARC
  5
2F7
330
1F
100
AcDbEntity
  8
0
  6
Continuous
 62
     7
370
    25
100
AcDbCircle
 10
22.2201069836
 20
36.2580359318
 30
0.0
 40
22.49999999999842
100
AcDbArc
 50
317.0868838328
 51
323.237446933
  0
ARC
  5
2F8
330
1F
100
AcDbEntity
  8
0
  6
Continuous
 62
     7
370
    25
100
AcDbCircle
 10
0.0000000001
 20
0.0
 30
0.0
 40
46.2509999999188
100
AcDbArc
 50
29.5237735224
 51
30.4762264776
  0
ARC
  5
2F9
330
1F
100
AcDbEntity
  8
0
  6
Continuous
 62
     7
370
    25
100
AcDbCircle
 10
42.5104337001
 20
1.1141591567
 30
0.0
 40
22.49999999999826
100
AcDbArc
 50
96.762553067
 51
102.9131161672
  0
ARC
  5
2FA
330
1F
100
AcDbEntity
  8
0
  6
Continuous
 62
     7
370
    25
100
AcDbCircle
 10
0.0
 20
0.0
 30
0.0
 40
43.99999999999492
100
AcDbArc
 50
31.584339138
 51
32.415660862
  0
ARC
  5
2FB
330
1F
100
AcDbEntity
  8
0
  6
Continuous
 62
     7
370
    25
100
AcDbCircle
 10
19.6367471883
 20
37.719709488
 30
0.0
 40
22.49999999999721
100
AcDbArc
 50
321.0868838328
 51
327.237446933
  0
ARC
  5
2FC
330
1F
100
AcDbEntity
  8
0
  6
Continuous
 62
     7
370
    25
100
AcDbCircle
 10
0.0000000001
 20
0.0000000001
 30
0.0
 40
46.25099999987927
100
AcDbArc
 50
33.5237735224
 51
34.4762264776
  0
ARC
  5
2FD
330
1F
100
AcDbEntity
  8
0
  6
Continuous
 62
     7
370
    25
100
AcDbCircle
 10
42.3291606062
 20
4.0768230733
 30
0.0
 40
22.49999999999973
100
AcDbArc
 50
100.762553067
 51
106.9131161672
  0
ARC
  5
2FE
330
1F
100
AcDbEntity
  8
0
  6
Continuous
 62
     7
370
    25
100
AcDbCircle
 10
0.0
 20
0.0
 30
0.0
 40
43.99999999999869
100
AcDbArc
 50
35.584339138
 51
36.415660862
  0
ARC
  5
2FF
330
1F
100
AcDbEntity
  8
0
  6
Continuous
 62
     7
370
    25
100
AcDbCircle
 10
16.9577191345
 20
38.9976164111
 30
0.0
 40
22.49999999999747
100
AcDbArc
 50
325.0868838328
 51
331.237446933
  0
ARC
  5
300
330
1F
100
AcDbEntity
  8
0
  6
Continuous
 62
     7
370
    25
100
AcDbCircle
 10
0.0000000001
 20
0.0000000001
 30
0.0
 40
46.25099999985477
100
AcDbArc
 50
37.5237735224
 51
38.4762264776
  0
ARC
  5
301
330
1F
100
AcDbEntity
  8
0
  6
Continuous
 62
     7
370
    25
100
AcDbCircle
 10
41.9416640967
 20
7.0196251176
 30
0.0
 40
22.49999999999955
100
AcDbArc
 50
104.762553067
 51
110.9131161672
  0
ARC
  5
302
330
1F
100
AcDbEntity
  8
0
  6
Continuous
 62
     7
370
    25
100
AcDbCircle
 10
0.0
 20
0.0
 30
0.0
 40
43.99999999994152
100
AcDbArc
 50
39.584339138
 51
40.415660862
  0
ARC
  5
303
330
1F
100
AcDbEntity
  8
0
  6
Continuous
 62
     7
370
    25
100
AcDbCircle
 10
14.1960747777
 20
40.0855308671
 30
0.0
 40
22.50000000000374
100
AcDbArc
 50
329.0868838328
 51
335.237446933
  0
ARC
  5
304
330
1F
100
AcDbEntity
  8
0
  6
Continuous
 62
     7
370
    25
100
AcDbCircle
 10
0.0000000001
 20
0.0000000001
 30
0.0
 40
46.25099999983534
100
AcDbArc
 50
41.5237735224
 51
42.4762264776
  0
ARC
  5
305
330
1F
100
AcDbEntity
  8
0
  6
Continuous
 62
     7
370
    25
100
AcDbCircle
 10
41.3498320158
 20
9.9282282539
 30
0.0
 40
22.50000000000083
100
AcDbArc
 50
108.762553067
 51
114.9131161672
  0
ARC
  5
306
330
1F
100
AcDbEntity
  8
0
  6
Continuous
 62
     7
370
    25
100
AcDbCircle
 10
0.0
 20
0.0
 30
0.0
 40
43.99999999999395
100
AcDbArc
 50
43.584339138
 51
44.415660862
  0
ARC
  5
307
330
1F
100
AcDbEntity
  8
0
  6
Continuous
 62
     7
370
    25
100
AcDbCircle
 10
11.3652685716
 20
40.9781526461
 30
0.0
 40
22.49999999999932
100
AcDbArc
 50
333.0868838328
 51
339.237446933
  0
ARC
  5
308
330
1F
100
AcDbEntity
  8
0
  6
Continuous
 62
     7
370
    25
100
AcDbCircle
 10
0.0000000001
 20
0.0000000001
 30
0.0
 40
46.25099999988183
100
AcDbArc
 50
45.5237735224
 51
46.4762264776
  0
ARC
  5
309
330
1F
100
AcDbEntity
  8
0
  6
Continuous
 62
     7
370
    25
100
AcDbCircle
 10
40.5565477097
 20
12.7884620602
 30
0.0
 40
22.49999999999982
100
AcDbArc
 50
112.762553067
 51
118.9131161672
  0
ARC
  5
30A
330
1F
100
AcDbEntity
  8
0
  6
Continuous
 62
     7
370
    25
100
AcDbCircle
 10
0.0000000001
 20
0.0000000001
 30
0.0
 40
43.99999999980412
100
AcDbArc
 50
47.584339138
 51
48.415660862
  0
ARC
  5
30B
330
1F
100
AcDbEntity
  8
0
  6
Continuous
 62
     7
370
    25
100
AcDbCircle
 10
8.4790919195
 20
41.6711329845
 30
0.0
 40
22.50000000000161
100
AcDbArc
 50
337.0868838328
 51
343.237446933
  0
ARC
  5
30C
330
1F
100
AcDbEntity
  8
0
  6
Continuous
 62
     7
370
    25
100
AcDbCircle
 10
0.0
 20
0.0
 30
0.0
 40
46.25099999999394
100
AcDbArc
 50
49.5237735224
 51
50.4762264776
  0
ARC
  5
30D
330
1F
100
AcDbEntity
  8
0
  6
Continuous
 62
     7
370
    25
100
AcDbCircle
 10
39.5656759799
 20
15.5863917649
 30
0.0
 40
22.50000000000004
100
AcDbArc
 50
116.762553067
 51
122.9131161672
  0
ARC
  5
30E
330
1F
100
AcDbEntity
  8
0
  6
Continuous
 62
     7
370
    25
100
AcDbCircle
 10
-0.0000000001
 20
-0.0000000001
 30
0.0
 40
44.00000000009027
100
AcDbArc
 50
51.584339138
 51
52.415660862
  0
ARC
  5
30F
330
1F
100
AcDbEntity
  8
0
  6
Continuous
 62
     7
370
    25
100
AcDbCircle
 10
5.5516059838
 20
42.1610957518
 30
0.0
 40
22.49999999999939
100
AcDbArc
 50
341.0868838328
 51
347.237446933
  0
ARC
  5
310
330
1F
100
AcDbEntity
  8
0
  6
Continuous
 62
     7
370
    25
100
AcDbCircle
 10
0.0000000001
 20
0.0000000001
 30
0.0
 40
46.25099999988892
100
AcDbArc
 50
53.5237735224
 51
54.4762264776
  0
ARC
  5
311
330
1F
100
AcDbEntity
  8
0
  6
Continuous
 62
     7
370
    25
100
AcDbCircle
 10
38.3820442539
 20
18.3083861356
 30
0.0
 40
22.49999999999943
100
AcDbArc
 50
120.762553067
 51
126.9131161672
  0
ARC
  5
312
330
1F
100
AcDbEntity
  8
0
  6
Continuous
 62
     7
370
    25
100
AcDbCircle
 10
-0.0000000001
 20
-0.0000000001
 30
0.0
 40
44.00000000014522
100
AcDbArc
 50
55.584339138
 51
56.415660862
  0
ARC
  5
313
330
1F
100
AcDbEntity
  8
0
  6
Continuous
 62
     7
370
    25
100
AcDbCircle
 10
2.5970731818
 20
42.4456538986
 30
0.0
 40
22.4999999999976
100
AcDbArc
 50
345.0868838328
 51
351.237446933
  0
ARC
  5
314
330
1F
100
AcDbEntity
  8
0
  6
Continuous
 62
     7
370
    25
100
AcDbCircle
 10
0.0
 20
0.0
 30
0.0
 40
46.2510000000259
100
AcDbArc
 50
57.5237735224
 51
58.4762264776
  0
ARC
  5
315
330
1F
100
AcDbEntity
  8
0
  6
Continuous
 62
     7
370
    25
100
AcDbCircle
 10
37.0114190664
 20
20.9411838894
 30
0.0
 40
22.49999999999776
100
AcDbArc
 50
124.762553067
 51
130.9131161672
  0
ARC
  5
316
330
1F
100
AcDbEntity
  8
0
  6
Continuous
 62
     7
370
    25
100
AcDbCircle
 10
0.0
 20
0.0
 30
0.0
 40
43.99999999994943
100
AcDbArc
 50
59.584339138
 51
60.415660862
  0
ARC
  5
317
330
1F
100
AcDbEntity
  8
0
  6
Continuous
 62
     7
370
    25
100
AcDbCircle
 10
-0.3701122997
 20
42.5234210863
 30
0.0
 40
22.49999999999594
100
AcDbArc
 50
349.0868838328
 51
355.237446933
  0
ARC
  5
318
330
1F
100
AcDbEntity
  8
0
  6
Continuous
 62
     7
370
    25
100
AcDbCircle
 10
0.0
 20
0.0000000001
 30
0.0
 40
46.25099999991593
100
AcDbArc
 50
61.5237735224
 51
62.4762264776
  0
ARC
  5
319
330
1F
100
AcDbEntity
  8
0
  6
Continuous
 62
     7
370
    25
100
AcDbCircle
 10
35.4604779656
 20
23.4719583002
 30
0.0
 40
22.49999999999984
100
AcDbArc
 50
128.762553067
 51
134.9131161672
  0
ARC
  5
31A
330
1F
100
AcDbEntity
  8
0
  6
Continuous
 62
     7
370
    25
100
AcDbCircle
 10
-0.0000000001
 20
-0.0000000001
 30
0.0
 40
44.00000000014819
100
AcDbArc
 50
63.584339138
 51
64.415660862
  0
ARC
  5
31B
330
1F
100
AcDbEntity
  8
0
  6
Continuous
 62
     7
370
    25
100
AcDbCircle
 10
-3.3354946312
 20
42.3940184408
 30
0.0
 40
22.50000000000246
100
AcDbArc
 50
353.0868838328
 51
359.237446933
  0
ARC
  5
31C
330
1F
100
AcDbEntity
  8
0
  6
Continuous
 62
     7
370
    25
100
AcDbCircle
 10
0.0
 20
0.0000000001
 30
0.0
 40
46.25099999988463
100
AcDbArc
 50
65.5237735224
 51
66.4762264776
  0
ARC
  5
31D
330
1F
100
AcDbEntity
  8
0
  6
Continuous
 62
     7
370
    25
100
AcDbCircle
 10
33.7367769806
 20
25.8883796897
 30
0.0
 40
22.49999999999998
100
AcDbArc
 50
132.762553067
 51
138.9131161672
  0
ARC
  5
31E
330
1F
100
AcDbEntity
  8
0
  6
Continuous
 62
     7
370
    25
100
AcDbCircle
 10
-0.0000000001
 20
-0.0000000001
 30
0.0
 40
44.00000000014937
100
AcDbArc
 50
67.584339138
 51
68.415660862
  0
ARC
  5
31F
330
1F
100
AcDbEntity
  8
0
  6
Continuous
 62
     7
370
    25
100
AcDbCircle
 10
-6.2846267682
 20
42.0580763989
 30
0.0
 40
22.49999999999604
100
AcDbArc
 50
357.0868838328
 51
3.237446933
  0
ARC
  5
320
330
1F
100
AcDbEntity
  8
0
  6
Continuous
 62
     7
370
    25
100
AcDbCircle
 10
0.0000000001
 20
0.0000000001
 30
0.0
 40
46.25099999984563
100
AcDbArc
 50
69.5237735224
 51
70.4762264776
  0
ARC
  5
321
330
1F
100
AcDbEntity
  8
0
  6
Continuous
 62
     7
370
    25
100
AcDbCircle
 10
31.8487138094
 20
28.1786754955
 30
0.0
 40
22.50000000000084
100
AcDbArc
 50
136.762553067
 51
142.9131161672
  0
ARC
  5
322
330
1F
100
AcDbEntity
  8
0
  6
Continuous
 62
     7
370
    25
100
AcDbCircle
 10
-0.0000000001
 20
-0.0000000002
 30
0.0
 40
44.00000000018426
100
AcDbArc
 50
71.584339138
 51
72.415660862
  0
ARC
  5
323
330
1F
100
AcDbEntity
  8
0
  6
Continuous
 62
     7
370
    25
100
AcDbCircle
 10
-9.2031408353
 20
41.5172316365
 30
0.0
 40
22.49999999999811
100
AcDbArc
 50
1.0868838328
 51
7.237446933
  0
ARC
  5
324
330
1F
100
AcDbEntity
  8
0
  6
Continuous
 62
     7
370
    25
100
AcDbCircle
 10
0.0
 20
0.0000000001
 30
0.0
 40
46.25099999987329
100
AcDbArc
 50
73.5237735224
 51
74.4762264776
  0
ARC
  5
325
330
1F
100
AcDbEntity
  8
0
  6
Continuous
 62
     7
370
    25
100
AcDbCircle
 10
29.8054869059
 20
30.3316876269
 30
0.0
 40
22.4999999999986
100
AcDbArc
 50
140.762553067
 51
146.9131161672
  0
ARC
  5
326
330
1F
100
AcDbEntity
  8
0
  6
Continuous
 62
     7
370
    25
100
AcDbCircle
 10
0.0000000001
 20
0.0000000003
 30
0.0
 40
43.99999999965403
100
AcDbArc
 50
75.584339138
 51
76.415660862
  0
ARC
  5
327
330
1F
100
AcDbEntity
  8
0
  6
Continuous
 62
     7
370
    25
100
AcDbCircle
 10
-12.0768181254
 20
40.7741190948
 30
0.0
 40
22.50000000000046
100
AcDbArc
 50
5.0868838328
 51
11.237446933
  0
ARC
  5
328
330
1F
100
AcDbEntity
  8
0
  6
Continuous
 62
     7
370
    25
100
AcDbCircle
 10
0.0
 20
0.0000000001
 30
0.0
 40
46.25099999989756
100
AcDbArc
 50
77.5237735224
 51
78.4762264776
  0
ARC
  5
329
330
1F
100
AcDbEntity
  8
0
  6
Continuous
 62
     7
370
    25
100
AcDbCircle
 10
27.6170506662
 20
32.3369268251
 30
0.0
 40
22.50000000000157
100
AcDbArc
 50
144.762553067
 51
150.9131161672
  0
ARC
  5
32A
330
1F
100
AcDbEntity
  8
0
  6
Continuous
 62
     7
370
    25
100
AcDbCircle
 10
0.0
 20
0.0
 30
0.0
 40
43.99999999996978
100
AcDbArc
 50
79.584339138
 51
80.415660862
  0
ARC
  5
32B
330
1F
100
AcDbEntity
  8
0
  6
Continuous
 62
     7
370
    25
100
AcDbCircle
 10
-14.8916583715
 20
39.8323591436
 30
0.0
 40
22.5000000000003
100
AcDbArc
 50
9.0868838328
 51
15.237446933
  0
ARC
  5
32C
330
1F
100
AcDbEntity
  8
0
  6
Continuous
 62
     7
370
    25
100
AcDbCircle
 10
0.0
 20
0.0000000002
 30
0.0
 40
46.25099999983988
100
AcDbArc
 50
81.5237735224
 51
82.4762264776
  0
ARC
  5
32D
330
1F
100
AcDbEntity
  8
0
  6
Continuous
 62
     7
370
    25
100
AcDbCircle
 10
25.2940669318
 20
34.1846237663
 30
0.0
 40
22.49999999999987
100
AcDbArc
 50
148.762553067
 51
154.9131161672
  0
ARC
  5
32E
330
1F
100
AcDbEntity
  8
0
  6
Continuous
 62
     7
370
    25
100
AcDbCircle
 10
0.0
 20
-0.0000000001
 30
0.0
 40
44.00000000009488
100
AcDbArc
 50
83.584339138
 51
84.415660862
  0
ARC
  5
32F
330
1F
100
AcDbEntity
  8
0
  6
Continuous
 62
     7
370
    25
100
AcDbCircle
 10
-17.6339479549
 20
38.6965399424
 30
0.0
 40
22.49999999999928
100
AcDbArc
 50
13.0868838328
 51
19.237446933
  0
ARC
  5
330
330
1F
100
AcDbEntity
  8
0
  6
Continuous
 62
     7
370
    25
100
AcDbCircle
 10
0.0
 20
0.0000000001
 30
0.0
 40
46.2509999998619
100
AcDbArc
 50
85.5237735224
 51
86.4762264776
  0
ARC
  5
331
330
1F
100
AcDbEntity
  8
0
  6
Continuous
 62
     7
370
    25
100
AcDbCircle
 10
22.8478530458
 20
35.8657766567
 30
0.0
 40
22.50000000000117
100
AcDbArc
 50
152.762553067
 51
158.9131161672
  0
ARC
  5
332
330
1F
100
AcDbEntity
  8
0
  6
Continuous
 62
     7
370
    25
100
AcDbCircle
 10
0.0000000001
 20
0.0
 30
0.0
 40
46.25100000008388
100
AcDbArc
 50
205.5237735224
 51
206.4762264776
  0
ARC
  5
333
330
1F
100
AcDbEntity
  8
0
  6
Continuous
 62
     7
370
    25
100
AcDbCircle
 10
-24.6952126513
 20
-34.6197168692
 30
0.0
 40
22.50000000000156
100
AcDbArc
 50
133.0868838328
 51
139.237446933
  0
CIRCLE
  5
49C
330
1B
100
AcDbEntity
 67
     1
  8
0
  6
Continuous
 62
     7
370
    25
100
AcDbCircle
 10
0.0
 20
0.0
 30
0.0
 40
48.99999999999996
  0
ARC
  5
49D
330
1B
100
AcDbEntity
 67
     1
  8
0
  6
Continuous
 62
     7
370
    25
100
AcDbCircle
 10
0.0
 20
-0.0000000003
 30
0.0
 40
44.00000000027098
100
AcDbArc
 50
87.584339138
 51
88.415660862
  0
ARC
  5
49E
330
1B
100
AcDbEntity
 67
     1
  8
0
  6
Continuous
 62
     7
370
    25
100
AcDbCircle
 10
-20.2903267165
 20
37.3721950885
 30
0.0
 40
22.4999999999992
100
AcDbArc
 50
17.0868838328
 51
23.237446933
  0
ARC
  5
49F
330
1B
100
AcDbEntity
 67
     1
  8
0
  6
Continuous
 62
     7
370
    25
100
AcDbCircle
 10
0.0
 20
0.0000000002
 30
0.0
 40
46.25099999979079
100
AcDbArc
 50
89.5237735224
 51
90.4762264776
  0
ARC
  5
4A0
330
1B
100
AcDbEntity
 67
     1
  8
0
  6
Continuous
 62
     7
370
    25
100
AcDbCircle
 10
20.2903267165
 20
37.3721950885
 30
0.0
 40
22.49999999999988
100
AcDbArc
 50
156.762553067
 51
162.9131161672
  0
ARC
  5
4A1
330
1B
100
AcDbEntity
 67
     1
  8
0
  6
Continuous
 62
     7
370
    25
100
AcDbCircle
 10
0.0
 20
-0.0000000001
 30
0.0
 40
44.00000000014626
100
AcDbArc
 50
91.584339138
 51
92.415660862
  0
ARC
  5
4A2
330
1B
100
AcDbEntity
 67
     1
  8
0
  6
Continuous
 62
     7
370
    25
100
AcDbCircle
 10
-22.8478530458
 20
35.8657766567
 30
0.0
 40
22.50000000000279
100
AcDbArc
 50
21.0868838328
 51
27.237446933
  0
ARC
  5
4A3
330
1B
100
AcDbEntity
 67
     1
  8
0
  6
Continuous
 62
     7
370
    25
100
AcDbCircle
 10
0.0
 20
0.0
 30
0.0
 40
46.25099999998829
100
AcDbArc
 50
93.5237735224
 51
94.4762264776
  0
ARC
  5
4A4
330
1B
100
AcDbEntity
 67
     1
  8
0
  6
Continuous
 62
     7
370
    25
100
AcDbCircle
 10
17.6339479549
 20
38.6965399424
 30
0.0
 40
22.4999999999995
100
AcDbArc
 50
160.762553067
 51
166.9131161672
  0
ARC
  5
4A5
330
1B
100
AcDbEntity
 67
     1
  8
0
  6
Continuous
 62
     7
370
    25
100
AcDbCircle
 10
0.0
 20
0.0
 30
0.0
 40
44.00000000004448
100
AcDbArc
 50
95.584339138
 51
96.415660862
  0
ARC
  5
4A6
330
1B
100
AcDbEntity
 67
     1
  8
0
  6
Continuous
 62
     7
370
    25
100
AcDbCircle
 10
-25.2940669318
 20
34.1846237663
 30
0.0
 40
22.50000000000023
100
AcDbArc
 50
25.0868838328
 51
31.237446933
  0
ARC
  5
4A7
330
1B
100
AcDbEntity
 67
     1
  8
0
  6
Continuous
 62
     7
370
    25
100
AcDbCircle
 10
0.0
 20
0.0000000001
 30
0.0
 40
46.25099999993007
100
AcDbArc
 50
97.5237735224
 51
98.4762264776
  0
ARC
  5
4A8
330
1B
100
AcDbEntity
 67
     1
  8
0
  6
Continuous
 62
     7
370
    25
100
AcDbCircle
 10
14.8916583715
 20
39.8323591436
 30
0.0
 40
22.50000000000113
100
AcDbArc
 50
164.762553067
 51
170.9131161672
  0
ARC
  5
4A9
330
1B
100
AcDbEntity
 67
     1
  8
0
  6
Continuous
 62
     7
370
    25
100
AcDbCircle
 10
0.0
 20
0.0
 30
0.0
 40
44.00000000000253
100
AcDbArc
 50
99.584339138
 51
100.415660862
  0
ARC
  5
4AA
330
1B
100
AcDbEntity
 67
     1
  8
0
  6
Continuous
 62
     7
370
    25
100
AcDbCircle
 10
-27.6170506662
 20
32.3369268251
 30
0.0
 40
22.4999999999993
100
AcDbArc
 50
29.0868838328
 51
35.237446933
  0
ARC
  5
4AB
330
1B
100
AcDbEntity
 67
     1
  8
0
  6
Continuous
 62
     7
370
    25
100
AcDbCircle
 10
0.0
 20
0.0
 30
0.0
 40
46.25099999999836
100
AcDbArc
 50
101.5237735224
 51
102.4762264776
  0
ARC
  5
4AC
330
1B
100
AcDbEntity
 67
     1
  8
0
  6
Continuous
 62
     7
370
    25
100
AcDbCircle
 10
12.0768181254
 20
40.7741190948
 30
0.0
 40
22.49999999999985
100
AcDbArc
 50
168.762553067
 51
174.9131161672
  0
ARC
  5
4AD
330
1B
100
AcDbEntity
 67
     1
  8
0
  6
Continuous
 62
     7
370
    25
100
AcDbCircle
 10
0.0
 20
-0.0000000002
 30
0.0
 40
44.00000000017693
100
AcDbArc
 50
103.584339138
 51
104.415660862
  0
ARC
  5
4AE
330
1B
100
AcDbEntity
 67
     1
  8
0
  6
Continuous
 62
     7
370
    25
100
AcDbCircle
 10
-29.8054869059
 20
30.3316876269
 30
0.0
 40
22.50000000000059
100
AcDbArc
 50
33.0868838328
 51
39.237446933
  0
ARC
  5
4AF
330
1B
100
AcDbEntity
 67
     1
  8
0
  6
Continuous
 62
     7
370
    25
100
AcDbCircle
 10
0.0
 20
0.0000000001
 30
0.0
 40
46.25099999993026
100
AcDbArc
 50
105.5237735224
 51
106.4762264776
  0
ARC
  5
4B0
330
1B
100
AcDbEntity
 67
     1
  8
0
  6
Continuous
 62
     7
370
    25
100
AcDbCircle
 10
9.2031408353
 20
41.5172316365
 30
0.0
 40
22.49999999999792
100
AcDbArc
 50
172.762553067
 51
178.9131161672
  0
ARC
  5
4B1
330
1B
100
AcDbEntity
 67
     1
  8
0
  6
Continuous
 62
     7
370
    25
100
AcDbCircle
 10
-0.0000000001
 20
0.0000000002
 30
0.0
 40
43.99999999981832
100
AcDbArc
 50
107.584339138
 51
108.415660862
  0
ARC
  5
4B2
330
1B
100
AcDbEntity
 67
     1
  8
0
  6
Continuous
 62
     7
370
    25
100
AcDbCircle
 10
-31.8487138094
 20
28.1786754956
 30
0.0
 40
22.49999999999775
100
AcDbArc
 50
37.0868838328
 51
43.237446933
  0
ARC
  5
4B3
330
1B
100
AcDbEntity
 67
     1
  8
0
  6
Continuous
 62
     7
370
    25
100
AcDbCircle
 10
0.0
 20
0.0000000001
 30
0.0
 40
46.25099999986521
100
AcDbArc
 50
109.5237735224
 51
110.4762264776
  0
ARC
  5
4B4
330
1B
100
AcDbEntity
 67
     1
  8
0
  6
Continuous
 62
     7
370
    25
100
AcDbCircle
 10
6.2846267682
 20
42.0580763989
 30
0.0
 40
22.50000000000318
100
AcDbArc
 50
176.762553067
 51
182.9131161672
  0
ARC
  5
4B5
330
1B
100
AcDbEntity
 67
     1
  8
0
  6
Continuous
 62
     7
370
    25
100
AcDbCircle
 10
-0.0000000001
 20
0.0000000002
 30
0.0
 40
43.99999999977294
100
AcDbArc
 50
111.584339138
 51
112.415660862
  0
ARC
  5
4B6
330
1B
100
AcDbEntity
 67
     1
  8
0
  6
Continuous
 62
     7
370
    25
100
AcDbCircle
 10
-33.7367769806
 20
25.8883796897
 30
0.0
 40
22.49999999999914
100
AcDbArc
 50
41.0868838328
 51
47.237446933
  0
ARC
  5
4B7
330
1B
100
AcDbEntity
 67
     1
  8
0
  6
Continuous
 62
     7
370
    25
100
AcDbCircle
 10
-0.0000000001
 20
0.0000000001
 30
0.0
 40
46.2509999998395
100
AcDbArc
 50
113.5237735224
 51
114.4762264776
  0
ARC
  5
4B8
330
1B
100
AcDbEntity
 67
     1
  8
0
  6
Continuous
 62
     7
370
    25
100
AcDbCircle
 10
3.3354946312
 20
42.3940184408
 30
0.0
 40
22.49999999999882
100
AcDbArc
 50
180.762553067
 51
186.9131161672
  0
ARC
  5
4B9
330
1B
100
AcDbEntity
 67
     1
  8
0
  6
Continuous
 62
     7
370
    25
100
AcDbCircle
 10
0.0000000001
 20
-0.0000000001
 30
0.0
 40
44.00000000016377
100
AcDbArc
 50
115.584339138
 51
116.415660862
  0
ARC
  5
4BA
330
1B
100
AcDbEntity
 67
     1
  8
0
  6
Continuous
 62
     7
370
    25
100
AcDbCircle
 10
-35.4604779656
 20
23.4719583002
 30
0.0
 40
22.50000000000022
100
AcDbArc
 50
45.0868838328
 51
51.237446933
  0
ARC
  5
4BB
330
1B
100
AcDbEntity
 67
     1
  8
0
  6
Continuous
 62
     7
370
    25
100
AcDbCircle
 10
-0.0000000001
 20
0.0000000001
 30
0.0
 40
46.25099999983427
100
AcDbArc
 50
117.5237735224
 51
118.4762264776
  0
ARC
  5
4BC
330
1B
100
AcDbEntity
 67
     1
  8
0
  6
Continuous
 62
     7
370
    25
100
AcDbCircle
 10
0.3701122997
 20
42.5234210863
 30
0.0
 40
22.5000000000007
100
AcDbArc
 50
184.762553067
 51
190.9131161672
  0
ARC
  5
4BD
330
1B
100
AcDbEntity
 67
     1
  8
0
  6
Continuous
 62
     7
370
    25
100
AcDbCircle
 10
-0.0000000001
 20
0.0000000001
 30
0.0
 40
43.99999999986621
100
AcDbArc
 50
119.584339138
 51
120.415660862
  0
ARC
  5
4BE
330
1B
100
AcDbEntity
 67
     1
  8
0
  6
Continuous
 62
     7
370
    25
100
AcDbCircle
 10
-37.0114190664
 20
20.9411838894
 30
0.0
 40
22.49999999999655
100
AcDbArc
 50
49.0868838328
 51
55.237446933
  0
ARC
  5
4BF
330
1B
100
AcDbEntity
 67
     1
  8
0
  6
Continuous
 62
     7
370
    25
100
AcDbCircle
 10
0.0
 20
0.0000000001
 30
0.0
 40
46.25099999993952
100
AcDbArc
 50
121.5237735224
 51
122.4762264776
  0
ARC
  5
4C0
330
1B
100
AcDbEntity
 67
     1
  8
0
  6
Continuous
 62
     7
370
    25
100
AcDbCircle
 10
-2.5970731818
 20
42.4456538986
 30
0.0
 40
22.50000000000123
100
AcDbArc
 50
188.762553067
 51
194.9131161672
  0
ARC
  5
4C1
330
1B
100
AcDbEntity
 67
     1
  8
0
  6
Continuous
 62
     7
370
    25
100
AcDbCircle
 10
0.0
 20
0.0
 30
0.0
 40
43.9999999999668
100
AcDbArc
 50
123.584339138
 51
124.415660862
  0
ARC
  5
4C2
330
1B
100
AcDbEntity
 67
     1
  8
0
  6
Continuous
 62
     7
370
    25
100
AcDbCircle
 10
-38.3820442539
 20
18.3083861356
 30
0.0
 40
22.49999999999875
100
AcDbArc
 50
53.0868838328
 51
59.237446933
  0
ARC
  5
4C3
330
1B
100
AcDbEntity
 67
     1
  8
0
  6
Continuous
 62
     7
370
    25
100
AcDbCircle
 10
-0.0000000002
 20
0.0000000002
 30
0.0
 40
46.25099999969301
100
AcDbArc
 50
125.5237735224
 51
126.4762264776
  0
ARC
  5
4C4
330
1B
100
AcDbEntity
 67
     1
  8
0
  6
Continuous
 62
     7
370
    25
100
AcDbCircle
 10
-5.5516059838
 20
42.1610957518
 30
0.0
 40
22.50000000000191
100
AcDbArc
 50
192.762553067
 51
198.9131161672
  0
ARC
  5
4C5
330
1B
100
AcDbEntity
 67
     1
  8
0
  6
Continuous
 62
     7
370
    25
100
AcDbCircle
 10
0.0
 20
0.0
 30
0.0
 40
43.9999999999608
100
AcDbArc
 50
127.584339138
 51
128.415660862
  0
ARC
  5
4C6
330
1B
100
AcDbEntity
 67
     1
  8
0
  6
Continuous
 62
     7
370
    25
100
AcDbCircle
 10
-39.5656759799
 20
15.5863917649
 30
0.0
 40
22.4999999999949
100
AcDbArc
 50
57.0868838328
 51
63.237446933
  0
ARC
  5
4C7
330
1B
100
AcDbEntity
 67
     1
  8
0
  6
Continuous
 62
     7
370
    25
100
AcDbCircle
 10
-0.0000000001
 20
0.0000000002
 30
0.0
 40
46.25099999977308
100
AcDbArc
 50
129.5237735224
 51
130.4762264776
  0
ARC
  5
4C8
330
1B
100
AcDbEntity
 67
     1
  8
0
  6
Continuous
 62
     7
370
    25
100
AcDbCircle
 10
-8.4790919195
 20
41.6711329845
 30
0.0
 40
22.49999999999757
100
AcDbArc
 50
196.762553067
 51
202.9131161672
  0
ARC
  5
4C9
330
1B
100
AcDbEntity
 67
     1
  8
0
  6
Continuous
 62
     7
370
    25
100
AcDbCircle
 10
0.0000000001
 20
-0.0000000001
 30
0.0
 40
44.00000000010981
100
AcDbArc
 50
131.584339138
 51
132.415660862
  0
ARC
  5
4CA
330
1B
100
AcDbEntity
 67
     1
  8
0
  6
Continuous
 62
     7
370
    25
100
AcDbCircle
 10
-40.5565477097
 20
12.7884620602
 30
0.0
 40
22.49999999999858
100
AcDbArc
 50
61.0868838328
 51
67.237446933
  0
ARC
  5
4CB
330
1B
100
AcDbEntity
 67
     1
  8
0
  6
Continuous
 62
     7
370
    25
100
AcDbCircle
 10
-0.0000000001
 20
0.0000000001
 30
0.0
 40
46.25099999985917
100
AcDbArc
 50
133.5237735224
 51
134.4762264776
  0
ARC
  5
4CC
330
1B
100
AcDbEntity
 67
     1
  8
0
  6
Continuous
 62
     7
370
    25
100
AcDbCircle
 10
-11.3652685716
 20
40.9781526461
 30
0.0
 40
22.50000000000229
100
AcDbArc
 50
200.762553067
 51
206.9131161672
  0
ARC
  5
4CD
330
1B
100
AcDbEntity
 67
     1
  8
0
  6
Continuous
 62
     7
370
    25
100
AcDbCircle
 10
-0.0000000001
 20
0.0000000001
 30
0.0
 40
43.99999999989769
100
AcDbArc
 50
135.584339138
 51
136.415660862
  0
ARC
  5
4CE
330
1B
100
AcDbEntity
 67
     1
  8
0
  6
Continuous
 62
     7
370
    25
100
AcDbCircle
 10
-41.3498320158
 20
9.9282282539
 30
0.0
 40
22.49999999999676
100
AcDbArc
 50
65.0868838328
 51
71.237446933
  0
ARC
  5
4CF
330
1B
100
AcDbEntity
 67
     1
  8
0
  6
Continuous
 62
     7
370
    25
100
AcDbCircle
 10
0.0000000001
 20
-0.0000000001
 30
0.0
 40
46.25100000014923
100
AcDbArc
 50
137.5237735224
 51
138.4762264776
  0
ARC
  5
4D0
330
1B
100
AcDbEntity
 67
     1
  8
0
  6
Continuous
 62
     7
370
    25
100
AcDbCircle
 10
-14.1960747777
 20
40.0855308671
 30
0.0
 40
22.50000000000205
100
AcDbArc
 50
204.762553067
 51
210.9131161672
  0
ARC
  5
4D1
330
1B
100
AcDbEntity
 67
     1
  8
0
  6
Continuous
 62
     7
370
    25
100
AcDbCircle
 10
0.0000000001
 20
-0.0000000001
 30
0.0
 40
44.00000000018926
100
AcDbArc
 50
139.584339138
 51
140.415660862
  0
ARC
  5
4D2
330
1B
100
AcDbEntity
 67
     1
  8
0
  6
Continuous
 62
     7
370
    25
100
AcDbCircle
 10
-41.9416640967
 20
7.0196251176
 30
0.0
 40
22.49999999999816
100
AcDbArc
 50
69.0868838328
 51
75.237446933
  0
ARC
  5
4D3
330
1B
100
AcDbEntity
 67
     1
  8
0
  6
Continuous
 62
     7
370
    25
100
AcDbCircle
 10
-0.0000000001
 20
0.0000000001
 30
0.0
 40
46.25099999981311
100
AcDbArc
 50
141.5237735224
 51
142.4762264776
  0
ARC
  5
4D4
330
1B
100
AcDbEntity
 67
     1
  8
0
  6
Continuous
 62
     7
370
    25
100
AcDbCircle
 10
-16.9577191345
 20
38.9976164111
 30
0.0
 40
22.49999999999735
100
AcDbArc
 50
208.762553067
 51
214.9131161672
  0
ARC
  5
4D5
330
1B
100
AcDbEntity
 67
     1
  8
0
  6
Continuous
 62
     7
370
    25
100
AcDbCircle
 10
0.0000000001
 20
-0.0000000001
 30
0.0
 40
44.00000000009619
100
AcDbArc
 50
143.584339138
 51
144.415660862
  0
ARC
  5
4D6
330
1B
100
AcDbEntity
 67
     1
  8
0
  6
Continuous
 62
     7
370
    25
100
AcDbCircle
 10
-42.3291606062
 20
4.0768230732
 30
0.0
 40
22.50000000000061
100
AcDbArc
 50
73.0868838328
 51
79.237446933
  0
ARC
  5
4D7
330
1B
100
AcDbEntity
 67
     1
  8
0
  6
Continuous
 62
     7
370
    25
100
AcDbCircle
 10
0.0
 20
0.0
 30
0.0
 40
46.25099999995162
100
AcDbArc
 50
145.5237735224
 51
146.4762264776
  0
ARC
  5
4D8
330
1B
100
AcDbEntity
 67
     1
  8
0
  6
Continuous
 62
     7
370
    25
100
AcDbCircle
 10
-19.6367471883
 20
37.719709488
 30
0.0
 40
22.49999999999874
100
AcDbArc
 50
212.762553067
 51
218.9131161672
  0
ARC
  5
4D9
330
1B
100
AcDbEntity
 67
     1
  8
0
  6
Continuous
 62
     7
370
    25
100
AcDbCircle
 10
0.0000000001
 20
-0.0000000001
 30
0.0
 40
44.00000000012648
100
AcDbArc
 50
147.584339138
 51
148.415660862
  0
ARC
  5
4DA
330
1B
100
AcDbEntity
 67
     1
  8
0
  6
Continuous
 62
     7
370
    25
100
AcDbCircle
 10
-42.5104337001
 20
1.1141591567
 30
0.0
 40
22.49999999999836
100
AcDbArc
 50
77.0868838328
 51
83.237446933
  0
ARC
  5
4DB
330
1B
100
AcDbEntity
 67
     1
  8
0
  6
Continuous
 62
     7
370
    25
100
AcDbCircle
 10
-0.0000000001
 20
0.0000000001
 30
0.0
 40
46.25099999984627
100
AcDbArc
 50
149.5237735224
 51
150.4762264776
  0
ARC
  5
4DC
330
1B
100
AcDbEntity
 67
     1
  8
0
  6
Continuous
 62
     7
370
    25
100
AcDbCircle
 10
-22.2201069836
 20
36.2580359318
 30
0.0
 40
22.50000000000103
100
AcDbArc
 50
216.762553067
 51
222.9131161672
  0
ARC
  5
4DD
330
1B
100
AcDbEntity
 67
     1
  8
0
  6
Continuous
 62
     7
370
    25
100
AcDbCircle
 10
0.0000000004
 20
-0.0000000002
 30
0.0
 40
44.00000000047984
100
AcDbArc
 50
151.584339138
 51
152.415660862
  0
ARC
  5
4DE
330
1B
100
AcDbEntity
 67
     1
  8
0
  6
Continuous
 62
     7
370
    25
100
AcDbCircle
 10
-42.4846002341
 20
-1.8539328312
 30
0.0
 40
22.49999999999899
100
AcDbArc
 50
81.0868838328
 51
87.237446933
  0
ARC
  5
4DF
330
1B
100
AcDbEntity
 67
     1
  8
0
  6
Continuous
 62
     7
370
    25
100
AcDbCircle
 10
-0.0000000001
 20
0.0
 30
0.0
 40
46.25099999990729
100
AcDbArc
 50
153.5237735224
 51
154.4762264776
  0
ARC
  5
4E0
330
1B
100
AcDbEntity
 67
     1
  8
0
  6
Continuous
 62
     7
370
    25
100
AcDbCircle
 10
-24.6952126513
 20
34.6197168692
 30
0.0
 40
22.4999999999998
100
AcDbArc
 50
220.762553067
 51
226.9131161672
  0
ARC
  5
4E1
330
1B
100
AcDbEntity
 67
     1
  8
0
  6
Continuous
 62
     7
370
    25
100
AcDbCircle
 10
0.0000000001
 20
-0.0000000001
 30
0.0
 40
44.00000000015751
100
AcDbArc
 50
155.584339138
 51
156.415660862
  0
ARC
  5
4E2
330
1B
100
AcDbEntity
 67
     1
  8
0
  6
Continuous
 62
     7
370
    25
100
AcDbCircle
 10
-42.2517860663
 20
-4.8129926448
 30
0.0
 40
22.50000000000061
100
AcDbArc
 50
85.0868838328
 51
91.237446933
  0
ARC
  5
4E3
330
1B
100
AcDbEntity
 67
     1
  8
0
  6
Continuous
 62
     7
370
    25
100
AcDbCircle
 10
0.0
 20
0.0
 30
0.0
 40
46.25099999994858
100
AcDbArc
 50
157.5237735224
 51
158.4762264776
  0
ARC
  5
4E4
330
1B
100
AcDbEntity
 67
     1
  8
0
  6
Continuous
 62
     7
370
    25
100
AcDbCircle
 10
-27.0500057252
 20
32.812734026
 30
0.0
 40
22.49999999999994
100
AcDbArc
 50
224.762553067
 51
230.9131161672
  0
ARC
  5
4E5
330
1B
100
AcDbEntity
 67
     1
  8
0
  6
Continuous
 62
     7
370
    25
100
AcDbCircle
 10
0.0
 20
0.0
 30
0.0
 40
43.99999999996695
100
AcDbArc
 50
159.584339138
 51
160.415660862
  0
ARC
  5
4E6
330
1B
100
AcDbEntity
 67
     1
  8
0
  6
Continuous
 62
     7
370
    25
100
AcDbCircle
 10
-41.813125444
 20
-7.748604042
 30
0.0
 40
22.500000000001
100
AcDbArc
 50
89.0868838328
 51
95.237446933
  0
ARC
  5
4E7
330
1B
100
AcDbEntity
 67
     1
  8
0
  6
Continuous
 62
     7
370
    25
100
AcDbCircle
 10
-0.0000000002
 20
0.0000000001
 30
0.0
 40
46.25099999982441
100
AcDbArc
 50
161.5237735224
 51
162.4762264776
  0
ARC
  5
4E8
330
1B
100
AcDbEntity
 67
     1
  8
0
  6
Continuous
 62
     7
370
    25
100
AcDbCircle
 10
-29.2730138904
 20
30.8458908409
 30
0.0
 40
22.5000000000048
100
AcDbArc
 50
228.762553067
 51
234.9131161672
  0
ARC
  5
4E9
330
1B
100
AcDbEntity
 67
     1
  8
0
  6
Continuous
 62
     7
370
    25
100
AcDbCircle
 10
0.0
 20
0.0
 30
0.0
 40
43.99999999999927
100
AcDbArc
 50
163.584339138
 51
164.415660862
  0
ARC
  5
4EA
330
1B
100
AcDbEntity
 67
     1
  8
0
  6
Continuous
 62
     7
370
    25
100
AcDbCircle
 10
-41.1707554775
 20
-10.6464650192
 30
0.0
 40
22.50000000000065
100
AcDbArc
 50
93.0868838328
 51
99.237446933
  0
ARC
  5
4EB
330
1B
100
AcDbEntity
 67
     1
  8
0
  6
Continuous
 62
     7
370
    25
100
AcDbCircle
 10
-0.0000000001
 20
0.0
 30
0.0
 40
46.25099999984637
100
AcDbArc
 50
165.5237735224
 51
166.4762264776
  0
ARC
  5
4EC
330
1B
100
AcDbEntity
 67
     1
  8
0
  6
Continuous
 62
     7
370
    25
100
AcDbCircle
 10
-31.3534068743
 20
28.7287695763
 30
0.0
 40
22.49999999999788
100
AcDbArc
 50
232.762553067
 51
238.9131161672
  0
ARC
  5
4ED
330
1B
100
AcDbEntity
 67
     1
  8
0
  6
Continuous
 62
     7
370
    25
100
AcDbCircle
 10
0.0
 20
0.0
 30
0.0
 40
43.99999999998758
100
AcDbArc
 50
167.584339138
 51
168.415660862
  0
ARC
  5
4EE
330
1B
100
AcDbEntity
 67
     1
  8
0
  6
Continuous
 62
     7
370
    25
100
AcDbCircle
 10
-40.3278057288
 20
-13.492457489
 30
0.0
 40
22.49999999999842
100
AcDbArc
 50
97.0868838328
 51
103.237446933
  0
ARC
  5
4EF
330
1B
100
AcDbEntity
 67
     1
  8
0
  6
Continuous
 62
     7
370
    25
100
AcDbCircle
 10
-0.0000000001
 20
0.0
 30
0.0
 40
46.25099999990014
100
AcDbArc
 50
169.5237735224
 51
170.4762264776
  0
ARC
  5
4F0
330
1B
100
AcDbEntity
 67
     1
  8
0
  6
Continuous
 62
     7
370
    25
100
AcDbCircle
 10
-33.2810492117
 20
26.4716846341
 30
0.0
 40
22.49999999999992
100
AcDbArc
 50
236.762553067
 51
242.9131161672
  0
ARC
  5
4F1
330
1B
100
AcDbEntity
 67
     1
  8
0
  6
Continuous
 62
     7
370
    25
100
AcDbCircle
 10
-0.0000000002
 20
0.0
 30
0.0
 40
43.99999999976801
100
AcDbArc
 50
171.584339138
 51
172.415660862
  0
ARC
  5
4F2
330
1B
100
AcDbEntity
 67
     1
  8
0
  6
Continuous
 62
     7
370
    25
100
AcDbCircle
 10
-39.2883829644
 20
-16.2727160622
 30
0.0
 40
22.4999999999976
100
AcDbArc
 50
101.0868838328
 51
107.237446933
  0
ARC
  5
4F3
330
1B
100
AcDbEntity
 67
     1
  8
0
  6
Continuous
 62
     7
370
    25
100
AcDbCircle
 10
-0.0000000002
 20
0.0
 30
0.0
 40
46.25099999982
100
AcDbArc
 50
173.5237735224
 51
174.4762264776
  0
ARC
  5
4F4
330
1B
100
AcDbEntity
 67
     1
  8
0
  6
Continuous
 62
     7
370
    25
100
AcDbCircle
 10
-35.0465496226
 20
24.0856323052
 30
0.0
 40
22.49999999999789
100
AcDbArc
 50
240.762553067
 51
246.9131161672
  0
ARC
  5
4F5
330
1B
100
AcDbEntity
 67
     1
  8
0
  6
Continuous
 62
     7
370
    25
100
AcDbCircle
 10
0.0000000001
 20
0.0
 30
0.0
 40
44.00000000013236
100
AcDbArc
 50
175.584339138
 51
176.415660862
  0
ARC
  5
4F6
330
1B
100
AcDbEntity
 67
     1
  8
0
  6
Continuous
 62
     7
370
    25
100
AcDbCircle
 10
-38.0575511474
 20
-18.9736955984
 30
0.0
 40
22.50000000000155
100
AcDbArc
 50
105.0868838328
 51
111.237446933
  0
ARC
  5
4F7
330
1B
100
AcDbEntity
 67
     1
  8
0
  6
Continuous
 62
     7
370
    25
100
AcDbCircle
 10
-0.0000000002
 20
0.0
 30
0.0
 40
46.25099999984733
100
AcDbArc
 50
177.5237735224
 51
178.4762264776
  0
ARC
  5
4F8
330
1B
100
AcDbEntity
 67
     1
  8
0
  6
Continuous
 62
     7
370
    25
100
AcDbCircle
 10
-36.6413067667
 20
21.5822371969
 30
0.0
 40
22.50000000000008
100
AcDbArc
 50
244.762553067
 51
250.9131161672
  0
ARC
  5
4F9
330
1B
100
AcDbEntity
 67
     1
  8
0
  6
Continuous
 62
     7
370
    25
100
AcDbCircle
 10
0.0000000002
 20
0.0
 30
0.0
 40
44.00000000018863
100
AcDbArc
 50
179.584339138
 51
180.415660862
  0
ARC
  5
4FA
330
1B
100
AcDbEntity
 67
     1
  8
0
  6
Continuous
 62
     7
370
    25
100
AcDbCircle
 10
-36.6413067667
 20
-21.5822371969
 30
0.0
 40
22.5000000000017
100
AcDbArc
 50
109.0868838328
 51
115.237446933
  0
ARC
  5
4FB
330
1B
100
AcDbEntity
 67
     1
  8
0
  6
Continuous
 62
     7
370
    25
100
AcDbCircle
 10
-0.0000000001
 20
0.0
 30
0.0
 40
46.25099999993827
100
AcDbArc
 50
181.5237735224
 51
182.4762264776
  0
ARC
  5
4FC
330
1B
100
AcDbEntity
 67
     1
  8
0
  6
Continuous
 62
     7
370
    25
100
AcDbCircle
 10
-38.0575511474
 20
18.9736955984
 30
0.0
 40
22.50000000000188
100
AcDbArc
 50
248.762553067
 51
254.9131161672
  0
ARC
  5
4FD
330
1B
100
AcDbEntity
 67
     1
  8
0
  6
Continuous
 62
     7
370
    25
100
AcDbCircle
 10
0.0
 20
0.0
 30
0.0
 40
44.00000000001214
100
AcDbArc
 50
183.584339138
 51
184.415660862
  0
ARC
  5
4FE
330
1B
100
AcDbEntity
 67
     1
  8
0
  6
Continuous
 62
     7
370
    25
100
AcDbCircle
 10
-35.0465496226
 20
-24.0856323052
 30
0.0
 40
22.49999999999747
100
AcDbArc
 50
113.0868838328
 51
119.237446933
  0
ARC
  5
4FF
330
1B
100
AcDbEntity
 67
     1
  8
0
  6
Continuous
 62
     7
370
    25
100
AcDbCircle
 10
0.0
 20
0.0
 30
0.0
 40
46.25100000003554
100
AcDbArc
 50
185.5237735224
 51
186.4762264776
  0
ARC
  5
500
330
1B
100
AcDbEntity
 67
     1
  8
0
  6
Continuous
 62
     7
370
    25
100
AcDbCircle
 10
-39.2883829644
 20
16.2727160622
 30
0.0
 40
22.5000000000014
100
AcDbArc
 50
252.762553067
 51
258.9131161672
  0
ARC
  5
501
330
1B
100
AcDbEntity
 67
     1
  8
0
  6
Continuous
 62
     7
370
    25
100
AcDbCircle
 10
0.0000000003
 20
0.0
 30
0.0
 40
44.00000000027004
100
AcDbArc
 50
187.584339138
 51
188.415660862
  0
ARC
  5
502
330
1B
100
AcDbEntity
 67
     1
  8
0
  6
Continuous
 62
     7
370
    25
100
AcDbCircle
 10
-33.2810492117
 20
-26.4716846341
 30
0.0
 40
22.49999999999935
100
AcDbArc
 50
117.0868838328
 51
123.237446933
  0
ARC
  5
503
330
1B
100
AcDbEntity
 67
     1
  8
0
  6
Continuous
 62
     7
370
    25
100
AcDbCircle
 10
-0.0000000003
 20
0.0
 30
0.0
 40
46.25099999973919
100
AcDbArc
 50
189.5237735224
 51
190.4762264776
  0
ARC
  5
504
330
1B
100
AcDbEntity
 67
     1
  8
0
  6
Continuous
 62
     7
370
    25
100
AcDbCircle
 10
-40.3278057288
 20
13.492457489
 30
0.0
 40
22.49999999999926
100
AcDbArc
 50
256.762553067
 51
262.9131161672
  0
ARC
  5
505
330
1B
100
AcDbEntity
 67
     1
  8
0
  6
Continuous
 62
     7
370
    25
100
AcDbCircle
 10
0.0000000002
 20
0.0
 30
0.0
 40
44.00000000015627
100
AcDbArc
 50
191.584339138
 51
192.415660862
  0
ARC
  5
506
330
1B
100
AcDbEntity
 67
     1
  8
0
  6
Continuous
 62
     7
370
    25
100
AcDbCircle
 10
-31.3534068743
 20
-28.7287695763
 30
0.0
 40
22.50000000000086
100
AcDbArc
 50
121.0868838328
 51
127.237446933
  0
ARC
  5
507
330
1B
100
AcDbEntity
 67
     1
  8
0
  6
Continuous
 62
     7
370
    25
100
AcDbCircle
 10
-0.0000000001
 20
0.0
 30
0.0
 40
46.2509999999042
100
AcDbArc
 50
193.5237735224
 51
194.4762264776
  0
ARC
  5
508
330
1B
100
AcDbEntity
 67
     1
  8
0
  6
Continuous
 62
     7
370
    25
100
AcDbCircle
 10
-41.1707554775
 20
10.6464650192
 30
0.0
 40
22.49999999999978
100
AcDbArc
 50
260.762553067
 51
266.9131161672
  0
ARC
  5
509
330
1B
100
AcDbEntity
 67
     1
  8
0
  6
Continuous
 62
     7
370
    25
100
AcDbCircle
 10
0.0000000001
 20
0.0
 30
0.0
 40
44.00000000013654
100
AcDbArc
 50
195.584339138
 51
196.415660862
  0
ARC
  5
50A
330
1B
100
AcDbEntity
 67
     1
  8
0
  6
Continuous
 62
     7
370
    25
100
AcDbCircle
 10
-29.2730138904
 20
-30.8458908409
 30
0.0
 40
22.50000000000119
100
AcDbArc
 50
125.0868838328
 51
131.237446933
  0
ARC
  5
50B
330
1B
100
AcDbEntity
 67
     1
  8
0
  6
Continuous
 62
     7
370
    25
100
AcDbCircle
 10
-0.0000000001
 20
0.0
 30
0.0
 40
46.25099999985119
100
AcDbArc
 50
197.5237735224
 51
198.4762264776
  0
ARC
  5
50C
330
1B
100
AcDbEntity
 67
     1
  8
0
  6
Continuous
 62
     7
370
    25
100
AcDbCircle
 10
-41.813125444
 20
7.748604042
 30
0.0
 40
22.499999999997
100
AcDbArc
 50
264.762553067
 51
270.9131161672
  0
ARC
  5
50D
330
1B
100
AcDbEntity
 67
     1
  8
0
  6
Continuous
 62
     7
370
    25
100
AcDbCircle
 10
0.0000000001
 20
0.0
 30
0.0
 40
44.00000000010953
100
AcDbArc
 50
199.584339138
 51
200.415660862
  0
ARC
  5
50E
330
1B
100
AcDbEntity
 67
     1
  8
0
  6
Continuous
 62
     7
370
    25
100
AcDbCircle
 10
-27.0500057252
 20
-32.812734026
 30
0.0
 40
22.49999999999982
100
AcDbArc
 50
129.0868838328
 51
135.237446933
  0
ARC
  5
50F
330
1B
100
AcDbEntity
 67
     1
  8
0
  6
Continuous
 62
     7
370
    25
100
AcDbCircle
 10
0.0
 20
0.0
 30
0.0
 40
46.25100000000767
100
AcDbArc
 50
201.5237735224
 51
202.4762264776
  0
ARC
  5
510
330
1B
100
AcDbEntity
 67
     1
  8
0
  6
Continuous
 62
     7
370
    25
100
AcDbCircle
 10
-42.2517860663
 20
4.8129926448
 30
0.0
 40
22.50000000000024
100
AcDbArc
 50
268.762553067
 51
274.9131161672
  0
ARC
  5
511
330
1B
100
AcDbEntity
 67
     1
  8
0
  6
Continuous
 62
     7
370
    25
100
AcDbCircle
 10
0.0
 20
0.0
 30
0.0
 40
43.99999999996638
100
AcDbArc
 50
203.584339138
 51
204.415660862
  0
ARC
  5
512
330
1B
100
AcDbEntity
 67
     1
  8
0
  6
Continuous
 62
     7
370
    25
100
AcDbCircle
 10
-24.6952126513
 20
-34.6197168692
 30
0.0
 40
22.50000000000157
100
AcDbArc
 50
133.0868838328
 51
139.237446933
  0
ARC
  5
513
330
1B
100
AcDbEntity
 67
     1
  8
0
  6
Continuous
 62
     7
370
    25
100
AcDbCircle
 10
0.0000000001
 20
0.0
 30
0.0
 40
46.25100000008401
100
AcDbArc
 50
205.5237735224
 51
206.4762264776
  0
ARC
  5
514
330
1B
100
AcDbEntity
 67
     1
  8
0
  6
Continuous
 62
     7
370
    25
100
AcDbCircle
 10
-42.4846002341
 20
1.8539328313
 30
0.0
 40
22.50000000000164
100
AcDbArc
 50
272.762553067
 51
278.9131161672
  0
ARC
  5
515
330
1B
100
AcDbEntity
 67
     1
  8
0
  6
Continuous
 62
     7
370
    25
100
AcDbCircle
 10
0.0
 20
0.0
 30
0.0
 40
43.99999999998682
100
AcDbArc
 50
207.584339138
 51
208.415660862
  0
ARC
  5
516
330
1B
100
AcDbEntity
 67
     1
  8
0
  6
Continuous
 62
     7
370
    25
100
AcDbCircle
 10
-22.2201069836
 20
-36.2580359318
 30
0.0
 40
22.49999999999702
100
AcDbArc
 50
137.0868838328
 51
143.237446933
  0
ARC
  5
517
330
1B
100
AcDbEntity
 67
     1
  8
0
  6
Continuous
 62
     7
370
    25
100
AcDbCircle
 10
-0.0000000001
 20
-0.0000000001
 30
0.0
 40
46.25099999984735
100
AcDbArc
 50
209.5237735224
 51
210.4762264776
  0
ARC
  5
518
330
1B
100
AcDbEntity
 67
     1
  8
0
  6
Continuous
 62
     7
370
    25
100
AcDbCircle
 10
-42.5104337001
 20
-1.1141591567
 30
0.0
 40
22.49999999999803
100
AcDbArc
 50
276.762553067
 51
282.9131161672
  0
ARC
  5
519
330
1B
100
AcDbEntity
 67
     1
  8
0
  6
Continuous
 62
     7
370
    25
100
AcDbCircle
 10
0.0000000003
 20
0.0000000002
 30
0.0
 40
44.0000000003632
100
AcDbArc
 50
211.584339138
 51
212.415660862
  0
ARC
  5
51A
330
1B
100
AcDbEntity
 67
     1
  8
0
  6
Continuous
 62
     7
370
    25
100
AcDbCircle
 10
-19.6367471883
 20
-37.719709488
 30
0.0
 40
22.50000000000085
100
AcDbArc
 50
141.0868838328
 51
147.237446933
  0
ARC
  5
51B
330
1B
100
AcDbEntity
 67
     1
  8
0
  6
Continuous
 62
     7
370
    25
100
AcDbCircle
 10
-0.0000000001
 20
-0.0000000001
 30
0.0
 40
46.25099999983087
100
AcDbArc
 50
213.5237735224
 51
214.4762264776
  0
ARC
  5
51C
330
1B
100
AcDbEntity
 67
     1
  8
0
  6
Continuous
 62
     7
370
    25
100
AcDbCircle
 10
-42.3291606062
 20
-4.0768230732
 30
0.0
 40
22.5000000000006
100
AcDbArc
 50
280.762553067
 51
286.9131161672
  0
ARC
  5
51D
330
1B
100
AcDbEntity
 67
     1
  8
0
  6
Continuous
 62
     7
370
    25
100
AcDbCircle
 10
0.0000000001
 20
0.0000000001
 30
0.0
 40
44.00000000015578
100
AcDbArc
 50
215.584339138
 51
216.415660862
  0
ARC
  5
51E
330
1B
100
AcDbEntity
 67
     1
  8
0
  6
Continuous
 62
     7
370
    25
100
AcDbCircle
 10
-16.9577191345
 20
-38.9976164111
 30
0.0
 40
22.49999999999966
100
AcDbArc
 50
145.0868838328
 51
151.237446933
  0
ARC
  5
51F
330
1B
100
AcDbEntity
 67
     1
  8
0
  6
Continuous
 62
     7
370
    25
100
AcDbCircle
 10
0.0
 20
0.0
 30
0.0
 40
46.25099999996927
100
AcDbArc
 50
217.5237735224
 51
218.4762264776
  0
ARC
  5
520
330
1B
100
AcDbEntity
 67
     1
  8
0
  6
Continuous
 62
     7
370
    25
100
AcDbCircle
 10
-41.9416640967
 20
-7.0196251176
 30
0.0
 40
22.49999999999952
100
AcDbArc
 50
284.762553067
 51
290.9131161672
  0
ARC
  5
521
330
1B
100
AcDbEntity
 67
     1
  8
0
  6
Continuous
 62
     7
370
    25
100
AcDbCircle
 10
0.0
 20
0.0
 30
0.0
 40
44.00000000000481
100
AcDbArc
 50
219.584339138
 51
220.415660862
  0
ARC
  5
522
330
1B
100
AcDbEntity
 67
     1
  8
0
  6
Continuous
 62
     7
370
    25
100
AcDbCircle
 10
-14.1960747777
 20
-40.0855308671
 30
0.0
 40
22.49999999999643
100
AcDbArc
 50
149.0868838328
 51
155.237446933
  0
ARC
  5
523
330
1B
100
AcDbEntity
 67
     1
  8
0
  6
Continuous
 62
     7
370
    25
100
AcDbCircle
 10
0.0
 20
0.0
 30
0.0
 40
46.2509999999501
100
AcDbArc
 50
221.5237735224
 51
222.4762264776
  0
ARC
  5
524
330
1B
100
AcDbEntity
 67
     1
  8
0
  6
Continuous
 62
     7
370
    25
100
AcDbCircle
 10
-41.3498320158
 20
-9.9282282539
 30
0.0
 40
22.50000000000076
100
AcDbArc
 50
288.762553067
 51
294.9131161672
  0
ARC
  5
525
330
1B
100
AcDbEntity
 67
     1
  8
0
  6
Continuous
 62
     7
370
    25
100
AcDbCircle
 10
0.0
 20
0.0
 30
0.0
 40
43.99999999995772
100
AcDbArc
 50
223.584339138
 51
224.415660862
  0
ARC
  5
526
330
1B
100
AcDbEntity
 67
     1
  8
0
  6
Continuous
 62
     7
370
    25
100
AcDbCircle
 10
-11.3652685716
 20
-40.9781526461
 30
0.0
 40
22.50000000000133
100
AcDbArc
 50
153.0868838328
 51
159.237446933
  0
ARC
  5
527
330
1B
100
AcDbEntity
 67
     1
  8
0
  6
Continuous
 62
     7
370
    25
100
AcDbCircle
 10
0.0
 20
0.0
 30
0.0
 40
46.25099999996737
100
AcDbArc
 50
225.5237735224
 51
226.4762264776
  0
ARC
  5
528
330
1B
100
AcDbEntity
 67
     1
  8
0
  6
Continuous
 62
     7
370
    25
100
AcDbCircle
 10
-40.5565477097
 20
-12.7884620602
 30
0.0
 40
22.50000000000264
100
AcDbArc
 50
292.762553067
 51
298.9131161672
  0
ARC
  5
529
330
1B
100
AcDbEntity
 67
     1
  8
0
  6
Continuous
 62
     7
370
    25
100
AcDbCircle
 10
0.0000000001
 20
0.0000000001
 30
0.0
 40
44.00000000014327
100
AcDbArc
 50
227.584339138
 51
228.415660862
  0
ARC
  5
52A
330
1B
100
AcDbEntity
 67
     1
  8
0
  6
Continuous
 62
     7
370
    25
100
AcDbCircle
 10
-8.4790919195
 20
-41.6711329845
 30
0.0
 40
22.4999999999967
100
AcDbArc
 50
157.0868838328
 51
163.237446933
  0
ARC
  5
52B
330
1B
100
AcDbEntity
 67
     1
  8
0
  6
Continuous
 62
     7
370
    25
100
AcDbCircle
 10
0.0
 20
0.0
 30
0.0
 40
46.25100000003157
100
AcDbArc
 50
229.5237735224
 51
230.4762264776
  0
ARC
  5
52C
330
1B
100
AcDbEntity
 67
     1
  8
0
  6
Continuous
 62
     7
370
    25
100
AcDbCircle
 10
-39.5656759799
 20
-15.5863917649
 30
0.0
 40
22.49999999999878
100
AcDbArc
 50
296.762553067
 51
302.9131161672
  0
ARC
  5
52D
330
1B
100
AcDbEntity
 67
     1
  8
0
  6
Continuous
 62
     7
370
    25
100
AcDbCircle
 10
0.0
 20
0.0
 30
0.0
 40
43.99999999997977
100
AcDbArc
 50
231.584339138
 51
232.415660862
  0
ARC
  5
52E
330
1B
100
AcDbEntity
 67
     1
  8
0
  6
Continuous
 62
     7
370
    25
100
AcDbCircle
 10
-5.5516059838
 20
-42.1610957518
 30
0.0
 40
22.49999999999611
100
AcDbArc
 50
161.0868838328
 51
167.237446933
  0
ARC
  5
52F
330
1B
100
AcDbEntity
 67
     1
  8
0
  6
Continuous
 62
     7
370
    25
100
AcDbCircle
 10
-0.0000000001
 20
-0.0000000001
 30
0.0
 40
46.25099999990711
100
AcDbArc
 50
233.5237735224
 51
234.4762264776
  0
ARC
  5
530
330
1B
100
AcDbEntity
 67
     1
  8
0
  6
Continuous
 62
     7
370
    25
100
AcDbCircle
 10
-38.3820442539
 20
-18.3083861356
 30
0.0
 40
22.49999999999964
100
AcDbArc
 50
300.762553067
 51
306.9131161672
  0
ARC
  5
531
330
1B
100
AcDbEntity
 67
     1
  8
0
  6
Continuous
 62
     7
370
    25
100
AcDbCircle
 10
0.0
 20
0.0
 30
0.0
 40
43.9999999999634
100
AcDbArc
 50
235.584339138
 51
236.415660862
  0
ARC
  5
532
330
1B
100
AcDbEntity
 67
     1
  8
0
  6
Continuous
 62
     7
370
    25
100
AcDbCircle
 10
-2.5970731818
 20
-42.4456538986
 30
0.0
 40
22.50000000000047
100
AcDbArc
 50
165.0868838328
 51
171.237446933
  0
ARC
  5
533
330
1B
100
AcDbEntity
 67
     1
  8
0
  6
Continuous
 62
     7
370
    25
100
AcDbCircle
 10
-0.0000000001
 20
-0.0000000001
 30
0.0
 40
46.25099999984212
100
AcDbArc
 50
237.5237735224
 51
238.4762264776
  0
ARC
  5
534
330
1B
100
AcDbEntity
 67
     1
  8
0
  6
Continuous
 62
     7
370
    25
100
AcDbCircle
 10
-37.0114190664
 20
-20.9411838894
 30
0.0
 40
22.50000000000025
100
AcDbArc
 50
304.762553067
 51
310.9131161672
  0
ARC
  5
535
330
1B
100
AcDbEntity
 67
     1
  8
0
  6
Continuous
 62
     7
370
    25
100
AcDbCircle
 10
0.0000000001
 20
0.0000000002
 30
0.0
 40
44.00000000021141
100
AcDbArc
 50
239.584339138
 51
240.415660862
  0
ARC
  5
536
330
1B
100
AcDbEntity
 67
     1
  8
0
  6
Continuous
 62
     7
370
    25
100
AcDbCircle
 10
0.3701122997
 20
-42.5234210863
 30
0.0
 40
22.49999999999999
100
AcDbArc
 50
169.0868838328
 51
175.237446933
  0
ARC
  5
537
330
1B
100
AcDbEntity
 67
     1
  8
0
  6
Continuous
 62
     7
370
    25
100
AcDbCircle
 10
-0.0000000001
 20
-0.0000000001
 30
0.0
 40
46.25099999983392
100
AcDbArc
 50
241.5237735224
 51
242.4762264776
  0
ARC
  5
538
330
1B
100
AcDbEntity
 67
     1
  8
0
  6
Continuous
 62
     7
370
    25
100
AcDbCircle
 10
-35.4604779656
 20
-23.4719583002
 30
0.0
 40
22.49999999999614
100
AcDbArc
 50
308.762553067
 51
314.9131161672
  0
ARC
  5
539
330
1B
100
AcDbEntity
 67
     1
  8
0
  6
Continuous
 62
     7
370
    25
100
AcDbCircle
 10
0.0
 20
0.0
 30
0.0
 40
44.00000000005098
100
AcDbArc
 50
243.584339138
 51
244.415660862
  0
ARC
  5
53A
330
1B
100
AcDbEntity
 67
     1
  8
0
  6
Continuous
 62
     7
370
    25
100
AcDbCircle
 10
3.3354946312
 20
-42.3940184408
 30
0.0
 40
22.4999999999976
100
AcDbArc
 50
173.0868838328
 51
179.237446933
  0
ARC
  5
53B
330
1B
100
AcDbEntity
 67
     1
  8
0
  6
Continuous
 62
     7
370
    25
100
AcDbCircle
 10
-0.0000000001
 20
-0.0000000002
 30
0.0
 40
46.25099999981367
100
AcDbArc
 50
245.5237735224
 51
246.4762264776
  0
ARC
  5
53C
330
1B
100
AcDbEntity
 67
     1
  8
0
  6
Continuous
 62
     7
370
    25
100
AcDbCircle
 10
-33.7367769806
 20
-25.8883796897
 30
0.0
 40
22.49999999999666
100
AcDbArc
 50
312.762553067
 51
318.9131161672
  0
ARC
  5
53D
330
1B
100
AcDbEntity
 67
     1
  8
0
  6
Continuous
 62
     7
370
    25
100
AcDbCircle
 10
0.0000000002
 20
0.0000000004
 30
0.0
 40
44.00000000044788
100
AcDbArc
 50
247.584339138
 51
248.415660862
  0
ARC
  5
53E
330
1B
100
AcDbEntity
 67
     1
  8
0
  6
Continuous
 62
     7
370
    25
100
AcDbCircle
 10
6.2846267682
 20
-42.0580763989
 30
0.0
 40
22.50000000000399
100
AcDbArc
 50
177.0868838328
 51
183.237446933
  0
ARC
  5
53F
330
1B
100
AcDbEntity
 67
     1
  8
0
  6
Continuous
 62
     7
370
    25
100
AcDbCircle
 10
0.0
 20
-0.0000000001
 30
0.0
 40
46.25099999988662
100
AcDbArc
 50
249.5237735224
 51
250.4762264776
  0
ARC
  5
540
330
1B
100
AcDbEntity
 67
     1
  8
0
  6
Continuous
 62
     7
370
    25
100
AcDbCircle
 10
-31.8487138094
 20
-28.1786754956
 30
0.0
 40
22.49999999999506
100
AcDbArc
 50
316.762553067
 51
322.9131161672
  0
ARC
  5
541
330
1B
100
AcDbEntity
 67
     1
  8
0
  6
Continuous
 62
     7
370
    25
100
AcDbCircle
 10
0.0
 20
0.0000000001
 30
0.0
 40
44.00000000014142
100
AcDbArc
 50
251.584339138
 51
252.415660862
  0
ARC
  5
542
330
1B
100
AcDbEntity
 67
     1
  8
0
  6
Continuous
 62
     7
370
    25
100
AcDbCircle
 10
9.2031408353
 20
-41.5172316365
 30
0.0
 40
22.50000000000053
100
AcDbArc
 50
181.0868838328
 51
187.237446933
  0
ARC
  5
543
330
1B
100
AcDbEntity
 67
     1
  8
0
  6
Continuous
 62
     7
370
    25
100
AcDbCircle
 10
0.0
 20
0.0
 30
0.0
 40
46.25099999999061
100
AcDbArc
 50
253.5237735224
 51
254.4762264776
  0
ARC
  5
544
330
1B
100
AcDbEntity
 67
     1
  8
0
  6
Continuous
 62
     7
370
    25
100
AcDbCircle
 10
-29.8054869059
 20
-30.3316876269
 30
0.0
 40
22.50000000000003
100
AcDbArc
 50
320.762553067
 51
326.9131161672
  0
ARC
  5
545
330
1B
100
AcDbEntity
 67
     1
  8
0
  6
Continuous
 62
     7
370
    25
100
AcDbCircle
 10
-0.0000000001
 20
-0.0000000003
 30
0.0
 40
43.99999999971975
100
AcDbArc
 50
255.584339138
 51
256.415660862
  0
ARC
  5
546
330
1B
100
AcDbEntity
 67
     1
  8
0
  6
Continuous
 62
     7
370
    25
100
AcDbCircle
 10
12.0768181254
 20
-40.7741190948
 30
0.0
 40
22.49999999999973
100
AcDbArc
 50
185.0868838328
 51
191.237446933
  0
ARC
  5
547
330
1B
100
AcDbEntity
 67
     1
  8
0
  6
Continuous
 62
     7
370
    25
100
AcDbCircle
 10
0.0
 20
0.0000000001
 30
0.0
 40
46.25100000009241
100
AcDbArc
 50
257.5237735224
 51
258.4762264776
  0
ARC
  5
548
330
1B
100
AcDbEntity
 67
     1
  8
0
  6
Continuous
 62
     7
370
    25
100
AcDbCircle
 10
-27.6170506662
 20
-32.3369268251
 30
0.0
 40
22.49999999999965
100
AcDbArc
 50
324.762553067
 51
330.9131161672
  0
ARC
  5
549
330
1B
100
AcDbEntity
 67
     1
  8
0
  6
Continuous
 62
     7
370
    25
100
AcDbCircle
 10
0.0
 20
0.0
 30
0.0
 40
43.99999999996083
100
AcDbArc
 50
259.584339138
 51
260.415660862
  0
ARC
  5
54A
330
1B
100
AcDbEntity
 67
     1
  8
0
  6
Continuous
 62
     7
370
    25
100
AcDbCircle
 10
14.8916583715
 20
-39.8323591436
 30
0.0
 40
22.49999999999845
100
AcDbArc
 50
189.0868838328
 51
195.237446933
  0
ARC
  5
54B
330
1B
100
AcDbEntity
 67
     1
  8
0
  6
Continuous
 62
     7
370
    25
100
AcDbCircle
 10
0.0
 20
-0.0000000003
 30
0.0
 40
46.25099999967966
100
AcDbArc
 50
261.5237735224
 51
262.4762264776
  0
ARC
  5
54C
330
1B
100
AcDbEntity
 67
     1
  8
0
  6
Continuous
 62
     7
370
    25
100
AcDbCircle
 10
-25.2940669318
 20
-34.1846237663
 30
0.0
 40
22.49999999999848
100
AcDbArc
 50
328.762553067
 51
334.9131161672
  0
ARC
  5
54D
330
1B
100
AcDbEntity
 67
     1
  8
0
  6
Continuous
 62
     7
370
    25
100
AcDbCircle
 10
0.0
 20
-0.0000000001
 30
0.0
 40
43.99999999988359
100
AcDbArc
 50
263.584339138
 51
264.415660862
  0
ARC
  5
54E
330
1B
100
AcDbEntity
 67
     1
  8
0
  6
Continuous
 62
     7
370
    25
100
AcDbCircle
 10
17.6339479549
 20
-38.6965399424
 30
0.0
 40
22.49999999999907
100
AcDbArc
 50
193.0868838328
 51
199.237446933
  0
ARC
  5
54F
330
1B
100
AcDbEntity
 67
     1
  8
0
  6
Continuous
 62
     7
370
    25
100
AcDbCircle
 10
0.0
 20
0.0000000001
 30
0.0
 40
46.25100000014796
100
AcDbArc
 50
265.5237735224
 51
266.4762264776
  0
ARC
  5
550
330
1B
100
AcDbEntity
 67
     1
  8
0
  6
Continuous
 62
     7
370
    25
100
AcDbCircle
 10
-22.8478530458
 20
-35.8657766567
 30
0.0
 40
22.50000000000203
100
AcDbArc
 50
332.762553067
 51
338.9131161672
  0
ARC
  5
551
330
1B
100
AcDbEntity
 67
     1
  8
0
  6
Continuous
 62
     7
370
    25
100
AcDbCircle
 10
0.0
 20
0.0000000002
 30
0.0
 40
44.00000000019028
100
AcDbArc
 50
267.584339138
 51
268.415660862
  0
ARC
  5
552
330
1B
100
AcDbEntity
 67
     1
  8
0
  6
Continuous
 62
     7
370
    25
100
AcDbCircle
 10
20.2903267165
 20
-37.3721950885
 30
0.0
 40
22.49999999999817
100
AcDbArc
 50
197.0868838328
 51
203.237446933
  0
ARC
  5
553
330
1B
100
AcDbEntity
 67
     1
  8
0
  6
Continuous
 62
     7
370
    25
100
AcDbCircle
 10
0.0
 20
0.0
 30
0.0
 40
46.25099999995077
100
AcDbArc
 50
269.5237735224
 51
270.4762264776
  0
ARC
  5
554
330
1B
100
AcDbEntity
 67
     1
  8
0
  6
Continuous
 62
     7
370
    25
100
AcDbCircle
 10
-20.2903267165
 20
-37.3721950885
 30
0.0
 40
22.49999999999935
100
AcDbArc
 50
336.762553067
 51
342.9131161672
  0
ARC
  5
555
330
1B
100
AcDbEntity
 67
     1
  8
0
  6
Continuous
 62
     7
370
    25
100
AcDbCircle
 10
0.0
 20
0.0
 30
0.0
 40
44.00000000002427
100
AcDbArc
 50
271.584339138
 51
272.415660862
  0
ARC
  5
556
330
1B
100
AcDbEntity
 67
     1
  8
0
  6
Continuous
 62
     7
370
    25
100
AcDbCircle
 10
22.8478530458
 20
-35.8657766567
 30
0.0
 40
22.49999999999696
100
AcDbArc
 50
201.0868838328
 51
207.237446933
  0
ARC
  5
557
330
1B
100
AcDbEntity
 67
     1
  8
0
  6
Continuous
 62
     7
370
    25
100
AcDbCircle
 10
0.0
 20
-0.0000000002
 30
0.0
 40
46.25099999982908
100
AcDbArc
 50
273.5237735224
 51
274.4762264776
  0
ARC
  5
558
330
1B
100
AcDbEntity
 67
     1
  8
0
  6
Continuous
 62
     7
370
    25
100
AcDbCircle
 10
-17.6339479549
 20
-38.6965399424
 30
0.0
 40
22.50000000000146
100
AcDbArc
 50
340.762553067
 51
346.9131161672
  0
ARC
  5
559
330
1B
100
AcDbEntity
 67
     1
  8
0
  6
Continuous
 62
     7
370
    25
100
AcDbCircle
 10
0.0
 20
0.0
 30
0.0
 40
44.0000000000466
100
AcDbArc
 50
275.584339138
 51
276.415660862
  0
ARC
  5
55A
330
1B
100
AcDbEntity
 67
     1
  8
0
  6
Continuous
 62
     7
370
    25
100
AcDbCircle
 10
25.2940669318
 20
-34.1846237663
 30
0.0
 40
22.50000000000067
100
AcDbArc
 50
205.0868838328
 51
211.237446933
  0
ARC
  5
55B
330
1B
100
AcDbEntity
 67
     1
  8
0
  6
Continuous
 62
     7
370
    25
100
AcDbCircle
 10
0.0
 20
0.0000000001
 30
0.0
 40
46.25100000007928
100
AcDbArc
 50
277.5237735224
 51
278.4762264776
  0
ARC
  5
55C
330
1B
100
AcDbEntity
 67
     1
  8
0
  6
Continuous
 62
     7
370
    25
100
AcDbCircle
 10
-14.8916583715
 20
-39.8323591436
 30
0.0
 40
22.50000000000064
100
AcDbArc
 50
344.762553067
 51
350.9131161672
  0
ARC
  5
55D
330
1B
100
AcDbEntity
 67
     1
  8
0
  6
Continuous
 62
     7
370
    25
100
AcDbCircle
 10
0.0
 20
-0.0000000001
 30
0.0
 40
43.99999999993549
100
AcDbArc
 50
279.584339138
 51
280.415660862
  0
ARC
  5
55E
330
1B
100
AcDbEntity
 67
     1
  8
0
  6
Continuous
 62
     7
370
    25
100
AcDbCircle
 10
27.6170506662
 20
-32.3369268251
 30
0.0
 40
22.50000000000067
100
AcDbArc
 50
209.0868838328
 51
215.237446933
  0
ARC
  5
55F
330
1B
100
AcDbEntity
 67
     1
  8
0
  6
Continuous
 62
     7
370
    25
100
AcDbCircle
 10
0.0
 20
-0.0000000001
 30
0.0
 40
46.2509999999101
100
AcDbArc
 50
281.5237735224
 51
282.4762264776
  0
ARC
  5
560
330
1B
100
AcDbEntity
 67
     1
  8
0
  6
Continuous
 62
     7
370
    25
100
AcDbCircle
 10
-12.0768181254
 20
-40.7741190948
 30
0.0
 40
22.4999999999973
100
AcDbArc
 50
348.762553067
 51
354.9131161672
  0
ARC
  5
561
330
1B
100
AcDbEntity
 67
     1
  8
0
  6
Continuous
 62
     7
370
    25
100
AcDbCircle
 10
-0.0000000001
 20
0.0000000004
 30
0.0
 40
44.00000000040204
100
AcDbArc
 50
283.584339138
 51
284.415660862
  0
ARC
  5
562
330
1B
100
AcDbEntity
 67
     1
  8
0
  6
Continuous
 62
     7
370
    25
100
AcDbCircle
 10
29.8054869059
 20
-30.3316876269
 30
0.0
 40
22.49999999999802
100
AcDbArc
 50
213.0868838328
 51
219.237446933
  0
ARC
  5
563
330
1B
100
AcDbEntity
 67
     1
  8
0
  6
Continuous
 62
     7
370
    25
100
AcDbCircle
 10
0.0000000001
 20
-0.0000000002
 30
0.0
 40
46.25099999975357
100
AcDbArc
 50
285.5237735224
 51
286.4762264776
  0
ARC
  5
564
330
1B
100
AcDbEntity
 67
     1
  8
0
  6
Continuous
 62
     7
370
    25
100
AcDbCircle
 10
-9.2031408353
 20
-41.5172316365
 30
0.0
 40
22.50000000000221
100
AcDbArc
 50
352.762553067
 51
358.9131161672
  0
ARC
  5
565
330
1B
100
AcDbEntity
 67
     1
  8
0
  6
Continuous
 62
     7
370
    25
100
AcDbCircle
 10
0.0
 20
0.0
 30
0.0
 40
44.00000000000556
100
AcDbArc
 50
287.584339138
 51
288.415660862
  0
ARC
  5
566
330
1B
100
AcDbEntity
 67
     1
  8
0
  6
Continuous
 62
     7
370
    25
100
AcDbCircle
 10
31.8487138094
 20
-28.1786754955
 30
0.0
 40
22.50000000000279
100
AcDbArc
 50
217.0868838328
 51
223.237446933
  0
ARC
  5
567
330
1B
100
AcDbEntity
 67
     1
  8
0
  6
Continuous
 62
     7
370
    25
100
AcDbCircle
 10
0.0000000001
 20
-0.0000000002
 30
0.0
 40
46.25099999982764
100
AcDbArc
 50
289.5237735224
 51
290.4762264776
  0
ARC
  5
568
330
1B
100
AcDbEntity
 67
     1
  8
0
  6
Continuous
 62
     7
370
    25
100
AcDbCircle
 10
-6.2846267682
 20
-42.0580763989
 30
0.0
 40
22.50000000000012
100
AcDbArc
 50
356.762553067
 51
2.9131161672
  0
ARC
  5
569
330
1B
100
AcDbEntity
 67
     1
  8
0
  6
Continuous
 62
     7
370
    25
100
AcDbCircle
 10
-0.0000000001
 20
0.0000000002
 30
0.0
 40
44.00000000026258
100
AcDbArc
 50
291.584339138
 51
292.415660862
  0
ARC
  5
56A
330
1B
100
AcDbEntity
 67
     1
  8
0
  6
Continuous
 62
     7
370
    25
100
AcDbCircle
 10
33.7367769806
 20
-25.8883796897
 30
0.0
 40
22.49999999999785
100
AcDbArc
 50
221.0868838328
 51
227.237446933
  0
ARC
  5
56B
330
1B
100
AcDbEntity
 67
     1
  8
0
  6
Continuous
 62
     7
370
    25
100
AcDbCircle
 10
0.0000000001
 20
-0.0000000002
 30
0.0
 40
46.25099999972979
100
AcDbArc
 50
293.5237735224
 51
294.4762264776
  0
ARC
  5
56C
330
1B
100
AcDbEntity
 67
     1
  8
0
  6
Continuous
 62
     7
370
    25
100
AcDbCircle
 10
-3.3354946312
 20
-42.3940184408
 30
0.0
 40
22.50000000000136
100
AcDbArc
 50
0.762553067
 51
6.9131161672
  0
ARC
  5
56D
330
1B
100
AcDbEntity
 67
     1
  8
0
  6
Continuous
 62
     7
370
    25
100
AcDbCircle
 10
0.0000000001
 20
-0.0000000001
 30
0.0
 40
43.99999999986164
100
AcDbArc
 50
295.584339138
 51
296.415660862
  0
ARC
  5
56E
330
1B
100
AcDbEntity
 67
     1
  8
0
  6
Continuous
 62
     7
370
    25
100
AcDbCircle
 10
35.4604779656
 20
-23.4719583002
 30
0.0
 40
22.50000000000252
100
AcDbArc
 50
225.0868838328
 51
231.237446933
  0
ARC
  5
56F
330
1B
100
AcDbEntity
 67
     1
  8
0
  6
Continuous
 62
     7
370
    25
100
AcDbCircle
 10
0.0
 20
-0.0000000001
 30
0.0
 40
46.25099999993175
100
AcDbArc
 50
297.5237735224
 51
298.4762264776
  0
ARC
  5
570
330
1B
100
AcDbEntity
 67
     1
  8
0
  6
Continuous
 62
     7
370
    25
100
AcDbCircle
 10
-0.3701122997
 20
-42.5234210863
 30
0.0
 40
22.50000000000159
100
AcDbArc
 50
4.762553067
 51
10.9131161672
  0
ARC
  5
571
330
1B
100
AcDbEntity
 67
     1
  8
0
  6
Continuous
 62
     7
370
    25
100
AcDbCircle
 10
0.0
 20
0.0000000001
 30
0.0
 40
44.00000000008028
100
AcDbArc
 50
299.584339138
 51
300.415660862
  0
ARC
  5
572
330
1B
100
AcDbEntity
 67
     1
  8
0
  6
Continuous
 62
     7
370
    25
100
AcDbCircle
 10
37.0114190664
 20
-20.9411838894
 30
0.0
 40
22.4999999999994
100
AcDbArc
 50
229.0868838328
 51
235.237446933
  0
ARC
  5
573
330
1B
100
AcDbEntity
 67
     1
  8
0
  6
Continuous
 62
     7
370
    25
100
AcDbCircle
 10
0.0000000001
 20
-0.0000000001
 30
0.0
 40
46.25099999987048
100
AcDbArc
 50
301.5237735224
 51
302.4762264776
  0
ARC
  5
574
330
1B
100
AcDbEntity
 67
     1
  8
0
  6
Continuous
 62
     7
370
    25
100
AcDbCircle
 10
2.5970731818
 20
-42.4456538986
 30
0.0
 40
22.49999999999996
100
AcDbArc
 50
8.762553067
 51
14.9131161672
  0
ARC
  5
575
330
1B
100
AcDbEntity
 67
     1
  8
0
  6
Continuous
 62
     7
370
    25
100
AcDbCircle
 10
-0.0000000001
 20
0.0000000001
 30
0.0
 40
44.00000000017857
100
AcDbArc
 50
303.584339138
 51
304.415660862
  0
ARC
  5
576
330
1B
100
AcDbEntity
 67
     1
  8
0
  6
Continuous
 62
     7
370
    25
100
AcDbCircle
 10
38.3820442539
 20
-18.3083861356
 30
0.0
 40
22.5000000000022
100
AcDbArc
 50
233.0868838328
 51
239.237446933
  0
ARC
  5
577
330
1B
100
AcDbEntity
 67
     1
  8
0
  6
Continuous
 62
     7
370
    25
100
AcDbCircle
 10
0.0000000001
 20
-0.0000000001
 30
0.0
 40
46.25099999987869
100
AcDbArc
 50
305.5237735224
 51
306.4762264776
  0
ARC
  5
578
330
1B
100
AcDbEntity
 67
     1
  8
0
  6
Continuous
 62
     7
370
    25
100
AcDbCircle
 10
5.5516059838
 20
-42.1610957518
 30
0.0
 40
22.49999999999782
100
AcDbArc
 50
12.762553067
 51
18.9131161672
  0
ARC
  5
579
330
1B
100
AcDbEntity
 67
     1
  8
0
  6
Continuous
 62
     7
370
    25
100
AcDbCircle
 10
0.0
 20
0.0
 30
0.0
 40
43.99999999998303
100
AcDbArc
 50
307.584339138
 51
308.415660862
  0
ARC
  5
57A
330
1B
100
AcDbEntity
 67
     1
  8
0
  6
Continuous
 62
     7
370
    25
100
AcDbCircle
 10
39.5656759799
 20
-15.5863917649
 30
0.0
 40
22.5000000000004
100
AcDbArc
 50
237.0868838328
 51
243.237446933
  0
ARC
  5
57B
330
1B
100
AcDbEntity
 67
     1
  8
0
  6
Continuous
 62
     7
370
    25
100
AcDbCircle
 10
0.0
 20
0.0
 30
0.0
 40
46.25099999996109
100
AcDbArc
 50
309.5237735224
 51
310.4762264776
  0
ARC
  5
57C
330
1B
100
AcDbEntity
 67
     1
  8
0
  6
Continuous
 62
     7
370
    25
100
AcDbCircle
 10
8.4790919195
 20
-41.6711329845
 30
0.0
 40
22.50000000000252
100
AcDbArc
 50
16.762553067
 51
22.9131161672
  0
ARC
  5
57D
330
1B
100
AcDbEntity
 67
     1
  8
0
  6
Continuous
 62
     7
370
    25
100
AcDbCircle
 10
0.0000000001
 20
-0.0000000001
 30
0.0
 40
43.999999999809
100
AcDbArc
 50
311.584339138
 51
312.415660862
  0
ARC
  5
57E
330
1B
100
AcDbEntity
 67
     1
  8
0
  6
Continuous
 62
     7
370
    25
100
AcDbCircle
 10
40.5565477097
 20
-12.7884620602
 30
0.0
 40
22.49999999999472
100
AcDbArc
 50
241.0868838328
 51
247.237446933
  0
ARC
  5
57F
330
1B
100
AcDbEntity
 67
     1
  8
0
  6
Continuous
 62
     7
370
    25
100
AcDbCircle
 10
0.0000000001
 20
-0.0000000001
 30
0.0
 40
46.25099999982086
100
AcDbArc
 50
313.5237735224
 51
314.4762264776
  0
ARC
  5
580
330
1B
100
AcDbEntity
 67
     1
  8
0
  6
Continuous
 62
     7
370
    25
100
AcDbCircle
 10
11.3652685716
 20
-40.9781526461
 30
0.0
 40
22.49999999999619
100
AcDbArc
 50
20.762553067
 51
26.9131161672
  0
ARC
  5
581
330
1B
100
AcDbEntity
 67
     1
  8
0
  6
Continuous
 62
     7
370
    25
100
AcDbCircle
 10
0.0000000002
 20
-0.0000000002
 30
0.0
 40
43.99999999970555
100
AcDbArc
 50
315.584339138
 51
316.415660862
  0
ARC
  5
582
330
1B
100
AcDbEntity
 67
     1
  8
0
  6
Continuous
 62
     7
370
    25
100
AcDbCircle
 10
41.3498320158
 20
-9.9282282539
 30
0.0
 40
22.49999999999752
100
AcDbArc
 50
245.0868838328
 51
251.237446933
  0
ARC
  5
583
330
1B
100
AcDbEntity
 67
     1
  8
0
  6
Continuous
 62
     7
370
    25
100
AcDbCircle
 10
0.0000000001
 20
-0.0000000001
 30
0.0
 40
46.25099999985467
100
AcDbArc
 50
317.5237735224
 51
318.4762264776
  0
ARC
  5
584
330
1B
100
AcDbEntity
 67
     1
  8
0
  6
Continuous
 62
     7
370
    25
100
AcDbCircle
 10
14.1960747777
 20
-40.0855308671
 30
0.0
 40
22.50000000000232
100
AcDbArc
 50
24.762553067
 51
30.9131161672
  0
ARC
  5
585
330
1B
100
AcDbEntity
 67
     1
  8
0
  6
Continuous
 62
     7
370
    25
100
AcDbCircle
 10
0.0
 20
0.0
 30
0.0
 40
44.00000000000202
100
AcDbArc
 50
319.584339138
 51
320.415660862
  0
ARC
  5
586
330
1B
100
AcDbEntity
 67
     1
  8
0
  6
Continuous
 62
     7
370
    25
100
AcDbCircle
 10
41.9416640967
 20
-7.0196251176
 30
0.0
 40
22.50000000000271
100
AcDbArc
 50
249.0868838328
 51
255.237446933
  0
ARC
  5
587
330
1B
100
AcDbEntity
 67
     1
  8
0
  6
Continuous
 62
     7
370
    25
100
AcDbCircle
 10
0.0000000001
 20
-0.0000000001
 30
0.0
 40
46.25099999981311
100
AcDbArc
 50
321.5237735224
 51
322.4762264776
  0
ARC
  5
588
330
1B
100
AcDbEntity
 67
     1
  8
0
  6
Continuous
 62
     7
370
    25
100
AcDbCircle
 10
16.9577191345
 20
-38.9976164111
 30
0.0
 40
22.50000000000454
100
AcDbArc
 50
28.762553067
 51
34.9131161672
  0
ARC
  5
589
330
1B
100
AcDbEntity
 67
     1
  8
0
  6
Continuous
 62
     7
370
    25
100
AcDbCircle
 10
0.0
 20
0.0
 30
0.0
 40
44.00000000004859
100
AcDbArc
 50
323.584339138
 51
324.415660862
  0
ARC
  5
58A
330
1B
100
AcDbEntity
 67
     1
  8
0
  6
Continuous
 62
     7
370
    25
100
AcDbCircle
 10
42.3291606062
 20
-4.0768230733
 30
0.0
 40
22.49999999999735
100
AcDbArc
 50
253.0868838328
 51
259.237446933
  0
ARC
  5
58B
330
1B
100
AcDbEntity
 67
     1
  8
0
  6
Continuous
 62
     7
370
    25
100
AcDbCircle
 10
0.0000000001
 20
-0.0000000001
 30
0.0
 40
46.25099999989465
100
AcDbArc
 50
325.5237735224
 51
326.4762264776
  0
ARC
  5
58C
330
1B
100
AcDbEntity
 67
     1
  8
0
  6
Continuous
 62
     7
370
    25
100
AcDbCircle
 10
19.6367471883
 20
-37.719709488
 30
0.0
 40
22.50000000000209
100
AcDbArc
 50
32.762553067
 51
38.9131161672
  0
ARC
  5
58D
330
1B
100
AcDbEntity
 67
     1
  8
0
  6
Continuous
 62
     7
370
    25
100
AcDbCircle
 10
-0.0000000002
 20
0.0000000001
 30
0.0
 40
44.0000000002019
100
AcDbArc
 50
327.584339138
 51
328.415660862
  0
ARC
  5
58E
330
1B
100
AcDbEntity
 67
     1
  8
0
  6
Continuous
 62
     7
370
    25
100
AcDbCircle
 10
42.5104337001
 20
-1.1141591567
 30
0.0
 40
22.50000000000119
100
AcDbArc
 50
257.0868838328
 51
263.237446933
  0
ARC
  5
58F
330
1B
100
AcDbEntity
 67
     1
  8
0
  6
Continuous
 62
     7
370
    25
100
AcDbCircle
 10
0.0
 20
0.0
 30
0.0
 40
46.25099999998303
100
AcDbArc
 50
329.5237735224
 51
330.4762264776
  0
ARC
  5
590
330
1B
100
AcDbEntity
 67
     1
  8
0
  6
Continuous
 62
     7
370
    25
100
AcDbCircle
 10
22.2201069836
 20
-36.2580359318
 30
0.0
 40
22.49999999999591
100
AcDbArc
 50
36.762553067
 51
42.9131161672
  0
ARC
  5
591
330
1B
100
AcDbEntity
 67
     1
  8
0
  6
Continuous
 62
     7
370
    25
100
AcDbCircle
 10
0.0000000002
 20
-0.0000000001
 30
0.0
 40
43.99999999980968
100
AcDbArc
 50
331.584339138
 51
332.415660862
  0
ARC
  5
592
330
1B
100
AcDbEntity
 67
     1
  8
0
  6
Continuous
 62
     7
370
    25
100
AcDbCircle
 10
42.4846002341
 20
1.8539328312
 30
0.0
 40
22.4999999999977
100
AcDbArc
 50
261.0868838328
 51
267.237446933
  0
ARC
  5
593
330
1B
100
AcDbEntity
 67
     1
  8
0
  6
Continuous
 62
     7
370
    25
100
AcDbCircle
 10
0.0
 20
0.0
 30
0.0
 40
46.25100000004021
100
AcDbArc
 50
333.5237735224
 51
334.4762264776
  0
ARC
  5
594
330
1B
100
AcDbEntity
 67
     1
  8
0
  6
Continuous
 62
     7
370
    25
100
AcDbCircle
 10
24.6952126513
 20
-34.6197168692
 30
0.0
 40
22.50000000000328
100
AcDbArc
 50
40.762553067
 51
46.9131161672
  0
ARC
  5
595
330
1B
100
AcDbEntity
 67
     1
  8
0
  6
Continuous
 62
     7
370
    25
100
AcDbCircle
 10
0.0
 20
0.0
 30
0.0
 40
44.00000000003035
100
AcDbArc
 50
335.584339138
 51
336.415660862
  0
ARC
  5
596
330
1B
100
AcDbEntity
 67
     1
  8
0
  6
Continuous
 62
     7
370
    25
100
AcDbCircle
 10
42.2517860663
 20
4.8129926448
 30
0.0
 40
22.50000000000076
100
AcDbArc
 50
265.0868838328
 51
271.237446933
  0
ARC
  5
597
330
1B
100
AcDbEntity
 67
     1
  8
0
  6
Continuous
 62
     7
370
    25
100
AcDbCircle
 10
0.0
 20
0.0
 30
0.0
 40
46.25100000001981
100
AcDbArc
 50
337.5237735224
 51
338.4762264776
  0
ARC
  5
598
330
1B
100
AcDbEntity
 67
     1
  8
0
  6
Continuous
 62
     7
370
    25
100
AcDbCircle
 10
27.0500057252
 20
-32.812734026
 30
0.0
 40
22.49999999999805
100
AcDbArc
 50
44.762553067
 51
50.9131161672
  0
ARC
  5
599
330
1B
100
AcDbEntity
 67
     1
  8
0
  6
Continuous
 62
     7
370
    25
100
AcDbCircle
 10
-0.0000000001
 20
0.0
 30
0.0
 40
44.00000000006688
100
AcDbArc
 50
339.584339138
 51
340.415660862
  0
ARC
  5
59A
330
1B
100
AcDbEntity
 67
     1
  8
0
  6
Continuous
 62
     7
370
    25
100
AcDbCircle
 10
41.813125444
 20
7.748604042
 30
0.0
 40
22.49999999999839
100
AcDbArc
 50
269.0868838328
 51
275.237446933
  0
ARC
  5
59B
330
1B
100
AcDbEntity
 67
     1
  8
0
  6
Continuous
 62
     7
370
    25
100
AcDbCircle
 10
0.0000000002
 20
-0.0000000001
 30
0.0
 40
46.25099999981913
100
AcDbArc
 50
341.5237735224
 51
342.4762264776
  0
ARC
  5
59C
330
1B
100
AcDbEntity
 67
     1
  8
0
  6
Continuous
 62
     7
370
    25
100
AcDbCircle
 10
29.2730138904
 20
-30.8458908409
 30
0.0
 40
22.49999999999885
100
AcDbArc
 50
48.762553067
 51
54.9131161672
  0
ARC
  5
59D
330
1B
100
AcDbEntity
 67
     1
  8
0
  6
Continuous
 62
     7
370
    25
100
AcDbCircle
 10
0.0000000003
 20
-0.0000000001
 30
0.0
 40
43.99999999972743
100
AcDbArc
 50
343.584339138
 51
344.415660862
  0
ARC
  5
59E
330
1B
100
AcDbEntity
 67
     1
  8
0
  6
Continuous
 62
     7
370
    25
100
AcDbCircle
 10
41.1707554775
 20
10.6464650192
 30
0.0
 40
22.49999999999942
100
AcDbArc
 50
273.0868838328
 51
279.237446933
  0
ARC
  5
59F
330
1B
100
AcDbEntity
 67
     1
  8
0
  6
Continuous
 62
     7
370
    25
100
AcDbCircle
 10
-0.0000000001
 20
0.0
 30
0.0
 40
46.25100000010242
100
AcDbArc
 50
345.5237735224
 51
346.4762264776
  0
ARC
  5
5A0
330
1B
100
AcDbEntity
 67
     1
  8
0
  6
Continuous
 62
     7
370
    25
100
AcDbCircle
 10
31.3534068743
 20
-28.7287695763
 30
0.0
 40
22.49999999999857
100
AcDbArc
 50
52.762553067
 51
58.9131161672
  0
ARC
  5
5A1
330
1B
100
AcDbEntity
 67
     1
  8
0
  6
Continuous
 62
     7
370
    25
100
AcDbCircle
 10
-0.0000000001
 20
0.0
 30
0.0
 40
44.00000000006425
100
AcDbArc
 50
347.584339138
 51
348.415660862
  0
ARC
  5
5A2
330
1B
100
AcDbEntity
 67
     1
  8
0
  6
Continuous
 62
     7
370
    25
100
AcDbCircle
 10
40.3278057288
 20
13.492457489
 30
0.0
 40
22.49999999999908
100
AcDbArc
 50
277.0868838328
 51
283.237446933
  0
ARC
  5
5A3
330
1B
100
AcDbEntity
 67
     1
  8
0
  6
Continuous
 62
     7
370
    25
100
AcDbCircle
 10
0.0000000001
 20
0.0
 30
0.0
 40
46.25099999990012
100
AcDbArc
 50
349.5237735224
 51
350.4762264776
  0
ARC
  5
5A4
330
1B
100
AcDbEntity
 67
     1
  8
0
  6
Continuous
 62
     7
370
    25
100
AcDbCircle
 10
33.2810492117
 20
-26.4716846341
 30
0.0
 40
22.4999999999986
100
AcDbArc
 50
56.762553067
 51
62.9131161672
  0
ARC
  5
5A5
330
1B
100
AcDbEntity
 67
     1
  8
0
  6
Continuous
 62
     7
370
    25
100
AcDbCircle
 10
0.0000000001
 20
0.0
 30
0.0
 40
43.99999999986365
100
AcDbArc
 50
351.584339138
 51
352.415660862
  0
ARC
  5
5A6
330
1B
100
AcDbEntity
 67
     1
  8
0
  6
Continuous
 62
     7
370
    25
100
AcDbCircle
 10
39.2883829644
 20
16.2727160622
 30
0.0
 40
22.49999999999732
100
AcDbArc
 50
281.0868838328
 51
287.237446933
  0
ARC
  5
5A7
330
1B
100
AcDbEntity
 67
     1
  8
0
  6
Continuous
 62
     7
370
    25
100
AcDbCircle
 10
0.0
 20
0.0
 30
0.0
 40
46.25100000003679
100
AcDbArc
 50
353.5237735224
 51
354.4762264776
  0
ARC
  5
5A8
330
1B
100
AcDbEntity
 67
     1
  8
0
  6
Continuous
 62
     7
370
    25
100
AcDbCircle
 10
35.0465496226
 20
-24.0856323052
 30
0.0
 40
22.4999999999977
100
AcDbArc
 50
60.762553067
 51
66.9131161672
  0
ARC
  5
5A9
330
1B
100
AcDbEntity
 67
     1
  8
0
  6
Continuous
 62
     7
370
    25
100
AcDbCircle
 10
0.0000000001
 20
0.0
 30
0.0
 40
43.99999999989305
100
AcDbArc
 50
355.584339138
 51
356.415660862
  0
ARC
  5
5AA
330
1B
100
AcDbEntity
 67
     1
  8
0
  6
Continuous
 62
     7
370
    25
100
AcDbCircle
 10
38.0575511474
 20
18.9736955984
 30
0.0
 40
22.50000000000002
100
AcDbArc
 50
285.0868838328
 51
291.237446933
  0
ARC
  5
5AB
330
1B
100
AcDbEntity
 67
     1
  8
0
  6
Continuous
 62
     7
370
    25
100
AcDbCircle
 10
0.0
 20
0.0
 30
0.0
 40
46.25100000000701
100
AcDbArc
 50
357.5237735224
 51
358.4762264776
  0
ARC
  5
5AC
330
1B
100
AcDbEntity
 67
     1
  8
0
  6
Continuous
 62
     7
370
    25
100
AcDbCircle
 10
36.6413067667
 20
-21.5822371969
 30
0.0
 40
22.50000000000042
100
AcDbArc
 50
64.762553067
 51
70.9131161672
  0
ARC
  5
5AD
330
1B
100
AcDbEntity
 67
     1
  8
0
  6
Continuous
 62
     7
370
    25
100
AcDbCircle
 10
-0.0000000001
 20
0.0
 30
0.0
 40
44.00000000006864
100
AcDbArc
 50
359.584339138
 51
0.415660862
  0
ARC
  5
5AE
330
1B
100
AcDbEntity
 67
     1
  8
0
  6
Continuous
 62
     7
370
    25
100
AcDbCircle
 10
36.6413067667
 20
21.5822371969
 30
0.0
 40
22.50000000000252
100
AcDbArc
 50
289.0868838328
 51
295.237446933
  0
ARC
  5
5AF
330
1B
100
AcDbEntity
 67
     1
  8
0
  6
Continuous
 62
     7
370
    25
100
AcDbCircle
 10
0.0000000002
 20
0.0
 30
0.0
 40
46.25099999984699
100
AcDbArc
 50
1.5237735224
 51
2.4762264776
  0
ARC
  5
5B0
330
1B
100
AcDbEntity
 67
     1
  8
0
  6
Continuous
 62
     7
370
    25
100
AcDbCircle
 10
38.0575511474
 20
-18.9736955984
 30
0.0
 40
22.50000000000228
100
AcDbArc
 50
68.762553067
 51
74.9131161672
  0
ARC
  5
5B1
330
1B
100
AcDbEntity
 67
     1
  8
0
  6
Continuous
 62
     7
370
    25
100
AcDbCircle
 10
-0.0000000002
 20
0.0
 30
0.0
 40
44.00000000022057
100
AcDbArc
 50
3.584339138
 51
4.415660862
  0
ARC
  5
5B2
330
1B
100
AcDbEntity
 67
     1
  8
0
  6
Continuous
 62
     7
370
    25
100
AcDbCircle
 10
35.0465496226
 20
24.0856323052
 30
0.0
 40
22.49999999999959
100
AcDbArc
 50
293.0868838328
 51
299.237446933
  0
ARC
  5
5B3
330
1B
100
AcDbEntity
 67
     1
  8
0
  6
Continuous
 62
     7
370
    25
100
AcDbCircle
 10
0.0000000001
 20
0.0
 30
0.0
 40
46.25099999994343
100
AcDbArc
 50
5.5237735224
 51
6.4762264776
  0
ARC
  5
5B4
330
1B
100
AcDbEntity
 67
     1
  8
0
  6
Continuous
 62
     7
370
    25
100
AcDbCircle
 10
39.2883829644
 20
-16.2727160622
 30
0.0
 40
22.50000000000046
100
AcDbArc
 50
72.762553067
 51
78.9131161672
  0
ARC
  5
5B5
330
1B
100
AcDbEntity
 67
     1
  8
0
  6
Continuous
 62
     7
370
    25
100
AcDbCircle
 10
-0.0000000003
 20
0.0
 30
0.0
 40
44.00000000031598
100
AcDbArc
 50
7.584339138
 51
8.415660862
  0
ARC
  5
5B6
330
1B
100
AcDbEntity
 67
     1
  8
0
  6
Continuous
 62
     7
370
    25
100
AcDbCircle
 10
33.2810492117
 20
26.4716846341
 30
0.0
 40
22.49999999999869
100
AcDbArc
 50
297.0868838328
 51
303.237446933
  0
ARC
  5
5B7
330
1B
100
AcDbEntity
 67
     1
  8
0
  6
Continuous
 62
     7
370
    25
100
AcDbCircle
 10
0.0
 20
0.0
 30
0.0
 40
46.25099999998807
100
AcDbArc
 50
9.5237735224
 51
10.4762264776
  0
ARC
  5
5B8
330
1B
100
AcDbEntity
 67
     1
  8
0
  6
Continuous
 62
     7
370
    25
100
AcDbCircle
 10
40.3278057288
 20
-13.492457489
 30
0.0
 40
22.50000000000144
100
AcDbArc
 50
76.762553067
 51
82.9131161672
  0
ARC
  5
5B9
330
1B
100
AcDbEntity
 67
     1
  8
0
  6
Continuous
 62
     7
370
    25
100
AcDbCircle
 10
0.0000000001
 20
0.0
 30
0.0
 40
43.99999999985938
100
AcDbArc
 50
11.584339138
 51
12.415660862
  0
ARC
  5
5BA
330
1B
100
AcDbEntity
 67
     1
  8
0
  6
Continuous
 62
     7
370
    25
100
AcDbCircle
 10
31.3534068743
 20
28.7287695763
 30
0.0
 40
22.50000000000245
100
AcDbArc
 50
301.0868838328
 51
307.237446933
  0
ARC
  5
5BB
330
1B
100
AcDbEntity
 67
     1
  8
0
  6
Continuous
 62
     7
370
    25
100
AcDbCircle
 10
0.0000000001
 20
0.0
 30
0.0
 40
46.2509999998711
100
AcDbArc
 50
13.5237735224
 51
14.4762264776
  0
ARC
  5
5BC
330
1B
100
AcDbEntity
 67
     1
  8
0
  6
Continuous
 62
     7
370
    25
100
AcDbCircle
 10
41.1707554775
 20
-10.6464650192
 30
0.0
 40
22.49999999999782
100
AcDbArc
 50
80.762553067
 51
86.9131161672
  0
ARC
  5
5BD
330
1B
100
AcDbEntity
 67
     1
  8
0
  6
Continuous
 62
     7
370
    25
100
AcDbCircle
 10
-0.0000000002
 20
-0.0000000001
 30
0.0
 40
44.00000000019961
100
AcDbArc
 50
15.584339138
 51
16.415660862
  0
ARC
  5
5BE
330
1B
100
AcDbEntity
 67
     1
  8
0
  6
Continuous
 62
     7
370
    25
100
AcDbCircle
 10
29.2730138904
 20
30.8458908409
 30
0.0
 40
22.49999999999667
100
AcDbArc
 50
305.0868838328
 51
311.237446933
  0
ARC
  5
5BF
330
1B
100
AcDbEntity
 67
     1
  8
0
  6
Continuous
 62
     7
370
    25
100
AcDbCircle
 10
0.0000000002
 20
0.0000000001
 30
0.0
 40
46.25099999979982
100
AcDbArc
 50
17.5237735224
 51
18.4762264776
  0
ARC
  5
5C0
330
1B
100
AcDbEntity
 67
     1
  8
0
  6
Continuous
 62
     7
370
    25
100
AcDbCircle
 10
41.813125444
 20
-7.748604042
 30
0.0
 40
22.49999999999931
100
AcDbArc
 50
84.762553067
 51
90.9131161672
  0
ARC
  5
5C1
330
1B
100
AcDbEntity
 67
     1
  8
0
  6
Continuous
 62
     7
370
    25
100
AcDbCircle
 10
0.0000000001
 20
0.0
 30
0.0
 40
43.99999999990353
100
AcDbArc
 50
19.584339138
 51
20.415660862
  0
ARC
  5
5C2
330
1B
100
AcDbEntity
 67
     1
  8
0
  6
Continuous
 62
     7
370
    25
100
AcDbCircle
 10
27.0500057252
 20
32.812734026
 30
0.0
 40
22.49999999999867
100
AcDbArc
 50
309.0868838328
 51
315.237446933
  0
ARC
  5
5C3
330
1B
100
AcDbEntity
 67
     1
  8
0
  6
Continuous
 62
     7
370
    25
100
AcDbCircle
 10
0.0000000002
 20
0.0000000001
 30
0.0
 40
46.25099999981282
100
AcDbArc
 50
21.5237735224
 51
22.4762264776
  0
ARC
  5
5C4
330
1B
100
AcDbEntity
 67
     1
  8
0
  6
Continuous
 62
     7
370
    25
100
AcDbCircle
 10
42.2517860663
 20
-4.8129926448
 30
0.0
 40
22.50000000000433
100
AcDbArc
 50
88.762553067
 51
94.9131161672
  0
ARC
  5
5C5
330
1B
100
AcDbEntity
 67
     1
  8
0
  6
Continuous
 62
     7
370
    25
100
AcDbCircle
 10
-0.0000000002
 20
-0.0000000001
 30
0.0
 40
44.00000000016612
100
AcDbArc
 50
23.584339138
 51
24.415660862
  0
ARC
  5
5C6
330
1B
100
AcDbEntity
 67
     1
  8
0
  6
Continuous
 62
     7
370
    25
100
AcDbCircle
 10
24.6952126513
 20
34.6197168692
 30
0.0
 40
22.50000000000164
100
AcDbArc
 50
313.0868838328
 51
319.237446933
  0
ARC
  5
5C7
330
1B
100
AcDbEntity
 67
     1
  8
0
  6
Continuous
 62
     7
370
    25
100
AcDbCircle
 10
0.0000000001
 20
0.0
 30
0.0
 40
46.2509999998889
100
AcDbArc
 50
25.5237735224
 51
26.4762264776
  0
ARC
  5
5C8
330
1B
100
AcDbEntity
 67
     1
  8
0
  6
Continuous
 62
     7
370
    25
100
AcDbCircle
 10
42.4846002341
 20
-1.8539328313
 30
0.0
 40
22.500000000002
100
AcDbArc
 50
92.762553067
 51
98.9131161672
  0
ARC
  5
5C9
330
1B
100
AcDbEntity
 67
     1
  8
0
  6
Continuous
 62
     7
370
    25
100
AcDbCircle
 10
-0.0000000001
 20
0.0
 30
0.0
 40
44.00000000008372
100
AcDbArc
 50
27.584339138
 51
28.415660862
  0
ARC
  5
5CA
330
1B
100
AcDbEntity
 67
     1
  8
0
  6
Continuous
 62
     7
370
    25
100
AcDbCircle
 10
22.2201069836
 20
36.2580359318
 30
0.0
 40
22.49999999999839
100
AcDbArc
 50
317.0868838328
 51
323.237446933
  0
ARC
  5
5CB
330
1B
100
AcDbEntity
 67
     1
  8
0
  6
Continuous
 62
     7
370
    25
100
AcDbCircle
 10
0.0000000001
 20
0.0
 30
0.0
 40
46.2509999999188
100
AcDbArc
 50
29.5237735224
 51
30.4762264776
  0
ARC
  5
5CC
330
1B
100
AcDbEntity
 67
     1
  8
0
  6
Continuous
 62
     7
370
    25
100
AcDbCircle
 10
42.5104337001
 20
1.1141591567
 30
0.0
 40
22.49999999999822
100
AcDbArc
 50
96.762553067
 51
102.9131161672
  0
ARC
  5
5CD
330
1B
100
AcDbEntity
 67
     1
  8
0
  6
Continuous
 62
     7
370
    25
100
AcDbCircle
 10
0.0
 20
0.0
 30
0.0
 40
43.99999999999492
100
AcDbArc
 50
31.584339138
 51
32.415660862
  0
ARC
  5
5CE
330
1B
100
AcDbEntity
 67
     1
  8
0
  6
Continuous
 62
     7
370
    25
100
AcDbCircle
 10
19.6367471883
 20
37.719709488
 30
0.0
 40
22.4999999999972
100
AcDbArc
 50
321.0868838328
 51
327.237446933
  0
ARC
  5
5CF
330
1B
100
AcDbEntity
 67
     1
  8
0
  6
Continuous
 62
     7
370
    25
100
AcDbCircle
 10
0.0000000001
 20
0.0000000001
 30
0.0
 40
46.25099999987896
100
AcDbArc
 50
33.5237735224
 51
34.4762264776
  0
ARC
  5
5D0
330
1B
100
AcDbEntity
 67
     1
  8
0
  6
Continuous
 62
     7
370
    25
100
AcDbCircle
 10
42.3291606062
 20
4.0768230733
 30
0.0
 40
22.49999999999969
100
AcDbArc
 50
100.762553067
 51
106.9131161672
  0
ARC
  5
5D1
330
1B
100
AcDbEntity
 67
     1
  8
0
  6
Continuous
 62
     7
370
    25
100
AcDbCircle
 10
0.0
 20
0.0
 30
0.0
 40
43.99999999999849
100
AcDbArc
 50
35.584339138
 51
36.415660862
  0
ARC
  5
5D2
330
1B
100
AcDbEntity
 67
     1
  8
0
  6
Continuous
 62
     7
370
    25
100
AcDbCircle
 10
16.9577191345
 20
38.9976164111
 30
0.0
 40
22.49999999999746
100
AcDbArc
 50
325.0868838328
 51
331.237446933
  0
ARC
  5
5D3
330
1B
100
AcDbEntity
 67
     1
  8
0
  6
Continuous
 62
     7
370
    25
100
AcDbCircle
 10
0.0000000001
 20
0.0000000001
 30
0.0
 40
46.25099999985477
100
AcDbArc
 50
37.5237735224
 51
38.4762264776
  0
ARC
  5
5D4
330
1B
100
AcDbEntity
 67
     1
  8
0
  6
Continuous
 62
     7
370
    25
100
AcDbCircle
 10
41.9416640967
 20
7.0196251176
 30
0.0
 40
22.49999999999955
100
AcDbArc
 50
104.762553067
 51
110.9131161672
  0
ARC
  5
5D5
330
1B
100
AcDbEntity
 67
     1
  8
0
  6
Continuous
 62
     7
370
    25
100
AcDbCircle
 10
0.0
 20
0.0
 30
0.0
 40
43.99999999994152
100
AcDbArc
 50
39.584339138
 51
40.415660862
  0
ARC
  5
5D6
330
1B
100
AcDbEntity
 67
     1
  8
0
  6
Continuous
 62
     7
370
    25
100
AcDbCircle
 10
14.1960747777
 20
40.0855308671
 30
0.0
 40
22.50000000000522
100
AcDbArc
 50
329.0868838328
 51
335.237446933
  0
ARC
  5
5D7
330
1B
100
AcDbEntity
 67
     1
  8
0
  6
Continuous
 62
     7
370
    25
100
AcDbCircle
 10
0.0000000001
 20
0.0000000001
 30
0.0
 40
46.25099999983515
100
AcDbArc
 50
41.5237735224
 51
42.4762264776
  0
ARC
  5
5D8
330
1B
100
AcDbEntity
 67
     1
  8
0
  6
Continuous
 62
     7
370
    25
100
AcDbCircle
 10
41.3498320158
 20
9.9282282539
 30
0.0
 40
22.50000000000071
100
AcDbArc
 50
108.762553067
 51
114.9131161672
  0
ARC
  5
5D9
330
1B
100
AcDbEntity
 67
     1
  8
0
  6
Continuous
 62
     7
370
    25
100
AcDbCircle
 10
0.0
 20
0.0
 30
0.0
 40
43.99999999999395
100
AcDbArc
 50
43.584339138
 51
44.415660862
  0
ARC
  5
5DA
330
1B
100
AcDbEntity
 67
     1
  8
0
  6
Continuous
 62
     7
370
    25
100
AcDbCircle
 10
11.3652685716
 20
40.9781526461
 30
0.0
 40
22.49999999999936
100
AcDbArc
 50
333.0868838328
 51
339.237446933
  0
ARC
  5
5DB
330
1B
100
AcDbEntity
 67
     1
  8
0
  6
Continuous
 62
     7
370
    25
100
AcDbCircle
 10
0.0000000001
 20
0.0000000001
 30
0.0
 40
46.25099999988224
100
AcDbArc
 50
45.5237735224
 51
46.4762264776
  0
ARC
  5
5DC
330
1B
100
AcDbEntity
 67
     1
  8
0
  6
Continuous
 62
     7
370
    25
100
AcDbCircle
 10
40.5565477097
 20
12.7884620602
 30
0.0
 40
22.49999999999982
100
AcDbArc
 50
112.762553067
 51
118.9131161672
  0
ARC
  5
5DD
330
1B
100
AcDbEntity
 67
     1
  8
0
  6
Continuous
 62
     7
370
    25
100
AcDbCircle
 10
0.0000000001
 20
0.0000000001
 30
0.0
 40
43.99999999980412
100
AcDbArc
 50
47.584339138
 51
48.415660862
  0
ARC
  5
5DE
330
1B
100
AcDbEntity
 67
     1
  8
0
  6
Continuous
 62
     7
370
    25
100
AcDbCircle
 10
8.4790919195
 20
41.6711329845
 30
0.0
 40
22.50000000000161
100
AcDbArc
 50
337.0868838328
 51
343.237446933
  0
ARC
  5
5DF
330
1B
100
AcDbEntity
 67
     1
  8
0
  6
Continuous
 62
     7
370
    25
100
AcDbCircle
 10
0.0
 20
0.0
 30
0.0
 40
46.25099999999394
100
AcDbArc
 50
49.5237735224
 51
50.4762264776
  0
ARC
  5
5E0
330
1B
100
AcDbEntity
 67
     1
  8
0
  6
Continuous
 62
     7
370
    25
100
AcDbCircle
 10
39.5656759799
 20
15.5863917649
 30
0.0
 40
22.50000000000004
100
AcDbArc
 50
116.762553067
 51
122.9131161672
  0
ARC
  5
5E1
330
1B
100
AcDbEntity
 67
     1
  8
0
  6
Continuous
 62
     7
370
    25
100
AcDbCircle
 10
-0.0000000001
 20
-0.0000000001
 30
0.0
 40
44.00000000009027
100
AcDbArc
 50
51.584339138
 51
52.415660862
  0
ARC
  5
5E2
330
1B
100
AcDbEntity
 67
     1
  8
0
  6
Continuous
 62
     7
370
    25
100
AcDbCircle
 10
5.5516059838
 20
42.1610957518
 30
0.0
 40
22.49999999999939
100
AcDbArc
 50
341.0868838328
 51
347.237446933
  0
ARC
  5
5E3
330
1B
100
AcDbEntity
 67
     1
  8
0
  6
Continuous
 62
     7
370
    25
100
AcDbCircle
 10
0.0000000001
 20
0.0000000001
 30
0.0
 40
46.25099999988892
100
AcDbArc
 50
53.5237735224
 51
54.4762264776
  0
ARC
  5
5E4
330
1B
100
AcDbEntity
 67
     1
  8
0
  6
Continuous
 62
     7
370
    25
100
AcDbCircle
 10
38.3820442539
 20
18.3083861356
 30
0.0
 40
22.49999999999944
100
AcDbArc
 50
120.762553067
 51
126.9131161672
  0
ARC
  5
5E5
330
1B
100
AcDbEntity
 67
     1
  8
0
  6
Continuous
 62
     7
370
    25
100
AcDbCircle
 10
-0.0000000001
 20
-0.0000000001
 30
0.0
 40
44.00000000014522
100
AcDbArc
 50
55.584339138
 51
56.415660862
  0
ARC
  5
5E6
330
1B
100
AcDbEntity
 67
     1
  8
0
  6
Continuous
 62
     7
370
    25
100
AcDbCircle
 10
2.5970731818
 20
42.4456538986
 30
0.0
 40
22.4999999999976
100
AcDbArc
 50
345.0868838328
 51
351.237446933
  0
ARC
  5
5E7
330
1B
100
AcDbEntity
 67
     1
  8
0
  6
Continuous
 62
     7
370
    25
100
AcDbCircle
 10
0.0
 20
0.0
 30
0.0
 40
46.2510000000259
100
AcDbArc
 50
57.5237735224
 51
58.4762264776
  0
ARC
  5
5E8
330
1B
100
AcDbEntity
 67
     1
  8
0
  6
Continuous
 62
     7
370
    25
100
AcDbCircle
 10
37.0114190664
 20
20.9411838894
 30
0.0
 40
22.49999999999776
100
AcDbArc
 50
124.762553067
 51
130.9131161672
  0
ARC
  5
5E9
330
1B
100
AcDbEntity
 67
     1
  8
0
  6
Continuous
 62
     7
370
    25
100
AcDbCircle
 10
0.0
 20
0.0
 30
0.0
 40
43.99999999994943
100
AcDbArc
 50
59.584339138
 51
60.415660862
  0
ARC
  5
5EA
330
1B
100
AcDbEntity
 67
     1
  8
0
  6
Continuous
 62
     7
370
    25
100
AcDbCircle
 10
-0.3701122997
 20
42.5234210863
 30
0.0
 40
22.49999999999702
100
AcDbArc
 50
349.0868838328
 51
355.237446933
  0
ARC
  5
5EB
330
1B
100
AcDbEntity
 67
     1
  8
0
  6
Continuous
 62
     7
370
    25
100
AcDbCircle
 10
0.0
 20
0.0000000001
 30
0.0
 40
46.25099999991593
100
AcDbArc
 50
61.5237735224
 51
62.4762264776
  0
ARC
  5
5EC
330
1B
100
AcDbEntity
 67
     1
  8
0
  6
Continuous
 62
     7
370
    25
100
AcDbCircle
 10
35.4604779656
 20
23.4719583002
 30
0.0
 40
22.49999999999984
100
AcDbArc
 50
128.762553067
 51
134.9131161672
  0
ARC
  5
5ED
330
1B
100
AcDbEntity
 67
     1
  8
0
  6
Continuous
 62
     7
370
    25
100
AcDbCircle
 10
-0.0000000001
 20
-0.0000000001
 30
0.0
 40
44.00000000014819
100
AcDbArc
 50
63.584339138
 51
64.415660862
  0
ARC
  5
5EE
330
1B
100
AcDbEntity
 67
     1
  8
0
  6
Continuous
 62
     7
370
    25
100
AcDbCircle
 10
-3.3354946312
 20
42.3940184408
 30
0.0
 40
22.50000000000355
100
AcDbArc
 50
353.0868838328
 51
359.237446933
  0
ARC
  5
5EF
330
1B
100
AcDbEntity
 67
     1
  8
0
  6
Continuous
 62
     7
370
    25
100
AcDbCircle
 10
0.0
 20
0.0000000001
 30
0.0
 40
46.25099999989853
100
AcDbArc
 50
65.5237735224
 51
66.4762264776
  0
ARC
  5
5F0
330
1B
100
AcDbEntity
 67
     1
  8
0
  6
Continuous
 62
     7
370
    25
100
AcDbCircle
 10
33.7367769806
 20
25.8883796897
 30
0.0
 40
22.49999999999998
100
AcDbArc
 50
132.762553067
 51
138.9131161672
  0
ARC
  5
5F1
330
1B
100
AcDbEntity
 67
     1
  8
0
  6
Continuous
 62
     7
370
    25
100
AcDbCircle
 10
-0.0000000001
 20
-0.0000000001
 30
0.0
 40
44.00000000014937
100
AcDbArc
 50
67.584339138
 51
68.415660862
  0
ARC
  5
5F2
330
1B
100
AcDbEntity
 67
     1
  8
0
  6
Continuous
 62
     7
370
    25
100
AcDbCircle
 10
-6.2846267682
 20
42.0580763989
 30
0.0
 40
22.49999999999686
100
AcDbArc
 50
357.0868838328
 51
3.237446933
  0
ARC
  5
5F3
330
1B
100
AcDbEntity
 67
     1
  8
0
  6
Continuous
 62
     7
370
    25
100
AcDbCircle
 10
0.0000000001
 20
0.0000000001
 30
0.0
 40
46.25099999984563
100
AcDbArc
 50
69.5237735224
 51
70.4762264776
  0
ARC
  5
5F4
330
1B
100
AcDbEntity
 67
     1
  8
0
  6
Continuous
 62
     7
370
    25
100
AcDbCircle
 10
31.8487138094
 20
28.1786754955
 30
0.0
 40
22.50000000000084
100
AcDbArc
 50
136.762553067
 51
142.9131161672
  0
ARC
  5
5F5
330
1B
100
AcDbEntity
 67
     1
  8
0
  6
Continuous
 62
     7
370
    25
100
AcDbCircle
 10
-0.0000000001
 20
-0.0000000002
 30
0.0
 40
44.00000000017867
100
AcDbArc
 50
71.584339138
 51
72.415660862
  0
ARC
  5
5F6
330
1B
100
AcDbEntity
 67
     1
  8
0
  6
Continuous
 62
     7
370
    25
100
AcDbCircle
 10
-9.2031408353
 20
41.5172316365
 30
0.0
 40
22.49999999999736
100
AcDbArc
 50
1.0868838328
 51
7.237446933
  0
ARC
  5
5F7
330
1B
100
AcDbEntity
 67
     1
  8
0
  6
Continuous
 62
     7
370
    25
100
AcDbCircle
 10
0.0
 20
0.0000000001
 30
0.0
 40
46.25099999986482
100
AcDbArc
 50
73.5237735224
 51
74.4762264776
  0
ARC
  5
5F8
330
1B
100
AcDbEntity
 67
     1
  8
0
  6
Continuous
 62
     7
370
    25
100
AcDbCircle
 10
29.8054869059
 20
30.3316876269
 30
0.0
 40
22.49999999999884
100
AcDbArc
 50
140.762553067
 51
146.9131161672
  0
ARC
  5
5F9
330
1B
100
AcDbEntity
 67
     1
  8
0
  6
Continuous
 62
     7
370
    25
100
AcDbCircle
 10
0.0000000001
 20
0.0000000003
 30
0.0
 40
43.99999999965404
100
AcDbArc
 50
75.584339138
 51
76.415660862
  0
ARC
  5
5FA
330
1B
100
AcDbEntity
 67
     1
  8
0
  6
Continuous
 62
     7
370
    25
100
AcDbCircle
 10
-12.0768181254
 20
40.7741190948
 30
0.0
 40
22.50000000000047
100
AcDbArc
 50
5.0868838328
 51
11.237446933
  0
ARC
  5
5FB
330
1B
100
AcDbEntity
 67
     1
  8
0
  6
Continuous
 62
     7
370
    25
100
AcDbCircle
 10
0.0
 20
0.0000000001
 30
0.0
 40
46.25099999989756
100
AcDbArc
 50
77.5237735224
 51
78.4762264776
  0
ARC
  5
5FC
330
1B
100
AcDbEntity
 67
     1
  8
0
  6
Continuous
 62
     7
370
    25
100
AcDbCircle
 10
27.6170506662
 20
32.3369268251
 30
0.0
 40
22.50000000000157
100
AcDbArc
 50
144.762553067
 51
150.9131161672
  0
ARC
  5
5FD
330
1B
100
AcDbEntity
 67
     1
  8
0
  6
Continuous
 62
     7
370
    25
100
AcDbCircle
 10
0.0
 20
0.0
 30
0.0
 40
43.99999999997241
100
AcDbArc
 50
79.584339138
 51
80.415660862
  0
ARC
  5
5FE
330
1B
100
AcDbEntity
 67
     1
  8
0
  6
Continuous
 62
     7
370
    25
100
AcDbCircle
 10
-14.8916583715
 20
39.8323591436
 30
0.0
 40
22.5000000000003
100
AcDbArc
 50
9.0868838328
 51
15.237446933
  0
ARC
  5
5FF
330
1B
100
AcDbEntity
 67
     1
  8
0
  6
Continuous
 62
     7
370
    25
100
AcDbCircle
 10
0.0
 20
0.0000000002
 30
0.0
 40
46.25099999983943
100
AcDbArc
 50
81.5237735224
 51
82.4762264776
  0
ARC
  5
600
330
1B
100
AcDbEntity
 67
     1
  8
0
  6
Continuous
 62
     7
370
    25
100
AcDbCircle
 10
25.2940669318
 20
34.1846237663
 30
0.0
 40
22.5000000000002
100
AcDbArc
 50
148.762553067
 51
154.9131161672
  0
ARC
  5
601
330
1B
100
AcDbEntity
 67
     1
  8
0
  6
Continuous
 62
     7
370
    25
100
AcDbCircle
 10
0.0
 20
-0.0000000001
 30
0.0
 40
44.00000000009488
100
AcDbArc
 50
83.584339138
 51
84.415660862
  0
ARC
  5
602
330
1B
100
AcDbEntity
 67
     1
  8
0
  6
Continuous
 62
     7
370
    25
100
AcDbCircle
 10
-17.6339479549
 20
38.6965399424
 30
0.0
 40
22.49999999999967
100
AcDbArc
 50
13.0868838328
 51
19.237446933
  0
ARC
  5
603
330
1B
100
AcDbEntity
 67
     1
  8
0
  6
Continuous
 62
     7
370
    25
100
AcDbCircle
 10
0.0
 20
0.0000000001
 30
0.0
 40
46.25099999986297
100
AcDbArc
 50
85.5237735224
 51
86.4762264776
  0
ARC
  5
604
330
1B
100
AcDbEntity
 67
     1
  8
0
  6
Continuous
 62
     7
370
    25
100
AcDbCircle
 10
22.8478530458
 20
35.8657766567
 30
0.0
 40
22.50000000000097
100
AcDbArc
 50
152.762553067
 51
158.9131161672
  0
VIEWPORT
  5
605
330
1B
100
AcDbEntity
 67
     1
  8
0
100
AcDbViewport
 10
0.0
 20
0.0
 30
0.0
 40
205.6
 41
156.0
 68
     1
 69
     1
 12
0.0
 22
0.0
 13
0.0
 23
0.0
 14
10.0
 24
10.0
 15
10.0
 25
10.0
 16
0.0
 26
0.0
 36
1.0
 17
0.0
 27
0.0
 37
0.0
 42
50.0
 43
0.0
 44
0.0
 45
99.96
 50
0.0
 51
0.0
 72
   100
 90
   557152
  1

281
     0
 71
     1
 74
     0
110
0.0
120
0.0
130
0.0
111
1.0
121
0.0
131
0.0
112
0.0
122
1.0
132
0.0
 79
     0
146
0.0
  0
ENDSEC
  0
SECTION
  2
OBJECTS
  0
DICTIONARY
  5
C
330
0
100
AcDbDictionary
281
     1
  3
ACAD_GROUP
350
D
  3
ACAD_LAYOUT
350
1A
  3
ACAD_MLINESTYLE
350
17
  3
ACAD_PLOTSETTINGS
350
19
  3
ACAD_PLOTSTYLENAME
350
E
  3
ACAD_SCALELIST
350
47
  3
DWGPROPS
350
607
  0
DICTIONARY
  5
D
102
{ACAD_REACTORS
330
C
102
}
330
C
100
AcDbDictionary
281
     1
  0
DICTIONARY
  5
1A
102
{ACAD_REACTORS
330
C
102
}
330
C
100
AcDbDictionary
281
     1
  3
_
350
1E
  3
Layout2
350
26
  3
Model
350
22
  0
DICTIONARY
  5
17
102
{ACAD_REACTORS
330
C
102
}
330
C
100
AcDbDictionary
281
     1
  3
Standard
350
18
  0
DICTIONARY
  5
19
102
{ACAD_REACTORS
330
C
102
}
330
C
100
AcDbDictionary
281
     1
  0
ACDBDICTIONARYWDFLT
  5
E
102
{ACAD_REACTORS
330
C
102
}
330
C
100
AcDbDictionary
281
     1
  3
Normal
350
F
100
AcDbDictionaryWithDefault
340
F
  0
DICTIONARY
  5
47
102
{ACAD_REACTORS
330
C
102
}
330
C
100
AcDbDictionary
281
     1
  3
A0
350
48
  3
A1
350
49
  3
A2
350
4A
  3
A3
350
4B
  3
A4
350
4C
  3
A5
350
4D
  3
A6
350
4E
  3
A7
350
4F
  3
A8
350
50
  3
A9
350
51
  3
B0
350
52
  3
B1
350
53
  3
B2
350
54
  3
B3
350
55
  3
B4
350
56
  3
B5
350
57
  3
B6
350
58
  0
XRECORD
  5
607
102
{ACAD_REACTORS
330
C
102
}
330
C
100
AcDbXrecord
280
     1
  1
DWGPROPS COOKIE
  2

  3

  4

  6

  7

  8
luo20
  9

300
=
301
=
302
=
303
=
304
=
305
=
306
=
307
=
308
=
309
=
 40
0.0
 41
2460363.203299028
 42
2460363.203385892
  1

 90
        0
  0
LAYOUT
  5
1E
102
{ACAD_REACTORS
330
1A
102
}
330
1A
100
AcDbPlotSettings
  1

  2
none_device
  4
ISO_A4_(210.00_x_297.00_MM)
  6

 40
7.5
 41
20.0
 42
7.5
 43
20.0
 44
210.0
 45
297.0
 46
0.0
 47
0.0
 48
0.0
 49
0.0
140
0.0
141
0.0
142
1.0
143
0.5025641026
 70
   688
 72
     1
 73
     1
 74
     1
  7

 75
     0
147
1.9897959184
148
49.0
149
49.0
100
AcDbLayout
  1
_
 70
     1
 71
     1
 10
-59.0512820513
 20
-52.7692307692
 11
90.2102564103
 21
52.7692307692
 12
0.0
 22
0.0
 32
0.0
 14
-49.0
 24
-49.0
 34
0.0
 15
49.0
 25
49.0
 35
0.0
146
0.0
 13
0.0
 23
0.0
 33
0.0
 16
1.0
 26
0.0
 36
0.0
 17
0.0
 27
1.0
 37
0.0
 76
     0
330
1B
331
605
  0
LAYOUT
  5
26
102
{ACAD_REACTORS
330
1A
102
}
330
1A
100
AcDbPlotSettings
  1

  2
none_device
  4

  6

 40
0.0
 41
0.0
 42
0.0
 43
0.0
 44
0.0
 45
0.0
 46
0.0
 47
0.0
 48
0.0
 49
0.0
140
0.0
141
0.0
142
1.0
143
1.0
 70
   688
 72
     1
 73
     0
 74
     5
  7

 75
    16
147
1.0
148
0.0
149
0.0
100
AcDbLayout
  1
Layout2
 70
     1
 71
     2
 10
0.0
 20
0.0
 11
0.0
 21
0.0
 12
0.0
 22
0.0
 32
0.0
 14
0.0
 24
0.0
 34
0.0
 15
0.0
 25
0.0
 35
0.0
146
0.0
 13
0.0
 23
0.0
 33
0.0
 16
1.0
 26
0.0
 36
0.0
 17
0.0
 27
1.0
 37
0.0
 76
     0
330
23
  0
LAYOUT
  5
22
102
{ACAD_REACTORS
330
1A
102
}
330
1A
100
AcDbPlotSettings
  1

  2
none_device
  4
ANSI_A_(11.00_x_8.50_Inches)
  6

 40
6.35
 41
19.05
 42
6.35000508
 43
19.05000254
 44
279.4
 45
215.9
 46
133.34999746
 47
88.89999873
 48
0.0
 49
0.0
140
0.0
141
0.0
142
0.0858673469
143
1.0
 70
  1696
 72
     0
 73
     0
 74
     0
  7

 75
     0
147
0.0179189148
148
-1300.4909072572
149
0.0
100
AcDbLayout
  1
Model
 70
     1
 71
     0
 10
0.0
 20
0.0
 11
420.0
 21
297.0
 12
0.0
 22
0.0
 32
0.0
 14
-49.0
 24
-49.0
 34
0.0
 15
49.0
 25
49.0
 35
0.0
146
0.0
 13
0.0
 23
0.0
 33
0.0
 16
1.0
 26
0.0
 36
0.0
 17
0.0
 27
1.0
 37
0.0
 76
     0
330
1F
331
29
  0
MLINESTYLE
  5
18
102
{ACAD_REACTORS
330
17
102
}
330
17
100
AcDbMlineStyle
  2
Standard
 70
     0
  3

 62
   256
 51
90.0
 52
90.0
 71
     2
 49
0.5
 62
   256
  6
BYLAYER
 49
-0.5
 62
   256
  6
BYLAYER
  0
ACDBPLACEHOLDER
  5
F
102
{ACAD_REACTORS
330
E
102
}
330
E
  0
SCALE
  5
48
102
{ACAD_REACTORS
330
47
102
}
330
47
100
AcDbScale
 70
     0
300
1:1
140
1.0
141
1.0
290
     1
  0
SCALE
  5
49
102
{ACAD_REACTORS
330
47
102
}
330
47
100
AcDbScale
 70
     0
300
1:2
140
1.0
141
2.0
290
     0
  0
SCALE
  5
4A
102
{ACAD_REACTORS
330
47
102
}
330
47
100
AcDbScale
 70
     0
300
1:4
140
1.0
141
4.0
290
     0
  0
SCALE
  5
4B
102
{ACAD_REACTORS
330
47
102
}
330
47
100
AcDbScale
 70
     0
300
1:5
140
1.0
141
5.0
290
     0
  0
SCALE
  5
4C
102
{ACAD_REACTORS
330
47
102
}
330
47
100
AcDbScale
 70
     0
300
1:8
140
1.0
141
8.0
290
     0
  0
SCALE
  5
4D
102
{ACAD_REACTORS
330
47
102
}
330
47
100
AcDbScale
 70
     0
300
1:10
140
1.0
141
10.0
290
     0
  0
SCALE
  5
4E
102
{ACAD_REACTORS
330
47
102
}
330
47
100
AcDbScale
 70
     0
300
1:16
140
1.0
141
16.0
290
     0
  0
SCALE
  5
4F
102
{ACAD_REACTORS
330
47
102
}
330
47
100
AcDbScale
 70
     0
300
1:20
140
1.0
141
20.0
290
     0
  0
SCALE
  5
50
102
{ACAD_REACTORS
330
47
102
}
330
47
100
AcDbScale
 70
     0
300
1:30
140
1.0
141
30.0
290
     0
  0
SCALE
  5
51
102
{ACAD_REACTORS
330
47
102
}
330
47
100
AcDbScale
 70
     0
300
1:40
140
1.0
141
40.0
290
     0
  0
SCALE
  5
52
102
{ACAD_REACTORS
330
47
102
}
330
47
100
AcDbScale
 70
     0
300
1:50
140
1.0
141
50.0
290
     0
  0
SCALE
  5
53
102
{ACAD_REACTORS
330
47
102
}
330
47
100
AcDbScale
 70
     0
300
1:100
140
1.0
141
100.0
290
     0
  0
SCALE
  5
54
102
{ACAD_REACTORS
330
47
102
}
330
47
100
AcDbScale
 70
     0
300
2:1
140
2.0
141
1.0
290
     0
  0
SCALE
  5
55
102
{ACAD_REACTORS
330
47
102
}
330
47
100
AcDbScale
 70
     0
300
4:1
140
4.0
141
1.0
290
     0
  0
SCALE
  5
56
102
{ACAD_REACTORS
330
47
102
}
330
47
100
AcDbScale
 70
     0
300
8:1
140
8.0
141
1.0
290
     0
  0
SCALE
  5
57
102
{ACAD_REACTORS
330
47
102
}
330
47
100
AcDbScale
 70
     0
300
10:1
140
10.0
141
1.0
290
     0
  0
SCALE
  5
58
102
{ACAD_REACTORS
330
47
102
}
330
47
100
AcDbScale
 70
     0
300
100:1
140
100.0
141
1.0
290
     0
  0
ENDSEC
  0
EOF
